<?xml version="1.0" encoding="utf-8"?>
<!-- Generator: Adobe Illustrator 22.1.0, SVG Export Plug-In . SVG Version: 6.00 Build 0)  -->
<svg version="1.1" id="Layer_1" xmlns="http://www.w3.org/2000/svg" xmlns:xlink="http://www.w3.org/1999/xlink" x="0px" y="0px"
	 viewBox="0 0 1611.8 1299.2" style="enable-background:new 0 0 1611.8 1299.2;" xml:space="preserve">
<style type="text/css">
	.st0{fill:url(#SVGID_1_);}
</style>
<title>Aplus</title>
<g>
	<linearGradient id="SVGID_1_" gradientUnits="userSpaceOnUse" x1="138.5184" y1="1422.217" x2="1176.9417" y2="383.7938">
		<stop  offset="1.082549e-07" style="stop-color:#4758A2"/>
		<stop  offset="0.5333" style="stop-color:#494D9B"/>
		<stop  offset="1" style="stop-color:#2B2A60"/>
	</linearGradient>
	<path class="st0" d="M1605.6,814.6v-0.4h-281.7V571.1c-8.4-4.9-124.5-34.5-124.5-34.5v10.2v257c0.7,3.7,0.3,7,0.1,10.6h-8.9H927.1
		c-5.4,1.8-10.6-1.5-12.1-6.8c-16.9-40.2-34.2-80.2-51.4-120.3l-288-673.5c-1.1-2.4-2.3-4.6-4.3-8.6
		C382.9,434.3,194.8,862.8,6.9,1290.6l173.4-55c39.6-92.9,79.3-185.9,119-279c2.6-6,5.8-9.4,12.5-8.4c0.8,0.1,1.6,0.1,2.5-2.9h504.3
		h7c2.8,2.6,5.3,4.4,6,7.2c0.6,1.8,1.5,3.4,2.2,5.2l116.3,280.2l172.8,54.7c-50.2-117.3-100-233.9-149.9-350.7
		c8.4-2,233.1,0.4,233.1,0.4V1177l123.5,38.6c0-93,0.5-184.5,0.7-276.8h234.5l40.6-117.9h0.4v-1.2l1.9-5.4L1605.6,814.6z M361,821.1
		l210-497l210,497H361z"/>
</g>
</svg>
