<?xml version="1.0" encoding="utf-8"?>
<!-- Generator: Adobe Illustrator 22.1.0, SVG Export Plug-In . SVG Version: 6.00 Build 0)  -->
<svg version="1.1" id="Layer_1" xmlns="http://www.w3.org/2000/svg" xmlns:xlink="http://www.w3.org/1999/xlink" x="0px" y="0px"
	 viewBox="0 0 1067 638" style="enable-background:new 0 0 1067 638;" xml:space="preserve">
<style type="text/css">
	.st0{fill:#F6F8F9;}
	.st1{fill:#FFFFFF;}
	.st2{fill:none;stroke:#808081;stroke-width:0.25;stroke-miterlimit:10;}
	.st3{fill:#F2F2F2;}
	.st4{fill:#A6A8AB;}
	.st5{fill:none;stroke:#008BD0;stroke-miterlimit:10;}
	.st6{fill:none;}
	.st7{fill:#404041;}
	.st8{font-family:'SFProDisplay-Light';}
	.st9{font-size:16.1698px;}
	.st10{fill:none;stroke:#FFFFFF;stroke-width:3;stroke-miterlimit:10;}
	.st11{fill:#008AD6;}
	.st12{fill:#EFF2F3;}
	.st13{fill:none;stroke:#008AD6;stroke-width:6;stroke-linecap:round;stroke-miterlimit:10;}
	.st14{fill:#D0D2D3;}
	.st15{fill:none;stroke:#000000;stroke-width:0.2;stroke-miterlimit:10;}
</style>
<rect x="-0.8" y="-1" class="st0" width="1068.5" height="640"/>
<g>
	<g>
		
			<image style="overflow:visible;opacity:0.75;enable-background:new    ;" width="1086" height="531" xlink:href="573675C5.png"  transform="matrix(1 0 0 1 -9 120)">
		</image>
		<g>
			<rect y="126" class="st1" width="1068" height="512.5"/>
		</g>
	</g>
	<line class="st2" x1="0" y1="146.1" x2="1068" y2="146.1"/>
	<line class="st2" x1="0" y1="222" x2="1068" y2="222"/>
	<line class="st2" x1="0" y1="212" x2="1068" y2="212"/>
	<line class="st2" x1="0" y1="359.4" x2="1068" y2="359.4"/>
	<line class="st2" x1="0" y1="381.7" x2="1068" y2="381.7"/>
	<line class="st2" x1="0" y1="503.4" x2="1068" y2="503.4"/>
	<line class="st2" x1="0" y1="514.6" x2="1068" y2="514.6"/>
	<rect y="210.9" class="st3" width="1066.9" height="11.2"/>
	<line class="st2" x1="54.3" y1="126" x2="54.3" y2="638.5"/>
	<line class="st2" x1="257" y1="126" x2="257" y2="638.5"/>
	<line class="st2" x1="865.3" y1="126" x2="865.3" y2="638.5"/>
	<rect x="257" y="574.3" class="st4" width="202.7" height="64.2"/>
	<rect x="53.8" y="146.1" class="st4" width="202.7" height="64.8"/>
	<rect x="53.8" y="292.9" class="st4" width="202.7" height="66"/>
	<rect x="53.8" y="442.6" class="st4" width="202.7" height="60.9"/>
	<rect x="53.8" y="516.2" class="st4" width="202.7" height="58.1"/>
	<rect x="53.8" y="574.3" class="st4" width="202.7" height="64.2"/>
	<rect x="53.8" y="222" class="st4" width="202.7" height="70.9"/>
	<line class="st2" x1="0" y1="292.9" x2="1068" y2="292.9"/>
	<rect x="53.8" y="382.1" class="st4" width="202.7" height="60.9"/>
	<line class="st2" x1="0" y1="574.3" x2="1068" y2="574.3"/>
	<line class="st5" x1="53.5" y1="533.1" x2="257.8" y2="533.1"/>
	<rect y="503.4" class="st3" width="1066.9" height="11.2"/>
	<rect x="662.3" y="383.1" class="st4" width="202.7" height="60.9"/>
	<rect x="662.3" y="517.2" class="st4" width="202.7" height="58.1"/>
	<rect x="662.3" y="575.3" class="st4" width="202.7" height="64.2"/>
	<rect x="864.8" y="147.1" class="st4" width="202.7" height="64.8"/>
	<rect x="864.8" y="293.9" class="st4" width="202.7" height="66"/>
	<rect x="864.8" y="517.2" class="st4" width="202.7" height="58.1"/>
	<rect x="864.8" y="223" class="st4" width="202.7" height="70.9"/>
	<rect x="459.1" y="293.9" class="st4" width="202.7" height="66"/>
	<rect x="459.1" y="223" class="st4" width="202.7" height="70.9"/>
	<rect x="459.1" y="147.9" class="st4" width="202.7" height="64"/>
	<rect x="660.9" y="538.5" class="st6" width="204.3" height="13.8"/>
	<text transform="matrix(0.9144 0 0 1 717.834 549.9355)" class="st7 st8 st9">INDISPONIBLE</text>
	<rect x="254.9" y="146.1" class="st7" width="158.4" height="212.8"/>
	<rect x="662.9" y="382.3" class="st7" width="158.4" height="212.8"/>
	<rect x="662.5" y="222" class="st7" width="158.8" height="137.6"/>
	<line class="st10" x1="280.2" y1="179.3" x2="386.6" y2="179.3"/>
	<line class="st10" x1="310.1" y1="191.5" x2="356.7" y2="191.5"/>
	<line class="st10" x1="290.1" y1="203.8" x2="376.7" y2="203.8"/>
	<line class="st10" x1="290.1" y1="292.3" x2="376.7" y2="292.3"/>
	<line class="st10" x1="310.1" y1="281.4" x2="356.7" y2="281.4"/>
	<line class="st10" x1="688.5" y1="416.2" x2="795" y2="416.2"/>
	<line class="st10" x1="718.4" y1="428.5" x2="765.1" y2="428.5"/>
	<line class="st10" x1="688.5" y1="254.2" x2="795" y2="254.2"/>
	<line class="st10" x1="718.4" y1="266.4" x2="765.1" y2="266.4"/>
	<line class="st10" x1="698.5" y1="440.7" x2="785" y2="440.7"/>
	<line class="st10" x1="698.5" y1="529.2" x2="785" y2="529.2"/>
	<line class="st10" x1="718.4" y1="518.3" x2="765.1" y2="518.3"/>
	<line class="st10" x1="718.4" y1="342.7" x2="765.1" y2="342.7"/>
	<line class="st10" x1="718.4" y1="331.8" x2="765.1" y2="331.8"/>
	<g>
		<path class="st11" d="M564.6,488.4h-8.7V478h-9v-9.2h9v-10.4h8.7v10.4h9v9.2h-9V488.4z"/>
	</g>
	<g>
		<path class="st11" d="M564.6,560.6h-8.7v-10.4h-9V541h9v-10.4h8.7V541h9v9.2h-9V560.6z"/>
	</g>
	<g>
		<path class="st11" d="M564.6,621.8h-8.7v-10.4h-9v-9.2h9v-10.4h8.7v10.4h9v9.2h-9V621.8z"/>
	</g>
	<g>
		<path class="st11" d="M970.4,427.1h-8.7v-10.4h-9v-9.2h9v-10.4h8.7v10.4h9v9.2h-9V427.1z"/>
	</g>
	<g>
		<path class="st11" d="M767.5,192.9h-8.7v-10.4h-9v-9.2h9v-10.4h8.7v10.4h9v9.2h-9V192.9z"/>
	</g>
	<g>
		<path class="st11" d="M970.4,488.4h-8.7V478h-9v-9.2h9v-10.4h8.7v10.4h9v9.2h-9V488.4z"/>
	</g>
	<g>
		<path class="st11" d="M970.4,621.8h-8.7v-10.4h-9v-9.2h9v-10.4h8.7v10.4h9v9.2h-9V621.8z"/>
	</g>
	<g>
		<path class="st11" d="M361.7,488.4H353V478h-9v-9.2h9v-10.4h8.7v10.4h9v9.2h-9V488.4z"/>
	</g>
	<g>
		<path class="st11" d="M361.7,560.6H353v-10.4h-9V541h9v-10.4h8.7V541h9v9.2h-9V560.6z"/>
	</g>
	<g>
		<path class="st11" d="M361.7,427.1H353v-10.4h-9v-9.2h9v-10.4h8.7v10.4h9v9.2h-9V427.1z"/>
	</g>
	<g>
		
			<image style="overflow:visible;opacity:0.75;enable-background:new    ;" width="1220" height="520" xlink:href="573675C7.png"  transform="matrix(0.186 0 0 0.1807 448.028 371.9472)">
		</image>
		<g>
			<rect x="459.6" y="381.8" class="st12" width="203.2" height="60.4"/>
		</g>
	</g>
	<g>
		<path class="st11" d="M564.6,427.1h-8.7v-10.4h-9v-9.2h9v-10.4h8.7v10.4h9v9.2h-9V427.1z"/>
	</g>
	<line class="st2" x1="0" y1="442.6" x2="1068" y2="442.6"/>
	<line class="st2" x1="0" y1="382.1" x2="1068" y2="382.1"/>
	<line class="st2" x1="459.8" y1="126" x2="459.8" y2="638.5"/>
	<line class="st2" x1="662.5" y1="126" x2="662.5" y2="638.5"/>
</g>
<g>
	<path class="st11" d="M956.5,64.2c0.2,0.3,0.2,0.6,0,0.8C956.5,64.7,956.5,64.4,956.5,64.2z"/>
	<path class="st11" d="M989.6,28.6c-0.1,0-0.3,0.1-0.4-0.1c0.1,0,0.3,0,0.4,0C989.7,28.6,989.7,28.6,989.6,28.6
		C989.7,28.6,989.6,28.6,989.6,28.6z"/>
	<path class="st11" d="M956.6,61.7c0,0.1,0,0.3,0,0.4c0,0.1-0.1,0.1-0.1,0S956.5,61.8,956.6,61.7C956.5,61.6,956.6,61.6,956.6,61.7z
		"/>
	<path class="st11" d="M989.6,28.6v-0.1c0.1,0,0.2,0,0.3,0c0,0,0.1,0.1,0,0.1c0,0,0,0-0.1,0C989.8,28.6,989.7,28.6,989.6,28.6z"/>
	<path class="st11" d="M989.9,28.6v-0.1c0.1,0,0.2,0,0.3,0c0,0,0.1,0.1,0,0.1l0,0C990.1,28.7,990,28.6,989.9,28.6z"/>
	<path class="st11" d="M990.2,28.7v-0.1c0.1,0,0.2,0,0.3,0C990.4,28.7,990.3,28.7,990.2,28.7z"/>
	<path class="st11" d="M993.2,28.7c-0.1,0-0.2,0-0.3-0.1c0.1,0,0.2,0,0.3,0S993.3,28.6,993.2,28.7C993.2,28.6,993.2,28.7,993.2,28.7
		z"/>
	<path class="st11" d="M993.2,28.7v-0.1c0.1,0,0.2,0,0.3,0c0,0,0.1,0,0,0.1l0,0C993.4,28.6,993.3,28.7,993.2,28.7z"/>
	<path class="st11" d="M993.5,28.6v-0.1c0.1,0,0.2,0,0.3,0c0,0,0.1,0,0,0.1l0,0C993.7,28.6,993.6,28.6,993.5,28.6z"/>
	<path class="st11" d="M993.8,28.6v-0.1c0.1,0,0.2,0,0.3,0C994,28.7,993.9,28.7,993.8,28.6z"/>
	<path class="st11" d="M956.6,61.7L956.6,61.7c-0.1-0.1-0.1-0.2-0.1-0.3C956.6,61.4,956.6,61.6,956.6,61.7z"/>
	<path class="st11" d="M956.5,62.1L956.5,62.1c0.1,0.1,0.1,0.2,0,0.3C956.5,62.3,956.5,62.2,956.5,62.1z"/>
	<path class="st11" d="M956.5,65.5c0.1,0.1,0.1,0.2,0.1,0.3c0,0.1-0.1,0.1-0.1,0C956.5,65.7,956.5,65.6,956.5,65.5z"/>
	<path class="st11" d="M956.5,65.8L956.5,65.8c0.1,0.1,0.2,0.2,0,0.3C956.5,66,956.5,65.9,956.5,65.8z"/>
	<path class="st11" d="M989.4,99c0-0.2,0.2-0.1,0.3-0.1c0,0,0.1,0,0.1,0.1l0,0C989.5,99,989.4,99,989.4,99z"/>
	<path class="st11" d="M989.6,99L989.6,99c0.1-0.1,0.2-0.1,0.3-0.1c0,0,0.1,0,0.1,0.1l0,0C989.8,99,989.7,99,989.6,99z"/>
	<path class="st11" d="M989.9,99L989.9,99c0.1-0.1,0.2-0.1,0.3,0C990.1,99,990,99,989.9,99z"/>
	<path class="st11" d="M993.1,99c0.1-0.1,0.2-0.1,0.3-0.1V99l0,0C993.3,99,993.2,99,993.1,99z"/>
	<path class="st11" d="M993.3,99L993.3,99c0.1-0.1,0.2-0.1,0.3-0.1c0,0,0.1,0.1,0,0.1l0,0C993.5,99,993.4,99,993.3,99z"/>
	<path class="st11" d="M993.6,99L993.6,99c0.1-0.1,0.2-0.2,0.3,0C993.8,99,993.7,99,993.6,99z"/>
	<g>
		<path class="st11" d="M1026.8,59c-1.3-8.9-5.4-16.3-12.2-22.1c-4.6-4-9.9-6.5-15.9-7.8c-1.4-0.3-2.8-0.3-4.3-0.5
			c-0.1,0-0.3,0-0.4,0c-0.1,0.1-0.2,0.1-0.3,0.1s-0.2,0-0.2,0c-0.1,0-0.2,0-0.2,0c-0.1,0-0.2,0-0.3-0.1c-0.8,0-1.7,0-2.5,0
			c-0.1,0.1-0.2,0.1-0.3,0.1s-0.2,0-0.3,0s-0.2,0-0.3,0s-0.3,0-0.4-0.1c-0.2,0-0.4,0-0.6,0c-0.6,0.1-1.2,0.1-1.8,0.2
			c-5.4,0.7-10.3,2.6-14.8,5.7c-4.3,2.9-7.8,6.5-10.4,10.9c-2.3,3.8-3.9,7.9-4.7,12.3c-0.2,1.1-0.2,2.2-0.4,3.3c0,0.2,0,0.4,0,0.6
			c0.1,0.1,0.1,0.2,0.1,0.3s0,0.2,0,0.3s0,0.2-0.1,0.3c0,0.6,0,1.2,0,1.8c0.1,0.3,0.1,0.6,0,0.8c0,0.2,0,0.4,0,0.6
			c0.1,0.1,0.1,0.2,0.1,0.3c0,0.1,0,0.2-0.1,0.3c0,0.2,0,0.5,0,0.7c0.2,0.7,0.1,1.4,0.2,2c0.6,4,1.8,7.7,3.6,11.3
			c2.2,4.2,5.1,7.8,8.7,10.8c4.3,3.6,9.1,6,14.6,7.3c1.7,0.4,3.5,0.6,5.2,0.8c0.2,0,0.4,0,0.6,0c0.1-0.1,0.2-0.1,0.3-0.1
			s0.2,0,0.2,0c0.1,0,0.2,0,0.3,0.1c1,0,1.9,0,2.9,0c0.1-0.1,0.2-0.1,0.3-0.1s0.2,0,0.2,0c0.1,0,0.2,0,0.3,0.1c0.1,0,0.3,0,0.4,0
			c0.1,0,0.1-0.1,0.2-0.1c2.8,0,5.5-0.6,8.2-1.5c5.5-1.8,10.2-4.8,14.3-8.9c3.8-3.9,6.5-8.3,8.3-13.4c1-2.9,1.6-5.8,1.7-8.9
			C1027,63.8,1027.1,61.4,1026.8,59z M1013.9,87.7c-0.4,0.4-0.7,0.4-1.2,0.1c-3.6-1.8-7.2-3.7-10.8-5.4c-1.5-0.7-2.1-1.8-2.2-3.5
			c-0.1-2,0.2-3.7,1.5-5.3c1.1-1.4,1.8-3.2,2.4-4.9c0.1-0.3,0.3-0.6,0.6-0.8c1.4-0.9,2.2-2.2,2.2-3.9c0-1.6,0-3.1,0-4.7
			c0-1-0.3-1.9-0.9-2.7c-0.2-0.2-0.2-0.5-0.2-0.8c0-1.9-0.1-3.7,0-5.6c0.3-5.1-2.6-9.4-8-10.8c-4.6-1.2-9.1-1.2-13.5,0.7
			c-4,1.8-6,5-6.1,9.4c0,0.9,0,1.7,0,2.6l0,0c0,0.7,0,1.3,0,2c0,1.1,0.1,2.2-0.7,3.2c-0.4,0.5-0.5,1.3-0.5,2c0,1.5,0,2.9,0,4.4
			c0,1.4,0.5,2.5,1.4,3.4c0.2,0.2,0.3,0.4,0.4,0.6c0.7,2.7,2,5.2,3.6,7.4c0.2,0.3,0.3,0.5,0.3,0.9c0,1,0,1.9,0,2.9
			c0,1.4-0.6,2.3-1.8,3c-3.2,1.7-6.5,3.5-9.7,5.3c-1.2,0.6-1.2,0.7-2.1-0.3c-7.1-7.1-10.4-15.7-9.7-25.7c1-14.7,12-26.9,26.5-29.7
			c17.4-3.3,34.4,7.9,38,25.2C1026.1,68.8,1022.6,79.1,1013.9,87.7z"/>
	</g>
</g>
<line class="st13" x1="928" y1="53" x2="753" y2="53"/>
<line class="st13" x1="928" y1="79" x2="827" y2="79"/>
<path class="st14" d="M64.2,74.2l-3.1,3.1c-0.3,0.3-0.8,0.3-1.1,0L42.4,59.7c-0.3-0.3-0.3-0.8,0-1.1l17.4-17.4
	c0.3-0.3,0.8-0.3,1.1,0l2.5,2.5c0.3,0.3,0.3,0.8,0,1.1L49.6,58.5c-0.3,0.3-0.3,0.8,0,1.1L64.2,74.2"/>
<line class="st13" x1="294" y1="60" x2="148" y2="60"/>
<rect x="-2" class="st15" width="1069" height="640"/>
</svg>
