<?xml version="1.0" encoding="utf-8"?>
<!-- Generator: Adobe Illustrator 22.1.0, SVG Export Plug-In . SVG Version: 6.00 Build 0)  -->
<svg version="1.1" id="Layer_1" xmlns="http://www.w3.org/2000/svg" xmlns:xlink="http://www.w3.org/1999/xlink" x="0px" y="0px"
	 viewBox="0 0 313 313" style="enable-background:new 0 0 313 313;" xml:space="preserve">
<style type="text/css">
	.st0{fill:#677EDD;}
	.st1{fill:#FFFFFF;}
</style>
<g>
	<path class="st0" d="M157.2,2.9C72.3,2.9,3.4,71.7,3.4,156.7c0,84.9,68.9,153.8,153.8,153.8S311,241.6,311,156.7
		C311,71.7,242.2,2.9,157.2,2.9z"/>
	<path class="st1" d="M261.5,156.2c-30.2-18.3-60.3-36.5-90.5-54.7c-1-0.6-1.9-1.7-3.3-1.2c0,1.6,0,3.1,0,4.6
		c-0.1,18-0.1,35.9-0.2,53.9c0.1,1.3,0.2,2.7,0.2,3.9c0,16.6,0,33.3,0,49.9c0,1.2-0.4,2.4,0.3,3.5c1.2,0.1,1.9-0.7,2.8-1.2
		c17.4-10.5,34.9-21.1,52.3-31.6c13.7-8.3,27.4-16.4,41-24.6C264.2,157,262.5,156.9,261.5,156.2z"/>
	<path class="st1" d="M164.6,156.4c-30.5-18.5-61.1-36.9-91.6-55.3c-0.7-0.4-1.4-1.2-2.6-0.7c0,38.8,0,77.5,0,116.3
		c0.6-0.3,1.2-0.5,1.8-0.9c16.1-9.7,32.2-19.5,48.3-29.1c15.4-9.2,30.9-18.5,46.3-27.8C167,157.2,165.6,157,164.6,156.4z"/>
</g>
</svg>
