<?xml version="1.0" encoding="utf-8"?>
<!-- Generator: Adobe Illustrator 22.1.0, SVG Export Plug-In . SVG Version: 6.00 Build 0)  -->
<svg version="1.1" id="Layer_1" xmlns="http://www.w3.org/2000/svg" xmlns:xlink="http://www.w3.org/1999/xlink" x="0px" y="0px"
	 viewBox="0 0 313 313" style="enable-background:new 0 0 313 313;" xml:space="preserve">
<style type="text/css">
	.st0{fill:#677EDD;}
</style>
<g>
	<path class="st0" d="M307.5,50.8c-0.8,0.3-0.6,0.9-0.6,1.4c-0.6,12.7-1.2,25.4-1.8,38c-0.2,4.3-1.3,8.1-5,10.7
		c-3.6,2.4-7.4,2.6-10.5-0.4c-4.7-4.3-9.3-8.8-13.7-13.4c-1.6-1.7-2.3-1.3-3.8,0.1c-36.2,36.3-72.3,72.4-108.5,108.6
		c-2.9,2.9-5.8,5.8-8.8,8.8c-7.5,7.4-16.3,7.4-23.9-0.2c-14.9-14.9-29.8-29.7-44.6-44.7c-1.6-1.6-2.4-1.7-4.1,0
		c-15.5,15.6-31.1,31-46.5,46.6c-4.7,4.8-10.1,7.5-16.7,5.3c-6.9-2.3-11.6-7.3-13.4-14.5c-1.1-4.3,0.1-8.4,2.8-11.9
		c0.8-1.2,1.9-2.3,3-3.3c20-20.1,40.3-40.3,60.4-60.5c8.3-8.3,16.6-8.3,24.9,0c14.8,14.8,29.6,29.5,44.3,44.3c1.6,1.6,2.3,1.7,4,0
		c34.1-34.2,68.2-68.4,102.5-102.6c1.8-1.8,1.8-2.8-0.1-4.5c-4-3.8-7.9-7.8-11.7-11.7c-2.8-2.9-4.5-6.2-2.8-10.4
		c1.7-4.1,4.8-5.8,9-5.9c18-0.8,36.2-1.8,54.2-2.5c6.3-0.3,9.7,2.1,10.9,7.2c0.6,0.9-0.2,2.2,0.5,3.1c0,1.3,0,2.8,0,4.1
		c-0.4,0.3-0.3,0.8-0.3,1.3c0,0.3,0,0.8,0,1.1c0,0.3,0,0.8,0,1.1s0,0.8,0,1.1c0,0.5-0.1,0.9,0.3,1.3C307.5,49.2,307.5,50,307.5,50.8
		z"/>
	<path class="st0" d="M307.5,38.4c-0.9-0.9-0.7-2-0.5-3.1c0.2,0.1,0.3,0.1,0.5,0.1C307.5,36.4,307.5,37.4,307.5,38.4z"/>
	<path class="st0" d="M307,43.7c-0.1-0.5-0.1-1,0.5-1.2c0,0.4,0,0.8,0,1.2C307.3,43.9,307.2,43.9,307,43.7z"/>
	<path class="st0" d="M307,43.7c0.2,0,0.3,0,0.5,0c0,0.4,0,0.8,0,1.2c-0.2,0.3-0.3,0.3-0.5,0C307,44.5,307,44.1,307,43.7z"/>
	<path class="st0" d="M307,44.9c0.2,0,0.3,0,0.5,0c0,0.4,0,0.8,0,1.2c-0.2,0.3-0.3,0.3-0.5,0C307,45.7,307,45.2,307,44.9z"/>
	<path class="st0" d="M307,46.1c0.2,0,0.3,0,0.5,0c0,0.4,0,0.8,0,1.2c-0.2,0.3-0.3,0.3-0.5,0C307,46.8,307,46.5,307,46.1z"/>
	<path class="st0" d="M307,47.2c0.2,0,0.3,0,0.5,0c0,0.4,0,0.8,0,1.2C306.7,48.2,306.9,47.7,307,47.2z"/>
	<path class="st0" d="M277.6,197.5c0,26.5,0,53,0,79.4c0,6.3-1.6,7.9-8,7.9c-11.1,0-22.2,0-33.3,0c-5.6,0-7.4-1.8-7.4-7.4
		c0-39.6,0-79.1-0.1-118.7c0-1.9,0.7-3.3,2-4.6c13.8-13.7,27.4-27.4,41.2-41.1c0.7-0.7,1.3-2.3,2.4-1.5c1.3,0.9,2.9,1.8,3.2,3.6
		c0.1,0.8,0,1.6,0,2.3C277.6,144.2,277.6,170.9,277.6,197.5z"/>
	<path class="st0" d="M209.9,175.9c0,0.9,0,1.9,0,2.8c0,32.7,0,65.3,0,98c0,6.6-1.7,8.2-8.1,8.2c-11.1,0-22.2,0-33.3,0
		c-5.6,0-7.4-1.8-7.4-7.4c0-17.4,0-34.8,0-52.2c0-1.6,0.3-2.7,1.8-3.7c1.9-1.3,3.7-3,5.3-4.7c13.1-13,26.1-26.1,39.3-39.3
		c0.7-0.7,1.2-1.6,1.8-2.3C209.3,175.6,209.6,175.7,209.9,175.9z"/>
	<path class="st0" d="M93.6,193.3c1.2,0.2,1.6,1.2,2.3,1.8c7.4,7.4,15,14.9,22.3,22.3c6.1,6.2,13.2,10.1,22,10.7
		c1.7,0.1,2.1,0.8,2.1,2.3c-0.1,16,0,32.1-0.1,48.1c0,4.2-2,6.3-6.1,6.3c-12.2,0.1-24.4,0.1-36.6,0c-4,0-6-2.2-6.1-6.3
		c-0.1-4,0-8.1,0-12.1c0-23.4,0-46.9,0-70.3C93.3,195.2,93,194.3,93.6,193.3z"/>
	<path class="st0" d="M74.4,193.2c0,1.8,0,2.7,0,3.7c0,26.6,0,53.3,0,80c0,6.4-1.6,8-7.9,8c-11.1,0-22.2,0-33.3,0
		c-5.8,0-7.4-1.7-7.4-7.6c0-14.7,0-29.3-0.1-44c0-2,0.3-3.1,2.7-3.4c7.9-0.9,14.4-4.9,20-10.5C56.7,210.9,65.2,202.4,74.4,193.2z"/>
</g>
</svg>
