<?xml version="1.0" encoding="utf-8"?>
<!-- Generator: Adobe Illustrator 22.1.0, SVG Export Plug-In . SVG Version: 6.00 Build 0)  -->
<svg version="1.1" id="Layer_1" xmlns="http://www.w3.org/2000/svg" xmlns:xlink="http://www.w3.org/1999/xlink" x="0px" y="0px"
	 viewBox="0 0 729 90" style="enable-background:new 0 0 729 90;" xml:space="preserve">
<style type="text/css">
	.st0{fill:#FFFFFF;}
</style>
<g>
	<g>
		<g>
			<g>
				<path class="st0" d="M8.2,85.3V4.9h15.7v80.5H8.2z"/>
				<path class="st0" d="M89.1,85.3L57.2,35.9v49.4H41.5V4.9h14l31.9,49.3V4.9h15.7v80.5H89.1z"/>
				<path class="st0" d="M144,86c-12.2,0-21.5-2.6-29.4-10.6l10.2-10.2c5.1,5.1,12,6.8,19.4,6.8c9.3,0,14.2-3.5,14.2-9.9
					c0-2.8-0.8-5.2-2.5-6.8c-1.6-1.5-3.4-2.3-7.1-2.8l-9.7-1.4c-6.9-1-12-3.2-15.6-6.7c-3.8-3.8-5.8-9-5.8-15.8
					c0-14.4,10.6-24.4,28-24.4c11.1,0,19.1,2.7,26,9.4l-9.9,9.8c-5.1-4.9-11.2-5.5-16.5-5.5c-8.4,0-12.4,4.6-12.4,10.2
					c0,2,0.7,4.2,2.4,5.8c1.6,1.5,4.2,2.7,7.5,3.2l9.5,1.4c7.3,1,12,3.1,15.4,6.2c4.3,4.1,6.2,9.9,6.2,17.1
					C173.8,77.2,160.8,86,144,86z"/>
				<path class="st0" d="M217.1,18.9v66.4h-15.7V18.9h-21v-14h57.7v14H217.1z"/>
				<path class="st0" d="M292.5,85.3l-15.7-32.1h-11.3v32.1h-15.7V4.9h31.5c16.4,0,26.1,11.2,26.1,24.6c0,11.3-6.9,18.3-14.7,21.1
					l18,34.7H292.5z M280.3,18.9h-14.8v21.2h14.8c6.9,0,11.4-4.4,11.4-10.6S287.2,18.9,280.3,18.9z"/>
				<path class="st0" d="M350.9,86c-16.5,0-29.6-11.2-29.6-28.3V4.9H337v52.3c0,9.3,5.4,14.8,13.9,14.8c8.5,0,14-5.5,14-14.8V4.9
					h15.6v52.9C380.5,74.8,367.4,86,350.9,86z"/>
				<path class="st0" d="M424.9,86c-8.8,0-16-3.2-21.7-8.8c-8.1-8.1-7.9-18.2-7.9-32.1s-0.2-24,7.9-32.1c5.7-5.7,12.9-8.8,21.7-8.8
					c15,0,26.8,8.6,29.6,25.4h-15.9c-1.6-6.4-5.7-11.4-13.6-11.4c-4.3,0-7.8,1.6-10.1,4.2c-3.1,3.4-4,7.2-4,22.7
					c0,15.5,0.9,19.3,4,22.7c2.3,2.6,5.8,4.2,10.1,4.2c7.9,0,12-5,13.6-11.4h15.9C451.7,77.4,439.8,86,424.9,86z"/>
				<path class="st0" d="M496.2,18.9v66.4h-15.7V18.9h-21v-14h57.7v14H496.2z"/>
				<path class="st0" d="M557.2,86c-16.5,0-29.6-11.2-29.6-28.3V4.9h15.7v52.3c0,9.3,5.4,14.8,13.9,14.8s14-5.5,14-14.8V4.9h15.6
					v52.9C586.8,74.8,573.7,86,557.2,86z"/>
				<path class="st0" d="M645.9,85.3l-15.7-32.1h-11.3v32.1h-15.7V4.9h31.5c16.4,0,26.1,11.2,26.1,24.6c0,11.3-6.9,18.3-14.7,21.1
					l18,34.7H645.9z M633.7,18.9h-14.8v21.2h14.8c6.9,0,11.4-4.4,11.4-10.6S640.6,18.9,633.7,18.9z"/>
				<path class="st0" d="M676,85.3V4.9h53v14h-37.3v18.9h31.8v14h-31.8v19.6H729v14H676z"/>
			</g>
		</g>
	</g>
</g>
</svg>
