<?xml version="1.0" encoding="utf-8"?>
<!-- Generator: Adobe Illustrator 22.1.0, SVG Export Plug-In . SVG Version: 6.00 Build 0)  -->
<svg version="1.1" id="Layer_1" xmlns="http://www.w3.org/2000/svg" xmlns:xlink="http://www.w3.org/1999/xlink" x="0px" y="0px"
	 viewBox="0 0 398 231.2" style="enable-background:new 0 0 398 231.2;" xml:space="preserve">
<style type="text/css">
	.st0{fill:#FFFFFF;}
	.st1{fill:#E6E6E6;}
	.st2{fill:#008BD0;}
	.st3{fill:#999999;}
	.st4{fill:#666666;}
</style>
<rect y="0.6" class="st0" width="398" height="230"/>
<rect x="0.5" y="21.7" class="st1" width="397.5" height="58.9"/>
<rect x="0.4" y="0.6" class="st2" width="397.3" height="20.9"/>
<g>
	<g>
		<path class="st0" d="M27.1,39.1c0,0.1,0,0.1,0,0.2C27.1,39.3,27.1,39.2,27.1,39.1z"/>
	</g>
	<g>
		<path class="st0" d="M20.1,31.6C20.2,31.6,20.2,31.7,20.1,31.6C20.2,31.6,20.1,31.6,20.1,31.6C20.1,31.6,20.1,31.6,20.1,31.6
			C20.1,31.6,20.1,31.6,20.1,31.6z"/>
	</g>
	<g>
		<path class="st0" d="M27.1,38.6C27.1,38.6,27.1,38.7,27.1,38.6C27.1,38.7,27.1,38.7,27.1,38.6C27.1,38.7,27.1,38.6,27.1,38.6
			C27.1,38.6,27.1,38.6,27.1,38.6z"/>
	</g>
	<g>
		<path class="st0" d="M20.1,31.6C20.1,31.6,20.1,31.6,20.1,31.6C20.1,31.6,20.1,31.6,20.1,31.6C20.1,31.6,20,31.6,20.1,31.6
			C20.1,31.6,20.1,31.6,20.1,31.6C20.1,31.6,20.1,31.6,20.1,31.6z"/>
	</g>
	<g>
		<path class="st0" d="M20.1,31.6C20.1,31.6,20.1,31.6,20.1,31.6C20,31.6,20,31.6,20.1,31.6C20,31.6,20,31.6,20.1,31.6
			C20,31.6,20,31.6,20.1,31.6C20,31.6,20,31.6,20.1,31.6z"/>
	</g>
	<g>
		<path class="st0" d="M20,31.6C20,31.6,20,31.6,20,31.6C20,31.6,20,31.6,20,31.6C20,31.6,20,31.7,20,31.6z"/>
	</g>
	<g>
		<path class="st0" d="M19.4,31.6C19.4,31.7,19.4,31.6,19.4,31.6C19.4,31.6,19.4,31.6,19.4,31.6C19.4,31.6,19.4,31.6,19.4,31.6
			C19.4,31.6,19.4,31.6,19.4,31.6z"/>
	</g>
	<g>
		<path class="st0" d="M19.4,31.6C19.4,31.6,19.4,31.6,19.4,31.6C19.3,31.6,19.3,31.6,19.4,31.6C19.3,31.6,19.3,31.6,19.4,31.6
			C19.3,31.6,19.3,31.6,19.4,31.6C19.3,31.6,19.3,31.6,19.4,31.6z"/>
	</g>
	<g>
		<path class="st0" d="M19.3,31.6C19.3,31.6,19.3,31.6,19.3,31.6C19.3,31.6,19.3,31.6,19.3,31.6C19.2,31.6,19.2,31.6,19.3,31.6
			C19.2,31.6,19.2,31.6,19.3,31.6C19.3,31.6,19.3,31.6,19.3,31.6z"/>
	</g>
	<g>
		<path class="st0" d="M19.2,31.6C19.2,31.6,19.2,31.6,19.2,31.6C19.2,31.6,19.2,31.6,19.2,31.6C19.2,31.7,19.2,31.7,19.2,31.6z"/>
	</g>
	<g>
		<path class="st0" d="M27.1,38.6C27.1,38.6,27.1,38.6,27.1,38.6C27.1,38.6,27.1,38.6,27.1,38.6C27.1,38.6,27.1,38.6,27.1,38.6z"/>
	</g>
	<g>
		<path class="st0" d="M27.1,38.7C27.1,38.7,27.1,38.7,27.1,38.7C27.1,38.7,27.1,38.8,27.1,38.7C27.1,38.7,27.1,38.7,27.1,38.7z"/>
	</g>
	<g>
		<path class="st0" d="M27.1,39.4C27.1,39.4,27.1,39.5,27.1,39.4C27.1,39.5,27.1,39.5,27.1,39.4C27.1,39.5,27.1,39.5,27.1,39.4z"/>
	</g>
	<g>
		<path class="st0" d="M27.1,39.5C27.1,39.5,27.1,39.5,27.1,39.5C27.1,39.5,27.1,39.5,27.1,39.5C27.1,39.5,27.1,39.5,27.1,39.5z"/>
	</g>
	<g>
		<path class="st0" d="M20.2,46.5C20.2,46.4,20.1,46.5,20.2,46.5C20.1,46.5,20.1,46.5,20.2,46.5C20.1,46.5,20.1,46.5,20.2,46.5
			C20.1,46.5,20.2,46.5,20.2,46.5z"/>
	</g>
	<g>
		<path class="st0" d="M20.1,46.5C20.1,46.5,20.1,46.5,20.1,46.5C20.1,46.5,20.1,46.5,20.1,46.5C20.1,46.5,20,46.5,20.1,46.5
			C20.1,46.5,20.1,46.5,20.1,46.5C20.1,46.5,20.1,46.5,20.1,46.5z"/>
	</g>
	<g>
		<path class="st0" d="M20.1,46.5C20.1,46.5,20.1,46.5,20.1,46.5C20,46.5,20,46.5,20.1,46.5C20,46.5,20,46.5,20.1,46.5z"/>
	</g>
	<g>
		<path class="st0" d="M19.4,46.5C19.4,46.5,19.4,46.5,19.4,46.5C19.3,46.5,19.3,46.5,19.4,46.5C19.3,46.5,19.3,46.5,19.4,46.5
			C19.4,46.5,19.4,46.5,19.4,46.5z"/>
	</g>
	<g>
		<path class="st0" d="M19.3,46.5C19.3,46.5,19.3,46.5,19.3,46.5C19.3,46.5,19.3,46.5,19.3,46.5C19.3,46.5,19.3,46.5,19.3,46.5
			C19.3,46.5,19.3,46.5,19.3,46.5C19.3,46.5,19.3,46.5,19.3,46.5z"/>
	</g>
	<g>
		<path class="st0" d="M19.3,46.5C19.3,46.5,19.3,46.5,19.3,46.5C19.3,46.5,19.2,46.4,19.3,46.5C19.2,46.5,19.3,46.5,19.3,46.5z"/>
	</g>
	<g>
		<g>
			<path class="st0" d="M12.2,39.6c0,0.6,0.2,1.3,0.4,1.9c0.4,1.1,0.9,2,1.7,2.8c0.9,0.9,1.9,1.5,3,1.9c0.6,0.2,1.1,0.3,1.7,0.3
				c0,0,0,0,0,0c0,0,0.1,0,0.1,0c0,0,0,0,0.1,0c0,0,0,0,0.1,0c0,0,0,0,0.1,0c0.2,0,0.4,0,0.6,0c0,0,0,0,0.1,0c0,0,0,0,0.1,0
				c0,0,0,0,0.1,0c0,0,0.1,0,0.1,0c0.4,0,0.7-0.1,1.1-0.2c1.1-0.3,2.2-0.8,3.1-1.5c0.8-0.6,1.4-1.4,1.8-2.3c0.4-0.7,0.7-1.5,0.8-2.4
				c0-0.1,0-0.3,0-0.4c0,0,0-0.1,0-0.1c0,0,0,0,0-0.1c0,0,0,0,0-0.1c0,0,0-0.1,0-0.1c0-0.1,0-0.1,0-0.2c0-0.1,0-0.3,0-0.4
				c0,0,0,0,0-0.1c0,0,0,0,0-0.1c0,0,0,0,0-0.1c0,0,0-0.1,0-0.1c0-0.2,0-0.5-0.1-0.7c-0.2-0.9-0.5-1.8-1-2.6
				c-0.6-0.9-1.3-1.7-2.2-2.3c-0.9-0.6-2-1-3.1-1.2c-0.1,0-0.3,0-0.4,0c0,0-0.1,0-0.1,0c0,0-0.1,0-0.1,0c0,0,0,0-0.1,0
				c0,0,0,0-0.1,0c0,0,0,0-0.1,0c-0.2,0-0.3,0-0.5,0c0,0,0,0-0.1,0c0,0,0,0-0.1,0c0,0,0,0-0.1,0c0,0,0,0-0.1,0c0,0-0.1,0-0.1,0
				c-0.3,0-0.6,0-0.9,0.1c-1.3,0.3-2.4,0.8-3.4,1.6c-1.4,1.2-2.3,2.8-2.6,4.7C12.2,38.5,12.2,39.1,12.2,39.6z M13,37.6
				c0.8-3.7,4.3-6,8-5.3c3.1,0.6,5.4,3.2,5.6,6.3c0.1,2.1-0.6,3.9-2,5.4c-0.2,0.2-0.2,0.2-0.5,0.1c-0.7-0.4-1.4-0.7-2-1.1
				c-0.3-0.1-0.4-0.3-0.4-0.6c0-0.2,0-0.4,0-0.6c0-0.1,0-0.1,0.1-0.2c0.3-0.5,0.6-1,0.8-1.6c0-0.1,0-0.1,0.1-0.1
				c0.2-0.2,0.3-0.4,0.3-0.7c0-0.3,0-0.6,0-0.9c0-0.1,0-0.3-0.1-0.4c-0.2-0.2-0.1-0.4-0.1-0.7c0-0.1,0-0.3,0-0.4c0,0,0,0,0,0
				c0-0.2,0-0.4,0-0.6c0-0.9-0.4-1.6-1.3-2c-0.9-0.4-1.9-0.4-2.9-0.2c-1.1,0.3-1.7,1.2-1.7,2.3c0,0.4,0,0.8,0,1.2
				c0,0.1,0,0.1-0.1,0.2c-0.1,0.2-0.2,0.4-0.2,0.6c0,0.3,0,0.7,0,1c0,0.4,0.2,0.6,0.5,0.8c0.1,0,0.1,0.1,0.1,0.2
				c0.1,0.4,0.3,0.7,0.5,1c0.3,0.3,0.3,0.7,0.3,1.1c0,0.4-0.1,0.6-0.5,0.7c-0.8,0.4-1.5,0.8-2.3,1.1c-0.1,0.1-0.2,0.1-0.3,0
				C13.2,42.3,12.4,40.1,13,37.6z"/>
		</g>
	</g>
</g>
<g>
	<path class="st0" d="M35.7,36.4h49.8c0.8,0,1.5-0.5,1.5-1.1s-0.7-1.1-1.5-1.1H35.7c-0.8,0-1.5,0.5-1.5,1.1S34.9,36.4,35.7,36.4z"/>
</g>
<g>
	<path class="st0" d="M35.2,43.4H70c0.6,0,1-0.5,1-1.1s-0.5-1.1-1-1.1H35.2c-0.6,0-1,0.5-1,1.1S34.7,43.4,35.2,43.4z"/>
</g>
<g>
	<path class="st0" d="M153.7,36.4h17.7c0.3,0,0.5-0.5,0.5-1.1s-0.2-1.1-0.5-1.1h-17.7c-0.3,0-0.5,0.5-0.5,1.1S153.5,36.4,153.7,36.4
		z"/>
</g>
<g>
	<path class="st0" d="M153.9,43.4h21.5c0.4,0,0.6-0.5,0.6-1.1s-0.3-1.1-0.6-1.1h-21.5c-0.4,0-0.6,0.5-0.6,1.1S153.5,43.4,153.9,43.4
		z"/>
</g>
<g>
	<path class="st0" d="M248.5,43.4h42.3c0.7,0,1.3-0.5,1.3-1.1s-0.6-1.1-1.3-1.1h-42.3c-0.7,0-1.3,0.5-1.3,1.1S247.8,43.4,248.5,43.4
		z"/>
</g>
<g>
	<path class="st0" d="M256,37.4h27.2c0.4,0,0.8-0.5,0.8-1.1s-0.4-1.1-0.8-1.1H256c-0.4,0-0.8,0.5-0.8,1.1S255.6,37.4,256,37.4z"/>
</g>
<g>
	<path class="st0" d="M351.9,43.4h21.5c0.4,0,0.6-0.5,0.6-1.1s-0.3-1.1-0.6-1.1h-21.5c-0.4,0-0.6,0.5-0.6,1.1S351.5,43.4,351.9,43.4
		z"/>
</g>
<g>
	<path class="st0" d="M355.7,37.4h13.8c0.2,0,0.4-0.5,0.4-1.1c0-0.6-0.2-1.1-0.4-1.1h-13.8c-0.2,0-0.4,0.5-0.4,1.1
		C355.3,36.9,355.5,37.4,355.7,37.4z"/>
</g>
<g>
	<path class="st0" d="M351.9,66.4h21.5c0.4,0,0.6-0.5,0.6-1.1c0-0.6-0.3-1.1-0.6-1.1h-21.5c-0.4,0-0.6,0.5-0.6,1.1
		C351.2,65.9,351.5,66.4,351.9,66.4z"/>
</g>
<g>
	<path class="st0" d="M355.7,60.4h13.8c0.2,0,0.4-0.5,0.4-1.1c0-0.6-0.2-1.1-0.4-1.1h-13.8c-0.2,0-0.4,0.5-0.4,1.1
		C355.3,59.9,355.5,60.4,355.7,60.4z"/>
</g>
<g>
	<path class="st0" d="M248.5,66.4h42.3c0.7,0,1.3-0.5,1.3-1.1c0-0.6-0.6-1.1-1.3-1.1h-42.3c-0.7,0-1.3,0.5-1.3,1.1
		C247.2,65.9,247.8,66.4,248.5,66.4z"/>
</g>
<g>
	<path class="st0" d="M256,60.4h27.2c0.4,0,0.8-0.5,0.8-1.1s-0.4-1.1-0.8-1.1H256c-0.4,0-0.8,0.5-0.8,1.1S255.6,60.4,256,60.4z"/>
</g>
<g>
	<path class="st0" d="M153.7,59.4h17.7c0.3,0,0.5-0.5,0.5-1.1s-0.2-1.1-0.5-1.1h-17.7c-0.3,0-0.5,0.5-0.5,1.1S153.5,59.4,153.7,59.4
		z"/>
</g>
<g>
	<path class="st0" d="M153.9,66.4h21.5c0.4,0,0.6-0.5,0.6-1.1c0-0.6-0.3-1.1-0.6-1.1h-21.5c-0.4,0-0.6,0.5-0.6,1.1
		C153.2,65.9,153.5,66.4,153.9,66.4z"/>
</g>
<g>
	<g>
		<path class="st0" d="M27.1,63.1c0,0.1,0,0.1,0,0.2C27.1,63.3,27.1,63.2,27.1,63.1z"/>
	</g>
	<g>
		<path class="st0" d="M20.1,55.6C20.2,55.6,20.2,55.7,20.1,55.6C20.2,55.6,20.1,55.6,20.1,55.6C20.1,55.6,20.1,55.6,20.1,55.6
			C20.1,55.6,20.1,55.6,20.1,55.6z"/>
	</g>
	<g>
		<path class="st0" d="M27.1,62.6C27.1,62.6,27.1,62.7,27.1,62.6C27.1,62.7,27.1,62.7,27.1,62.6C27.1,62.7,27.1,62.6,27.1,62.6
			C27.1,62.6,27.1,62.6,27.1,62.6z"/>
	</g>
	<g>
		<path class="st0" d="M20.1,55.6C20.1,55.6,20.1,55.6,20.1,55.6C20.1,55.6,20.1,55.6,20.1,55.6C20.1,55.6,20,55.6,20.1,55.6
			C20.1,55.6,20.1,55.6,20.1,55.6C20.1,55.6,20.1,55.6,20.1,55.6z"/>
	</g>
	<g>
		<path class="st0" d="M20.1,55.6C20.1,55.6,20.1,55.6,20.1,55.6C20,55.6,20,55.6,20.1,55.6C20,55.6,20,55.6,20.1,55.6
			C20,55.6,20,55.6,20.1,55.6C20,55.6,20,55.6,20.1,55.6z"/>
	</g>
	<g>
		<path class="st0" d="M20,55.6C20,55.6,20,55.6,20,55.6C20,55.6,20,55.6,20,55.6C20,55.6,20,55.7,20,55.6z"/>
	</g>
	<g>
		<path class="st0" d="M19.4,55.6C19.4,55.7,19.4,55.6,19.4,55.6C19.4,55.6,19.4,55.6,19.4,55.6C19.4,55.6,19.4,55.6,19.4,55.6
			C19.4,55.6,19.4,55.6,19.4,55.6z"/>
	</g>
	<g>
		<path class="st0" d="M19.4,55.6C19.4,55.6,19.4,55.6,19.4,55.6C19.3,55.6,19.3,55.6,19.4,55.6C19.3,55.6,19.3,55.6,19.4,55.6
			C19.3,55.6,19.3,55.6,19.4,55.6C19.3,55.6,19.3,55.6,19.4,55.6z"/>
	</g>
	<g>
		<path class="st0" d="M19.3,55.6C19.3,55.6,19.3,55.6,19.3,55.6C19.3,55.6,19.3,55.6,19.3,55.6C19.2,55.6,19.2,55.6,19.3,55.6
			C19.2,55.6,19.2,55.6,19.3,55.6C19.3,55.6,19.3,55.6,19.3,55.6z"/>
	</g>
	<g>
		<path class="st0" d="M19.2,55.6C19.2,55.6,19.2,55.6,19.2,55.6C19.2,55.6,19.2,55.6,19.2,55.6C19.2,55.7,19.2,55.7,19.2,55.6z"/>
	</g>
	<g>
		<path class="st0" d="M27.1,62.6C27.1,62.6,27.1,62.6,27.1,62.6C27.1,62.6,27.1,62.6,27.1,62.6C27.1,62.6,27.1,62.6,27.1,62.6z"/>
	</g>
	<g>
		<path class="st0" d="M27.1,62.7C27.1,62.7,27.1,62.7,27.1,62.7C27.1,62.7,27.1,62.8,27.1,62.7C27.1,62.7,27.1,62.7,27.1,62.7z"/>
	</g>
	<g>
		<path class="st0" d="M27.1,63.4C27.1,63.4,27.1,63.5,27.1,63.4C27.1,63.5,27.1,63.5,27.1,63.4C27.1,63.5,27.1,63.5,27.1,63.4z"/>
	</g>
	<g>
		<path class="st0" d="M27.1,63.5C27.1,63.5,27.1,63.5,27.1,63.5C27.1,63.5,27.1,63.5,27.1,63.5C27.1,63.5,27.1,63.5,27.1,63.5z"/>
	</g>
	<g>
		<path class="st0" d="M20.2,70.5C20.2,70.4,20.1,70.5,20.2,70.5C20.1,70.5,20.1,70.5,20.2,70.5C20.1,70.5,20.1,70.5,20.2,70.5
			C20.1,70.5,20.2,70.5,20.2,70.5z"/>
	</g>
	<g>
		<path class="st0" d="M20.1,70.5C20.1,70.5,20.1,70.5,20.1,70.5C20.1,70.5,20.1,70.5,20.1,70.5C20.1,70.5,20,70.5,20.1,70.5
			C20.1,70.5,20.1,70.5,20.1,70.5C20.1,70.5,20.1,70.5,20.1,70.5z"/>
	</g>
	<g>
		<path class="st0" d="M20.1,70.5C20.1,70.5,20.1,70.5,20.1,70.5C20,70.5,20,70.5,20.1,70.5C20,70.5,20,70.5,20.1,70.5z"/>
	</g>
	<g>
		<path class="st0" d="M19.4,70.5C19.4,70.5,19.4,70.5,19.4,70.5C19.3,70.5,19.3,70.5,19.4,70.5C19.3,70.5,19.3,70.5,19.4,70.5
			C19.4,70.5,19.4,70.5,19.4,70.5z"/>
	</g>
	<g>
		<path class="st0" d="M19.3,70.5C19.3,70.5,19.3,70.5,19.3,70.5C19.3,70.5,19.3,70.5,19.3,70.5C19.3,70.5,19.3,70.5,19.3,70.5
			C19.3,70.5,19.3,70.5,19.3,70.5C19.3,70.5,19.3,70.5,19.3,70.5z"/>
	</g>
	<g>
		<path class="st0" d="M19.3,70.5C19.3,70.5,19.3,70.5,19.3,70.5C19.3,70.5,19.2,70.4,19.3,70.5C19.2,70.5,19.3,70.5,19.3,70.5z"/>
	</g>
	<g>
		<g>
			<path class="st0" d="M12.2,63.6c0,0.6,0.2,1.3,0.4,1.9c0.4,1.1,0.9,2,1.7,2.8c0.9,0.9,1.9,1.5,3,1.9c0.6,0.2,1.1,0.3,1.7,0.3
				c0,0,0,0,0,0c0,0,0.1,0,0.1,0c0,0,0,0,0.1,0c0,0,0,0,0.1,0c0,0,0,0,0.1,0c0.2,0,0.4,0,0.6,0c0,0,0,0,0.1,0c0,0,0,0,0.1,0
				c0,0,0,0,0.1,0c0,0,0.1,0,0.1,0c0.4,0,0.7-0.1,1.1-0.2c1.1-0.3,2.2-0.8,3.1-1.5c0.8-0.6,1.4-1.4,1.8-2.3c0.4-0.7,0.7-1.5,0.8-2.4
				c0-0.1,0-0.3,0-0.4c0,0,0-0.1,0-0.1c0,0,0,0,0-0.1c0,0,0,0,0-0.1c0,0,0-0.1,0-0.1c0-0.1,0-0.1,0-0.2c0-0.1,0-0.3,0-0.4
				c0,0,0,0,0-0.1c0,0,0,0,0-0.1c0,0,0,0,0-0.1c0,0,0-0.1,0-0.1c0-0.2,0-0.5-0.1-0.7c-0.2-0.9-0.5-1.8-1-2.6
				c-0.6-0.9-1.3-1.7-2.2-2.3c-0.9-0.6-2-1-3.1-1.2c-0.1,0-0.3,0-0.4,0c0,0-0.1,0-0.1,0c0,0-0.1,0-0.1,0c0,0,0,0-0.1,0
				c0,0,0,0-0.1,0c0,0,0,0-0.1,0c-0.2,0-0.3,0-0.5,0c0,0,0,0-0.1,0c0,0,0,0-0.1,0c0,0,0,0-0.1,0c0,0,0,0-0.1,0c0,0-0.1,0-0.1,0
				c-0.3,0-0.6,0-0.9,0.1c-1.3,0.3-2.4,0.8-3.4,1.6c-1.4,1.2-2.3,2.8-2.6,4.7C12.2,62.5,12.2,63.1,12.2,63.6z M13,61.6
				c0.8-3.7,4.3-6,8-5.3c3.1,0.6,5.4,3.2,5.6,6.3c0.1,2.1-0.6,3.9-2,5.4c-0.2,0.2-0.2,0.2-0.5,0.1c-0.7-0.4-1.4-0.7-2-1.1
				c-0.3-0.1-0.4-0.3-0.4-0.6c0-0.2,0-0.4,0-0.6c0-0.1,0-0.1,0.1-0.2c0.3-0.5,0.6-1,0.8-1.6c0-0.1,0-0.1,0.1-0.1
				c0.2-0.2,0.3-0.4,0.3-0.7c0-0.3,0-0.6,0-0.9c0-0.1,0-0.3-0.1-0.4c-0.2-0.2-0.1-0.4-0.1-0.7c0-0.1,0-0.3,0-0.4c0,0,0,0,0,0
				c0-0.2,0-0.4,0-0.6c0-0.9-0.4-1.6-1.3-2c-0.9-0.4-1.9-0.4-2.9-0.2c-1.1,0.3-1.7,1.2-1.7,2.3c0,0.4,0,0.8,0,1.2
				c0,0.1,0,0.1-0.1,0.2c-0.1,0.2-0.2,0.4-0.2,0.6c0,0.3,0,0.7,0,1c0,0.4,0.2,0.6,0.5,0.8c0.1,0,0.1,0.1,0.1,0.2
				c0.1,0.4,0.3,0.7,0.5,1c0.3,0.3,0.3,0.7,0.3,1.1c0,0.4-0.1,0.6-0.5,0.7c-0.8,0.4-1.5,0.8-2.3,1.1c-0.1,0.1-0.2,0.1-0.3,0
				C13.2,66.3,12.4,64.1,13,61.6z"/>
		</g>
	</g>
</g>
<g>
	<path class="st0" d="M35.7,60.4h49.8c0.8,0,1.5-0.5,1.5-1.1s-0.7-1.1-1.5-1.1H35.7c-0.8,0-1.5,0.5-1.5,1.1S34.9,60.4,35.7,60.4z"/>
</g>
<g>
	<path class="st0" d="M35.2,67.4H70c0.6,0,1-0.5,1-1.1c0-0.6-0.5-1.1-1-1.1H35.2c-0.6,0-1,0.5-1,1.1C34.2,66.9,34.7,67.4,35.2,67.4z
		"/>
</g>
<g>
	<g>
		<path class="st3" d="M27.1,123.1c0,0.1,0,0.1,0,0.2C27.1,123.3,27.1,123.2,27.1,123.1z"/>
	</g>
	<g>
		<path class="st3" d="M20.1,115.6C20.2,115.6,20.2,115.7,20.1,115.6C20.2,115.6,20.1,115.6,20.1,115.6
			C20.1,115.6,20.1,115.6,20.1,115.6C20.1,115.6,20.1,115.6,20.1,115.6z"/>
	</g>
	<g>
		<path class="st3" d="M27.1,122.6C27.1,122.6,27.1,122.7,27.1,122.6C27.1,122.7,27.1,122.7,27.1,122.6
			C27.1,122.7,27.1,122.6,27.1,122.6C27.1,122.6,27.1,122.6,27.1,122.6z"/>
	</g>
	<g>
		<path class="st3" d="M20.1,115.6C20.1,115.6,20.1,115.6,20.1,115.6C20.1,115.6,20.1,115.6,20.1,115.6
			C20.1,115.6,20,115.6,20.1,115.6C20.1,115.6,20.1,115.6,20.1,115.6C20.1,115.6,20.1,115.6,20.1,115.6z"/>
	</g>
	<g>
		<path class="st3" d="M20.1,115.6C20.1,115.6,20.1,115.6,20.1,115.6C20,115.6,20,115.6,20.1,115.6C20,115.6,20,115.6,20.1,115.6
			C20,115.6,20,115.6,20.1,115.6C20,115.6,20,115.6,20.1,115.6z"/>
	</g>
	<g>
		<path class="st3" d="M20,115.6C20,115.6,20,115.6,20,115.6C20,115.6,20,115.6,20,115.6C20,115.6,20,115.7,20,115.6z"/>
	</g>
	<g>
		<path class="st3" d="M19.4,115.6C19.4,115.7,19.4,115.6,19.4,115.6C19.4,115.6,19.4,115.6,19.4,115.6
			C19.4,115.6,19.4,115.6,19.4,115.6C19.4,115.6,19.4,115.6,19.4,115.6z"/>
	</g>
	<g>
		<path class="st3" d="M19.4,115.6C19.4,115.6,19.4,115.6,19.4,115.6C19.3,115.6,19.3,115.6,19.4,115.6
			C19.3,115.6,19.3,115.6,19.4,115.6C19.3,115.6,19.3,115.6,19.4,115.6C19.3,115.6,19.3,115.6,19.4,115.6z"/>
	</g>
	<g>
		<path class="st3" d="M19.3,115.6C19.3,115.6,19.3,115.6,19.3,115.6C19.3,115.6,19.3,115.6,19.3,115.6
			C19.2,115.6,19.2,115.6,19.3,115.6C19.2,115.6,19.2,115.6,19.3,115.6C19.3,115.6,19.3,115.6,19.3,115.6z"/>
	</g>
	<g>
		<path class="st3" d="M19.2,115.6C19.2,115.6,19.2,115.6,19.2,115.6C19.2,115.6,19.2,115.6,19.2,115.6
			C19.2,115.7,19.2,115.7,19.2,115.6z"/>
	</g>
	<g>
		<path class="st3" d="M27.1,122.6C27.1,122.6,27.1,122.6,27.1,122.6C27.1,122.6,27.1,122.6,27.1,122.6
			C27.1,122.6,27.1,122.6,27.1,122.6z"/>
	</g>
	<g>
		<path class="st3" d="M27.1,122.7C27.1,122.7,27.1,122.7,27.1,122.7C27.1,122.7,27.1,122.8,27.1,122.7
			C27.1,122.7,27.1,122.7,27.1,122.7z"/>
	</g>
	<g>
		<path class="st3" d="M27.1,123.4C27.1,123.4,27.1,123.5,27.1,123.4C27.1,123.5,27.1,123.5,27.1,123.4
			C27.1,123.5,27.1,123.5,27.1,123.4z"/>
	</g>
	<g>
		<path class="st3" d="M27.1,123.5C27.1,123.5,27.1,123.5,27.1,123.5C27.1,123.5,27.1,123.5,27.1,123.5
			C27.1,123.5,27.1,123.5,27.1,123.5z"/>
	</g>
	<g>
		<path class="st3" d="M20.2,130.5C20.2,130.4,20.1,130.5,20.2,130.5C20.1,130.5,20.1,130.5,20.2,130.5
			C20.1,130.5,20.1,130.5,20.2,130.5C20.1,130.5,20.2,130.5,20.2,130.5z"/>
	</g>
	<g>
		<path class="st3" d="M20.1,130.5C20.1,130.5,20.1,130.5,20.1,130.5C20.1,130.5,20.1,130.5,20.1,130.5
			C20.1,130.5,20,130.5,20.1,130.5C20.1,130.5,20.1,130.5,20.1,130.5C20.1,130.5,20.1,130.5,20.1,130.5z"/>
	</g>
	<g>
		<path class="st3" d="M20.1,130.5C20.1,130.5,20.1,130.5,20.1,130.5C20,130.5,20,130.5,20.1,130.5C20,130.5,20,130.5,20.1,130.5z"
			/>
	</g>
	<g>
		<path class="st3" d="M19.4,130.5C19.4,130.5,19.4,130.5,19.4,130.5C19.3,130.5,19.3,130.5,19.4,130.5
			C19.3,130.5,19.3,130.5,19.4,130.5C19.4,130.5,19.4,130.5,19.4,130.5z"/>
	</g>
	<g>
		<path class="st3" d="M19.3,130.5C19.3,130.5,19.3,130.5,19.3,130.5C19.3,130.5,19.3,130.5,19.3,130.5
			C19.3,130.5,19.3,130.5,19.3,130.5C19.3,130.5,19.3,130.5,19.3,130.5C19.3,130.5,19.3,130.5,19.3,130.5z"/>
	</g>
	<g>
		<path class="st3" d="M19.3,130.5C19.3,130.5,19.3,130.5,19.3,130.5C19.3,130.5,19.2,130.4,19.3,130.5
			C19.2,130.5,19.3,130.5,19.3,130.5z"/>
	</g>
	<g>
		<g>
			<path class="st3" d="M12.2,123.6c0,0.6,0.2,1.3,0.4,1.9c0.4,1.1,0.9,2,1.7,2.8c0.9,0.9,1.9,1.5,3,1.9c0.6,0.2,1.1,0.3,1.7,0.3
				c0,0,0,0,0,0c0,0,0.1,0,0.1,0c0,0,0,0,0.1,0c0,0,0,0,0.1,0c0,0,0,0,0.1,0c0.2,0,0.4,0,0.6,0c0,0,0,0,0.1,0c0,0,0,0,0.1,0
				c0,0,0,0,0.1,0c0,0,0.1,0,0.1,0c0.4,0,0.7-0.1,1.1-0.2c1.1-0.3,2.2-0.8,3.1-1.5c0.8-0.6,1.4-1.4,1.8-2.3c0.4-0.7,0.7-1.5,0.8-2.4
				c0-0.1,0-0.3,0-0.4c0,0,0-0.1,0-0.1c0,0,0,0,0-0.1c0,0,0,0,0-0.1c0,0,0-0.1,0-0.1c0-0.1,0-0.1,0-0.2c0-0.1,0-0.3,0-0.4
				c0,0,0,0,0-0.1c0,0,0,0,0-0.1c0,0,0,0,0-0.1c0,0,0-0.1,0-0.1c0-0.2,0-0.5-0.1-0.7c-0.2-0.9-0.5-1.8-1-2.6
				c-0.6-0.9-1.3-1.7-2.2-2.3c-0.9-0.6-2-1-3.1-1.2c-0.1,0-0.3,0-0.4,0c0,0-0.1,0-0.1,0c0,0-0.1,0-0.1,0c0,0,0,0-0.1,0
				c0,0,0,0-0.1,0c0,0,0,0-0.1,0c-0.2,0-0.3,0-0.5,0c0,0,0,0-0.1,0c0,0,0,0-0.1,0c0,0,0,0-0.1,0c0,0,0,0-0.1,0c0,0-0.1,0-0.1,0
				c-0.3,0-0.6,0-0.9,0.1c-1.3,0.3-2.4,0.8-3.4,1.6c-1.4,1.2-2.3,2.8-2.6,4.7C12.2,122.5,12.2,123.1,12.2,123.6z M13,121.6
				c0.8-3.7,4.3-6,8-5.3c3.1,0.6,5.4,3.2,5.6,6.3c0.1,2.1-0.6,3.9-2,5.4c-0.2,0.2-0.2,0.2-0.5,0.1c-0.7-0.4-1.4-0.7-2-1.1
				c-0.3-0.1-0.4-0.3-0.4-0.6c0-0.2,0-0.4,0-0.6c0-0.1,0-0.1,0.1-0.2c0.3-0.5,0.6-1,0.8-1.6c0-0.1,0-0.1,0.1-0.1
				c0.2-0.2,0.3-0.4,0.3-0.7c0-0.3,0-0.6,0-0.9c0-0.1,0-0.3-0.1-0.4c-0.2-0.2-0.1-0.4-0.1-0.7c0-0.1,0-0.3,0-0.4c0,0,0,0,0,0
				c0-0.2,0-0.4,0-0.6c0-0.9-0.4-1.6-1.3-2c-0.9-0.4-1.9-0.4-2.9-0.2c-1.1,0.3-1.7,1.2-1.7,2.3c0,0.4,0,0.8,0,1.2
				c0,0.1,0,0.1-0.1,0.2c-0.1,0.2-0.2,0.4-0.2,0.6c0,0.3,0,0.7,0,1c0,0.4,0.2,0.6,0.5,0.8c0.1,0,0.1,0.1,0.1,0.2
				c0.1,0.4,0.3,0.7,0.5,1c0.3,0.3,0.3,0.7,0.3,1.1c0,0.4-0.1,0.6-0.5,0.7c-0.8,0.4-1.5,0.8-2.3,1.1c-0.1,0.1-0.2,0.1-0.3,0
				C13.2,126.3,12.4,124.1,13,121.6z"/>
		</g>
	</g>
</g>
<g>
	<path class="st4" d="M13.7,95.4h49.8c0.8,0,1.5-0.5,1.5-1.1s-0.7-1.1-1.5-1.1H13.7c-0.8,0-1.5,0.5-1.5,1.1S12.9,95.4,13.7,95.4z"/>
</g>
<g>
	<path class="st4" d="M154.2,95.4H187c0.5,0,1-0.5,1-1.1c0-0.6-0.4-1.1-1-1.1h-32.8c-0.5,0-1,0.5-1,1.1
		C153.2,94.9,153.7,95.4,154.2,95.4z"/>
</g>
<g>
	<path class="st4" d="M248.2,95.4H281c0.5,0,1-0.5,1-1.1c0-0.6-0.4-1.1-1-1.1h-32.8c-0.5,0-1,0.5-1,1.1
		C247.2,94.9,247.7,95.4,248.2,95.4z"/>
</g>
<g>
	<path class="st4" d="M347.2,95.4H380c0.5,0,1-0.5,1-1.1c0-0.6-0.4-1.1-1-1.1h-32.8c-0.5,0-1,0.5-1,1.1
		C346.2,94.9,346.7,95.4,347.2,95.4z"/>
</g>
<g>
	<path class="st3" d="M35.2,127.4H70c0.6,0,1-0.5,1-1.1c0-0.6-0.5-1.1-1-1.1H35.2c-0.6,0-1,0.5-1,1.1
		C34.2,126.9,34.7,127.4,35.2,127.4z"/>
</g>
<g>
	<path class="st3" d="M153.7,120.4h17.7c0.3,0,0.5-0.5,0.5-1.1c0-0.6-0.2-1.1-0.5-1.1h-17.7c-0.3,0-0.5,0.5-0.5,1.1
		C153.2,119.9,153.5,120.4,153.7,120.4z"/>
</g>
<g>
	<path class="st3" d="M153.9,127.4h21.5c0.4,0,0.6-0.5,0.6-1.1c0-0.6-0.3-1.1-0.6-1.1h-21.5c-0.4,0-0.6,0.5-0.6,1.1
		C153.2,126.9,153.5,127.4,153.9,127.4z"/>
</g>
<g>
	<path class="st3" d="M248.5,127.4h42.3c0.7,0,1.3-0.5,1.3-1.1c0-0.6-0.6-1.1-1.3-1.1h-42.3c-0.7,0-1.3,0.5-1.3,1.1
		C247.2,126.9,247.8,127.4,248.5,127.4z"/>
</g>
<g>
	<path class="st3" d="M256,121.4h27.2c0.4,0,0.8-0.5,0.8-1.1c0-0.6-0.4-1.1-0.8-1.1H256c-0.4,0-0.8,0.5-0.8,1.1
		C255.2,120.9,255.6,121.4,256,121.4z"/>
</g>
<g>
	<path class="st3" d="M351.9,127.4h21.5c0.4,0,0.6-0.5,0.6-1.1c0-0.6-0.3-1.1-0.6-1.1h-21.5c-0.4,0-0.6,0.5-0.6,1.1
		C351.2,126.9,351.5,127.4,351.9,127.4z"/>
</g>
<g>
	<path class="st3" d="M355.7,121.4h13.8c0.2,0,0.4-0.5,0.4-1.1c0-0.6-0.2-1.1-0.4-1.1h-13.8c-0.2,0-0.4,0.5-0.4,1.1
		C355.3,120.9,355.5,121.4,355.7,121.4z"/>
</g>
<g>
	<path class="st3" d="M351.9,150.4h21.5c0.4,0,0.6-0.5,0.6-1.1c0-0.6-0.3-1.1-0.6-1.1h-21.5c-0.4,0-0.6,0.5-0.6,1.1
		C351.2,149.9,351.5,150.4,351.9,150.4z"/>
</g>
<g>
	<path class="st3" d="M355.7,144.4h13.8c0.2,0,0.4-0.5,0.4-1.1c0-0.6-0.2-1.1-0.4-1.1h-13.8c-0.2,0-0.4,0.5-0.4,1.1
		C355.3,143.9,355.5,144.4,355.7,144.4z"/>
</g>
<g>
	<path class="st3" d="M248.5,150.4h42.3c0.7,0,1.3-0.5,1.3-1.1s-0.6-1.1-1.3-1.1h-42.3c-0.7,0-1.3,0.5-1.3,1.1
		S247.8,150.4,248.5,150.4z"/>
</g>
<g>
	<path class="st3" d="M256,144.4h27.2c0.4,0,0.8-0.5,0.8-1.1s-0.4-1.1-0.8-1.1H256c-0.4,0-0.8,0.5-0.8,1.1S255.6,144.4,256,144.4z"
		/>
</g>
<g>
	<path class="st3" d="M153.7,143.4h17.7c0.3,0,0.5-0.5,0.5-1.1c0-0.6-0.2-1.1-0.5-1.1h-17.7c-0.3,0-0.5,0.5-0.5,1.1
		C153.2,142.9,153.5,143.4,153.7,143.4z"/>
</g>
<g>
	<path class="st3" d="M153.9,150.4h21.5c0.4,0,0.6-0.5,0.6-1.1s-0.3-1.1-0.6-1.1h-21.5c-0.4,0-0.6,0.5-0.6,1.1
		S153.5,150.4,153.9,150.4z"/>
</g>
<g>
	<g>
		<path class="st3" d="M27.1,147.1c0,0.1,0,0.1,0,0.2C27.1,147.3,27.1,147.2,27.1,147.1z"/>
	</g>
	<g>
		<path class="st3" d="M20.1,139.6C20.2,139.6,20.2,139.7,20.1,139.6C20.2,139.6,20.1,139.6,20.1,139.6
			C20.1,139.6,20.1,139.6,20.1,139.6C20.1,139.6,20.1,139.6,20.1,139.6z"/>
	</g>
	<g>
		<path class="st3" d="M27.1,146.6C27.1,146.6,27.1,146.7,27.1,146.6C27.1,146.7,27.1,146.7,27.1,146.6
			C27.1,146.7,27.1,146.6,27.1,146.6C27.1,146.6,27.1,146.6,27.1,146.6z"/>
	</g>
	<g>
		<path class="st3" d="M20.1,139.6C20.1,139.6,20.1,139.6,20.1,139.6C20.1,139.6,20.1,139.6,20.1,139.6
			C20.1,139.6,20,139.6,20.1,139.6C20.1,139.6,20.1,139.6,20.1,139.6C20.1,139.6,20.1,139.6,20.1,139.6z"/>
	</g>
	<g>
		<path class="st3" d="M20.1,139.6C20.1,139.6,20.1,139.6,20.1,139.6C20,139.6,20,139.6,20.1,139.6C20,139.6,20,139.6,20.1,139.6
			C20,139.6,20,139.6,20.1,139.6C20,139.6,20,139.6,20.1,139.6z"/>
	</g>
	<g>
		<path class="st3" d="M20,139.6C20,139.6,20,139.6,20,139.6C20,139.6,20,139.6,20,139.6C20,139.6,20,139.7,20,139.6z"/>
	</g>
	<g>
		<path class="st3" d="M19.4,139.6C19.4,139.7,19.4,139.6,19.4,139.6C19.4,139.6,19.4,139.6,19.4,139.6
			C19.4,139.6,19.4,139.6,19.4,139.6C19.4,139.6,19.4,139.6,19.4,139.6z"/>
	</g>
	<g>
		<path class="st3" d="M19.4,139.6C19.4,139.6,19.4,139.6,19.4,139.6C19.3,139.6,19.3,139.6,19.4,139.6
			C19.3,139.6,19.3,139.6,19.4,139.6C19.3,139.6,19.3,139.6,19.4,139.6C19.3,139.6,19.3,139.6,19.4,139.6z"/>
	</g>
	<g>
		<path class="st3" d="M19.3,139.6C19.3,139.6,19.3,139.6,19.3,139.6C19.3,139.6,19.3,139.6,19.3,139.6
			C19.2,139.6,19.2,139.6,19.3,139.6C19.2,139.6,19.2,139.6,19.3,139.6C19.3,139.6,19.3,139.6,19.3,139.6z"/>
	</g>
	<g>
		<path class="st3" d="M19.2,139.6C19.2,139.6,19.2,139.6,19.2,139.6C19.2,139.6,19.2,139.6,19.2,139.6
			C19.2,139.7,19.2,139.7,19.2,139.6z"/>
	</g>
	<g>
		<path class="st3" d="M27.1,146.6C27.1,146.6,27.1,146.6,27.1,146.6C27.1,146.6,27.1,146.6,27.1,146.6
			C27.1,146.6,27.1,146.6,27.1,146.6z"/>
	</g>
	<g>
		<path class="st3" d="M27.1,146.7C27.1,146.7,27.1,146.7,27.1,146.7C27.1,146.7,27.1,146.8,27.1,146.7
			C27.1,146.7,27.1,146.7,27.1,146.7z"/>
	</g>
	<g>
		<path class="st3" d="M27.1,147.4C27.1,147.4,27.1,147.5,27.1,147.4C27.1,147.5,27.1,147.5,27.1,147.4
			C27.1,147.5,27.1,147.5,27.1,147.4z"/>
	</g>
	<g>
		<path class="st3" d="M27.1,147.5C27.1,147.5,27.1,147.5,27.1,147.5C27.1,147.5,27.1,147.5,27.1,147.5
			C27.1,147.5,27.1,147.5,27.1,147.5z"/>
	</g>
	<g>
		<path class="st3" d="M20.2,154.5C20.2,154.4,20.1,154.5,20.2,154.5C20.1,154.5,20.1,154.5,20.2,154.5
			C20.1,154.5,20.1,154.5,20.2,154.5C20.1,154.5,20.2,154.5,20.2,154.5z"/>
	</g>
	<g>
		<path class="st3" d="M20.1,154.5C20.1,154.5,20.1,154.5,20.1,154.5C20.1,154.5,20.1,154.5,20.1,154.5
			C20.1,154.5,20,154.5,20.1,154.5C20.1,154.5,20.1,154.5,20.1,154.5C20.1,154.5,20.1,154.5,20.1,154.5z"/>
	</g>
	<g>
		<path class="st3" d="M20.1,154.5C20.1,154.5,20.1,154.5,20.1,154.5C20,154.5,20,154.5,20.1,154.5C20,154.5,20,154.5,20.1,154.5z"
			/>
	</g>
	<g>
		<path class="st3" d="M19.4,154.5C19.4,154.5,19.4,154.5,19.4,154.5C19.3,154.5,19.3,154.5,19.4,154.5
			C19.3,154.5,19.3,154.5,19.4,154.5C19.4,154.5,19.4,154.5,19.4,154.5z"/>
	</g>
	<g>
		<path class="st3" d="M19.3,154.5C19.3,154.5,19.3,154.5,19.3,154.5C19.3,154.5,19.3,154.5,19.3,154.5
			C19.3,154.5,19.3,154.5,19.3,154.5C19.3,154.5,19.3,154.5,19.3,154.5C19.3,154.5,19.3,154.5,19.3,154.5z"/>
	</g>
	<g>
		<path class="st3" d="M19.3,154.5C19.3,154.5,19.3,154.5,19.3,154.5C19.3,154.5,19.2,154.4,19.3,154.5
			C19.2,154.5,19.3,154.5,19.3,154.5z"/>
	</g>
	<g>
		<g>
			<path class="st3" d="M12.2,147.6c0,0.6,0.2,1.3,0.4,1.9c0.4,1.1,0.9,2,1.7,2.8c0.9,0.9,1.9,1.5,3,1.9c0.6,0.2,1.1,0.3,1.7,0.3
				c0,0,0,0,0,0c0,0,0.1,0,0.1,0c0,0,0,0,0.1,0c0,0,0,0,0.1,0c0,0,0,0,0.1,0c0.2,0,0.4,0,0.6,0c0,0,0,0,0.1,0c0,0,0,0,0.1,0
				c0,0,0,0,0.1,0c0,0,0.1,0,0.1,0c0.4,0,0.7-0.1,1.1-0.2c1.1-0.3,2.2-0.8,3.1-1.5c0.8-0.6,1.4-1.4,1.8-2.3c0.4-0.7,0.7-1.5,0.8-2.4
				c0-0.1,0-0.3,0-0.4c0,0,0-0.1,0-0.1c0,0,0,0,0-0.1c0,0,0,0,0-0.1c0,0,0-0.1,0-0.1c0-0.1,0-0.1,0-0.2c0-0.1,0-0.3,0-0.4
				c0,0,0,0,0-0.1c0,0,0,0,0-0.1c0,0,0,0,0-0.1c0,0,0-0.1,0-0.1c0-0.2,0-0.5-0.1-0.7c-0.2-0.9-0.5-1.8-1-2.6
				c-0.6-0.9-1.3-1.7-2.2-2.3c-0.9-0.6-2-1-3.1-1.2c-0.1,0-0.3,0-0.4,0c0,0-0.1,0-0.1,0c0,0-0.1,0-0.1,0c0,0,0,0-0.1,0
				c0,0,0,0-0.1,0c0,0,0,0-0.1,0c-0.2,0-0.3,0-0.5,0c0,0,0,0-0.1,0c0,0,0,0-0.1,0c0,0,0,0-0.1,0c0,0,0,0-0.1,0c0,0-0.1,0-0.1,0
				c-0.3,0-0.6,0-0.9,0.1c-1.3,0.3-2.4,0.8-3.4,1.6c-1.4,1.2-2.3,2.8-2.6,4.7C12.2,146.5,12.2,147.1,12.2,147.6z M13,145.6
				c0.8-3.7,4.3-6,8-5.3c3.1,0.6,5.4,3.2,5.6,6.3c0.1,2.1-0.6,3.9-2,5.4c-0.2,0.2-0.2,0.2-0.5,0.1c-0.7-0.4-1.4-0.7-2-1.1
				c-0.3-0.1-0.4-0.3-0.4-0.6c0-0.2,0-0.4,0-0.6c0-0.1,0-0.1,0.1-0.2c0.3-0.5,0.6-1,0.8-1.6c0-0.1,0-0.1,0.1-0.1
				c0.2-0.2,0.3-0.4,0.3-0.7c0-0.3,0-0.6,0-0.9c0-0.1,0-0.3-0.1-0.4c-0.2-0.2-0.1-0.4-0.1-0.7c0-0.1,0-0.3,0-0.4c0,0,0,0,0,0
				c0-0.2,0-0.4,0-0.6c0-0.9-0.4-1.6-1.3-2c-0.9-0.4-1.9-0.4-2.9-0.2c-1.1,0.3-1.7,1.2-1.7,2.3c0,0.4,0,0.8,0,1.2
				c0,0.1,0,0.1-0.1,0.2c-0.1,0.2-0.2,0.4-0.2,0.6c0,0.3,0,0.7,0,1c0,0.4,0.2,0.6,0.5,0.8c0.1,0,0.1,0.1,0.1,0.2
				c0.1,0.4,0.3,0.7,0.5,1c0.3,0.3,0.3,0.7,0.3,1.1c0,0.4-0.1,0.6-0.5,0.7c-0.8,0.4-1.5,0.8-2.3,1.1c-0.1,0.1-0.2,0.1-0.3,0
				C13.2,150.3,12.4,148.1,13,145.6z"/>
		</g>
	</g>
</g>
<g>
	<path class="st3" d="M35.7,144.4h49.8c0.8,0,1.5-0.5,1.5-1.1c0-0.6-0.7-1.1-1.5-1.1H35.7c-0.8,0-1.5,0.5-1.5,1.1
		C34.2,143.9,34.9,144.4,35.7,144.4z"/>
</g>
<g>
	<path class="st3" d="M35.7,119.4h49.8c0.8,0,1.5-0.5,1.5-1.1s-0.7-1.1-1.5-1.1H35.7c-0.8,0-1.5,0.5-1.5,1.1S34.9,119.4,35.7,119.4z
		"/>
</g>
<g>
	<path class="st3" d="M35.2,151.4H70c0.6,0,1-0.5,1-1.1c0-0.6-0.5-1.1-1-1.1H35.2c-0.6,0-1,0.5-1,1.1
		C34.2,150.9,34.7,151.4,35.2,151.4z"/>
</g>
<g>
	<g>
		<path class="st3" d="M27.1,171.1c0,0.1,0,0.1,0,0.2C27.1,171.3,27.1,171.2,27.1,171.1z"/>
	</g>
	<g>
		<path class="st3" d="M20.1,163.6C20.2,163.6,20.2,163.7,20.1,163.6C20.2,163.6,20.1,163.6,20.1,163.6
			C20.1,163.6,20.1,163.6,20.1,163.6C20.1,163.6,20.1,163.6,20.1,163.6z"/>
	</g>
	<g>
		<path class="st3" d="M27.1,170.6C27.1,170.6,27.1,170.7,27.1,170.6C27.1,170.7,27.1,170.7,27.1,170.6
			C27.1,170.7,27.1,170.6,27.1,170.6C27.1,170.6,27.1,170.6,27.1,170.6z"/>
	</g>
	<g>
		<path class="st3" d="M20.1,163.6C20.1,163.6,20.1,163.6,20.1,163.6C20.1,163.6,20.1,163.6,20.1,163.6
			C20.1,163.6,20,163.6,20.1,163.6C20.1,163.6,20.1,163.6,20.1,163.6C20.1,163.6,20.1,163.6,20.1,163.6z"/>
	</g>
	<g>
		<path class="st3" d="M20.1,163.6C20.1,163.6,20.1,163.6,20.1,163.6C20,163.6,20,163.6,20.1,163.6C20,163.6,20,163.6,20.1,163.6
			C20,163.6,20,163.6,20.1,163.6C20,163.6,20,163.6,20.1,163.6z"/>
	</g>
	<g>
		<path class="st3" d="M20,163.6C20,163.6,20,163.6,20,163.6C20,163.6,20,163.6,20,163.6C20,163.6,20,163.7,20,163.6z"/>
	</g>
	<g>
		<path class="st3" d="M19.4,163.6C19.4,163.7,19.4,163.6,19.4,163.6C19.4,163.6,19.4,163.6,19.4,163.6
			C19.4,163.6,19.4,163.6,19.4,163.6C19.4,163.6,19.4,163.6,19.4,163.6z"/>
	</g>
	<g>
		<path class="st3" d="M19.4,163.6C19.4,163.6,19.4,163.6,19.4,163.6C19.3,163.6,19.3,163.6,19.4,163.6
			C19.3,163.6,19.3,163.6,19.4,163.6C19.3,163.6,19.3,163.6,19.4,163.6C19.3,163.6,19.3,163.6,19.4,163.6z"/>
	</g>
	<g>
		<path class="st3" d="M19.3,163.6C19.3,163.6,19.3,163.6,19.3,163.6C19.3,163.6,19.3,163.6,19.3,163.6
			C19.2,163.6,19.2,163.6,19.3,163.6C19.2,163.6,19.2,163.6,19.3,163.6C19.3,163.6,19.3,163.6,19.3,163.6z"/>
	</g>
	<g>
		<path class="st3" d="M19.2,163.6C19.2,163.6,19.2,163.6,19.2,163.6C19.2,163.6,19.2,163.6,19.2,163.6
			C19.2,163.7,19.2,163.7,19.2,163.6z"/>
	</g>
	<g>
		<path class="st3" d="M27.1,170.6C27.1,170.6,27.1,170.6,27.1,170.6C27.1,170.6,27.1,170.6,27.1,170.6
			C27.1,170.6,27.1,170.6,27.1,170.6z"/>
	</g>
	<g>
		<path class="st3" d="M27.1,170.7C27.1,170.7,27.1,170.7,27.1,170.7C27.1,170.7,27.1,170.8,27.1,170.7
			C27.1,170.7,27.1,170.7,27.1,170.7z"/>
	</g>
	<g>
		<path class="st3" d="M27.1,171.4C27.1,171.4,27.1,171.5,27.1,171.4C27.1,171.5,27.1,171.5,27.1,171.4
			C27.1,171.5,27.1,171.5,27.1,171.4z"/>
	</g>
	<g>
		<path class="st3" d="M27.1,171.5C27.1,171.5,27.1,171.5,27.1,171.5C27.1,171.5,27.1,171.5,27.1,171.5
			C27.1,171.5,27.1,171.5,27.1,171.5z"/>
	</g>
	<g>
		<path class="st3" d="M20.2,178.5C20.2,178.4,20.1,178.5,20.2,178.5C20.1,178.5,20.1,178.5,20.2,178.5
			C20.1,178.5,20.1,178.5,20.2,178.5C20.1,178.5,20.2,178.5,20.2,178.5z"/>
	</g>
	<g>
		<path class="st3" d="M20.1,178.5C20.1,178.5,20.1,178.5,20.1,178.5C20.1,178.5,20.1,178.5,20.1,178.5
			C20.1,178.5,20,178.5,20.1,178.5C20.1,178.5,20.1,178.5,20.1,178.5C20.1,178.5,20.1,178.5,20.1,178.5z"/>
	</g>
	<g>
		<path class="st3" d="M20.1,178.5C20.1,178.5,20.1,178.5,20.1,178.5C20,178.5,20,178.5,20.1,178.5C20,178.5,20,178.5,20.1,178.5z"
			/>
	</g>
	<g>
		<path class="st3" d="M19.4,178.5C19.4,178.5,19.4,178.5,19.4,178.5C19.3,178.5,19.3,178.5,19.4,178.5
			C19.3,178.5,19.3,178.5,19.4,178.5C19.4,178.5,19.4,178.5,19.4,178.5z"/>
	</g>
	<g>
		<path class="st3" d="M19.3,178.5C19.3,178.5,19.3,178.5,19.3,178.5C19.3,178.5,19.3,178.5,19.3,178.5
			C19.3,178.5,19.3,178.5,19.3,178.5C19.3,178.5,19.3,178.5,19.3,178.5C19.3,178.5,19.3,178.5,19.3,178.5z"/>
	</g>
	<g>
		<path class="st3" d="M19.3,178.5C19.3,178.5,19.3,178.5,19.3,178.5C19.3,178.5,19.2,178.4,19.3,178.5
			C19.2,178.5,19.3,178.5,19.3,178.5z"/>
	</g>
	<g>
		<g>
			<path class="st3" d="M12.2,171.6c0,0.6,0.2,1.3,0.4,1.9c0.4,1.1,0.9,2,1.7,2.8c0.9,0.9,1.9,1.5,3,1.9c0.6,0.2,1.1,0.3,1.7,0.3
				c0,0,0,0,0,0c0,0,0.1,0,0.1,0c0,0,0,0,0.1,0c0,0,0,0,0.1,0c0,0,0,0,0.1,0c0.2,0,0.4,0,0.6,0c0,0,0,0,0.1,0c0,0,0,0,0.1,0
				c0,0,0,0,0.1,0c0,0,0.1,0,0.1,0c0.4,0,0.7-0.1,1.1-0.2c1.1-0.3,2.2-0.8,3.1-1.5c0.8-0.6,1.4-1.4,1.8-2.3c0.4-0.7,0.7-1.5,0.8-2.4
				c0-0.1,0-0.3,0-0.4c0,0,0-0.1,0-0.1c0,0,0,0,0-0.1c0,0,0,0,0-0.1c0,0,0-0.1,0-0.1c0-0.1,0-0.1,0-0.2c0-0.1,0-0.3,0-0.4
				c0,0,0,0,0-0.1c0,0,0,0,0-0.1c0,0,0,0,0-0.1c0,0,0-0.1,0-0.1c0-0.2,0-0.5-0.1-0.7c-0.2-0.9-0.5-1.8-1-2.6
				c-0.6-0.9-1.3-1.7-2.2-2.3c-0.9-0.6-2-1-3.1-1.2c-0.1,0-0.3,0-0.4,0c0,0-0.1,0-0.1,0c0,0-0.1,0-0.1,0c0,0,0,0-0.1,0
				c0,0,0,0-0.1,0c0,0,0,0-0.1,0c-0.2,0-0.3,0-0.5,0c0,0,0,0-0.1,0c0,0,0,0-0.1,0c0,0,0,0-0.1,0c0,0,0,0-0.1,0c0,0-0.1,0-0.1,0
				c-0.3,0-0.6,0-0.9,0.1c-1.3,0.3-2.4,0.8-3.4,1.6c-1.4,1.2-2.3,2.8-2.6,4.7C12.2,170.5,12.2,171.1,12.2,171.6z M13,169.6
				c0.8-3.7,4.3-6,8-5.3c3.1,0.6,5.4,3.2,5.6,6.3c0.1,2.1-0.6,3.9-2,5.4c-0.2,0.2-0.2,0.2-0.5,0.1c-0.7-0.4-1.4-0.7-2-1.1
				c-0.3-0.1-0.4-0.3-0.4-0.6c0-0.2,0-0.4,0-0.6c0-0.1,0-0.1,0.1-0.2c0.3-0.5,0.6-1,0.8-1.6c0-0.1,0-0.1,0.1-0.1
				c0.2-0.2,0.3-0.4,0.3-0.7c0-0.3,0-0.6,0-0.9c0-0.1,0-0.3-0.1-0.4c-0.2-0.2-0.1-0.4-0.1-0.7c0-0.1,0-0.3,0-0.4c0,0,0,0,0,0
				c0-0.2,0-0.4,0-0.6c0-0.9-0.4-1.6-1.3-2c-0.9-0.4-1.9-0.4-2.9-0.2c-1.1,0.3-1.7,1.2-1.7,2.3c0,0.4,0,0.8,0,1.2
				c0,0.1,0,0.1-0.1,0.2c-0.1,0.2-0.2,0.4-0.2,0.6c0,0.3,0,0.7,0,1c0,0.4,0.2,0.6,0.5,0.8c0.1,0,0.1,0.1,0.1,0.2
				c0.1,0.4,0.3,0.7,0.5,1c0.3,0.3,0.3,0.7,0.3,1.1c0,0.4-0.1,0.6-0.5,0.7c-0.8,0.4-1.5,0.8-2.3,1.1c-0.1,0.1-0.2,0.1-0.3,0
				C13.2,174.3,12.4,172.1,13,169.6z"/>
		</g>
	</g>
</g>
<g>
	<path class="st3" d="M35.2,175.4H70c0.6,0,1-0.5,1-1.1c0-0.6-0.5-1.1-1-1.1H35.2c-0.6,0-1,0.5-1,1.1
		C34.2,174.9,34.7,175.4,35.2,175.4z"/>
</g>
<g>
	<path class="st3" d="M153.7,168.4h17.7c0.3,0,0.5-0.5,0.5-1.1c0-0.6-0.2-1.1-0.5-1.1h-17.7c-0.3,0-0.5,0.5-0.5,1.1
		C153.2,167.9,153.5,168.4,153.7,168.4z"/>
</g>
<g>
	<path class="st3" d="M153.9,175.4h21.5c0.4,0,0.6-0.5,0.6-1.1s-0.3-1.1-0.6-1.1h-21.5c-0.4,0-0.6,0.5-0.6,1.1
		S153.5,175.4,153.9,175.4z"/>
</g>
<g>
	<path class="st3" d="M248.5,175.4h42.3c0.7,0,1.3-0.5,1.3-1.1s-0.6-1.1-1.3-1.1h-42.3c-0.7,0-1.3,0.5-1.3,1.1
		S247.8,175.4,248.5,175.4z"/>
</g>
<g>
	<path class="st3" d="M256,169.4h27.2c0.4,0,0.8-0.5,0.8-1.1s-0.4-1.1-0.8-1.1H256c-0.4,0-0.8,0.5-0.8,1.1S255.6,169.4,256,169.4z"
		/>
</g>
<g>
	<path class="st3" d="M351.9,175.4h21.5c0.4,0,0.6-0.5,0.6-1.1c0-0.6-0.3-1.1-0.6-1.1h-21.5c-0.4,0-0.6,0.5-0.6,1.1
		C351.2,174.9,351.5,175.4,351.9,175.4z"/>
</g>
<g>
	<path class="st3" d="M355.7,169.4h13.8c0.2,0,0.4-0.5,0.4-1.1c0-0.6-0.2-1.1-0.4-1.1h-13.8c-0.2,0-0.4,0.5-0.4,1.1
		C355.3,168.9,355.5,169.4,355.7,169.4z"/>
</g>
<g>
	<path class="st3" d="M351.9,198.4h21.5c0.4,0,0.6-0.5,0.6-1.1c0-0.6-0.3-1.1-0.6-1.1h-21.5c-0.4,0-0.6,0.5-0.6,1.1
		C351.2,197.9,351.5,198.4,351.9,198.4z"/>
</g>
<g>
	<path class="st3" d="M355.7,192.4h13.8c0.2,0,0.4-0.5,0.4-1.1c0-0.6-0.2-1.1-0.4-1.1h-13.8c-0.2,0-0.4,0.5-0.4,1.1
		C355.3,191.9,355.5,192.4,355.7,192.4z"/>
</g>
<g>
	<path class="st3" d="M248.5,198.4h42.3c0.7,0,1.3-0.5,1.3-1.1s-0.6-1.1-1.3-1.1h-42.3c-0.7,0-1.3,0.5-1.3,1.1
		S247.8,198.4,248.5,198.4z"/>
</g>
<g>
	<path class="st3" d="M256,192.4h27.2c0.4,0,0.8-0.5,0.8-1.1s-0.4-1.1-0.8-1.1H256c-0.4,0-0.8,0.5-0.8,1.1S255.6,192.4,256,192.4z"
		/>
</g>
<g>
	<path class="st3" d="M153.7,191.4h17.7c0.3,0,0.5-0.5,0.5-1.1c0-0.6-0.2-1.1-0.5-1.1h-17.7c-0.3,0-0.5,0.5-0.5,1.1
		C153.2,190.9,153.5,191.4,153.7,191.4z"/>
</g>
<g>
	<path class="st3" d="M153.9,198.4h21.5c0.4,0,0.6-0.5,0.6-1.1s-0.3-1.1-0.6-1.1h-21.5c-0.4,0-0.6,0.5-0.6,1.1
		S153.5,198.4,153.9,198.4z"/>
</g>
<g>
	<g>
		<path class="st3" d="M27.1,195.1c0,0.1,0,0.1,0,0.2C27.1,195.3,27.1,195.2,27.1,195.1z"/>
	</g>
	<g>
		<path class="st3" d="M20.1,187.6C20.2,187.6,20.2,187.7,20.1,187.6C20.2,187.6,20.1,187.6,20.1,187.6
			C20.1,187.6,20.1,187.6,20.1,187.6C20.1,187.6,20.1,187.6,20.1,187.6z"/>
	</g>
	<g>
		<path class="st3" d="M27.1,194.6C27.1,194.6,27.1,194.7,27.1,194.6C27.1,194.7,27.1,194.7,27.1,194.6
			C27.1,194.7,27.1,194.6,27.1,194.6C27.1,194.6,27.1,194.6,27.1,194.6z"/>
	</g>
	<g>
		<path class="st3" d="M20.1,187.6C20.1,187.6,20.1,187.6,20.1,187.6C20.1,187.6,20.1,187.6,20.1,187.6
			C20.1,187.6,20,187.6,20.1,187.6C20.1,187.6,20.1,187.6,20.1,187.6C20.1,187.6,20.1,187.6,20.1,187.6z"/>
	</g>
	<g>
		<path class="st3" d="M20.1,187.6C20.1,187.6,20.1,187.6,20.1,187.6C20,187.6,20,187.6,20.1,187.6C20,187.6,20,187.6,20.1,187.6
			C20,187.6,20,187.6,20.1,187.6C20,187.6,20,187.6,20.1,187.6z"/>
	</g>
	<g>
		<path class="st3" d="M20,187.6C20,187.6,20,187.6,20,187.6C20,187.6,20,187.6,20,187.6C20,187.6,20,187.7,20,187.6z"/>
	</g>
	<g>
		<path class="st3" d="M19.4,187.6C19.4,187.7,19.4,187.6,19.4,187.6C19.4,187.6,19.4,187.6,19.4,187.6
			C19.4,187.6,19.4,187.6,19.4,187.6C19.4,187.6,19.4,187.6,19.4,187.6z"/>
	</g>
	<g>
		<path class="st3" d="M19.4,187.6C19.4,187.6,19.4,187.6,19.4,187.6C19.3,187.6,19.3,187.6,19.4,187.6
			C19.3,187.6,19.3,187.6,19.4,187.6C19.3,187.6,19.3,187.6,19.4,187.6C19.3,187.6,19.3,187.6,19.4,187.6z"/>
	</g>
	<g>
		<path class="st3" d="M19.3,187.6C19.3,187.6,19.3,187.6,19.3,187.6C19.3,187.6,19.3,187.6,19.3,187.6
			C19.2,187.6,19.2,187.6,19.3,187.6C19.2,187.6,19.2,187.6,19.3,187.6C19.3,187.6,19.3,187.6,19.3,187.6z"/>
	</g>
	<g>
		<path class="st3" d="M19.2,187.6C19.2,187.6,19.2,187.6,19.2,187.6C19.2,187.6,19.2,187.6,19.2,187.6
			C19.2,187.7,19.2,187.7,19.2,187.6z"/>
	</g>
	<g>
		<path class="st3" d="M27.1,194.6C27.1,194.6,27.1,194.6,27.1,194.6C27.1,194.6,27.1,194.6,27.1,194.6
			C27.1,194.6,27.1,194.6,27.1,194.6z"/>
	</g>
	<g>
		<path class="st3" d="M27.1,194.7C27.1,194.7,27.1,194.7,27.1,194.7C27.1,194.7,27.1,194.8,27.1,194.7
			C27.1,194.7,27.1,194.7,27.1,194.7z"/>
	</g>
	<g>
		<path class="st3" d="M27.1,195.4C27.1,195.4,27.1,195.5,27.1,195.4C27.1,195.5,27.1,195.5,27.1,195.4
			C27.1,195.5,27.1,195.5,27.1,195.4z"/>
	</g>
	<g>
		<path class="st3" d="M27.1,195.5C27.1,195.5,27.1,195.5,27.1,195.5C27.1,195.5,27.1,195.5,27.1,195.5
			C27.1,195.5,27.1,195.5,27.1,195.5z"/>
	</g>
	<g>
		<path class="st3" d="M20.2,202.5C20.2,202.4,20.1,202.5,20.2,202.5C20.1,202.5,20.1,202.5,20.2,202.5
			C20.1,202.5,20.1,202.5,20.2,202.5C20.1,202.5,20.2,202.5,20.2,202.5z"/>
	</g>
	<g>
		<path class="st3" d="M20.1,202.5C20.1,202.5,20.1,202.5,20.1,202.5C20.1,202.5,20.1,202.5,20.1,202.5
			C20.1,202.5,20,202.5,20.1,202.5C20.1,202.5,20.1,202.5,20.1,202.5C20.1,202.5,20.1,202.5,20.1,202.5z"/>
	</g>
	<g>
		<path class="st3" d="M20.1,202.5C20.1,202.5,20.1,202.5,20.1,202.5C20,202.5,20,202.5,20.1,202.5C20,202.5,20,202.5,20.1,202.5z"
			/>
	</g>
	<g>
		<path class="st3" d="M19.4,202.5C19.4,202.5,19.4,202.5,19.4,202.5C19.3,202.5,19.3,202.5,19.4,202.5
			C19.3,202.5,19.3,202.5,19.4,202.5C19.4,202.5,19.4,202.5,19.4,202.5z"/>
	</g>
	<g>
		<path class="st3" d="M19.3,202.5C19.3,202.5,19.3,202.5,19.3,202.5C19.3,202.5,19.3,202.5,19.3,202.5
			C19.3,202.5,19.3,202.5,19.3,202.5C19.3,202.5,19.3,202.5,19.3,202.5C19.3,202.5,19.3,202.5,19.3,202.5z"/>
	</g>
	<g>
		<path class="st3" d="M19.3,202.5C19.3,202.5,19.3,202.5,19.3,202.5C19.3,202.5,19.2,202.4,19.3,202.5
			C19.2,202.5,19.3,202.5,19.3,202.5z"/>
	</g>
	<g>
		<g>
			<path class="st3" d="M12.2,195.6c0,0.6,0.2,1.3,0.4,1.9c0.4,1.1,0.9,2,1.7,2.8c0.9,0.9,1.9,1.5,3,1.9c0.6,0.2,1.1,0.3,1.7,0.3
				c0,0,0,0,0,0c0,0,0.1,0,0.1,0c0,0,0,0,0.1,0c0,0,0,0,0.1,0c0,0,0,0,0.1,0c0.2,0,0.4,0,0.6,0c0,0,0,0,0.1,0c0,0,0,0,0.1,0
				c0,0,0,0,0.1,0c0,0,0.1,0,0.1,0c0.4,0,0.7-0.1,1.1-0.2c1.1-0.3,2.2-0.8,3.1-1.5c0.8-0.6,1.4-1.4,1.8-2.3c0.4-0.7,0.7-1.5,0.8-2.4
				c0-0.1,0-0.3,0-0.4c0,0,0-0.1,0-0.1c0,0,0,0,0-0.1c0,0,0,0,0-0.1c0,0,0-0.1,0-0.1c0-0.1,0-0.1,0-0.2c0-0.1,0-0.3,0-0.4
				c0,0,0,0,0-0.1c0,0,0,0,0-0.1c0,0,0,0,0-0.1c0,0,0-0.1,0-0.1c0-0.2,0-0.5-0.1-0.7c-0.2-0.9-0.5-1.8-1-2.6
				c-0.6-0.9-1.3-1.7-2.2-2.3c-0.9-0.6-2-1-3.1-1.2c-0.1,0-0.3,0-0.4,0c0,0-0.1,0-0.1,0c0,0-0.1,0-0.1,0c0,0,0,0-0.1,0
				c0,0,0,0-0.1,0c0,0,0,0-0.1,0c-0.2,0-0.3,0-0.5,0c0,0,0,0-0.1,0c0,0,0,0-0.1,0c0,0,0,0-0.1,0c0,0,0,0-0.1,0c0,0-0.1,0-0.1,0
				c-0.3,0-0.6,0-0.9,0.1c-1.3,0.3-2.4,0.8-3.4,1.6c-1.4,1.2-2.3,2.8-2.6,4.7C12.2,194.5,12.2,195.1,12.2,195.6z M13,193.6
				c0.8-3.7,4.3-6,8-5.3c3.1,0.6,5.4,3.2,5.6,6.3c0.1,2.1-0.6,3.9-2,5.4c-0.2,0.2-0.2,0.2-0.5,0.1c-0.7-0.4-1.4-0.7-2-1.1
				c-0.3-0.1-0.4-0.3-0.4-0.6c0-0.2,0-0.4,0-0.6c0-0.1,0-0.1,0.1-0.2c0.3-0.5,0.6-1,0.8-1.6c0-0.1,0-0.1,0.1-0.1
				c0.2-0.2,0.3-0.4,0.3-0.7c0-0.3,0-0.6,0-0.9c0-0.1,0-0.3-0.1-0.4c-0.2-0.2-0.1-0.4-0.1-0.7c0-0.1,0-0.3,0-0.4c0,0,0,0,0,0
				c0-0.2,0-0.4,0-0.6c0-0.9-0.4-1.6-1.3-2c-0.9-0.4-1.9-0.4-2.9-0.2c-1.1,0.3-1.7,1.2-1.7,2.3c0,0.4,0,0.8,0,1.2
				c0,0.1,0,0.1-0.1,0.2c-0.1,0.2-0.2,0.4-0.2,0.6c0,0.3,0,0.7,0,1c0,0.4,0.2,0.6,0.5,0.8c0.1,0,0.1,0.1,0.1,0.2
				c0.1,0.4,0.3,0.7,0.5,1c0.3,0.3,0.3,0.7,0.3,1.1c0,0.4-0.1,0.6-0.5,0.7c-0.8,0.4-1.5,0.8-2.3,1.1c-0.1,0.1-0.2,0.1-0.3,0
				C13.2,198.3,12.4,196.1,13,193.6z"/>
		</g>
	</g>
</g>
<g>
	<path class="st3" d="M35.7,192.4h49.8c0.8,0,1.5-0.5,1.5-1.1c0-0.6-0.7-1.1-1.5-1.1H35.7c-0.8,0-1.5,0.5-1.5,1.1
		C34.2,191.9,34.9,192.4,35.7,192.4z"/>
</g>
<g>
	<path class="st3" d="M35.7,167.4h49.8c0.8,0,1.5-0.5,1.5-1.1c0-0.6-0.7-1.1-1.5-1.1H35.7c-0.8,0-1.5,0.5-1.5,1.1
		C34.2,166.9,34.9,167.4,35.7,167.4z"/>
</g>
<g>
	<path class="st3" d="M35.2,199.4H70c0.6,0,1-0.5,1-1.1c0-0.6-0.5-1.1-1-1.1H35.2c-0.6,0-1,0.5-1,1.1
		C34.2,198.9,34.7,199.4,35.2,199.4z"/>
</g>
</svg>
