<?xml version="1.0" encoding="utf-8"?>
<!-- Generator: Adobe Illustrator 22.1.0, SVG Export Plug-In . SVG Version: 6.00 Build 0)  -->
<svg version="1.1" id="Layer_1" xmlns="http://www.w3.org/2000/svg" xmlns:xlink="http://www.w3.org/1999/xlink" x="0px" y="0px"
	 viewBox="0 0 398 231.2" style="enable-background:new 0 0 398 231.2;" xml:space="preserve">
<style type="text/css">
	.st0{fill:#FFFFFF;}
	.st1{fill:#E6E6E6;}
	.st2{fill:#008BD0;}
	.st3{fill:#B3B3B3;}
	.st4{fill:none;stroke:#CCCCCC;stroke-width:0.25;stroke-miterlimit:10;}
	.st5{fill:none;stroke:#FFFFFF;stroke-width:4;stroke-linecap:round;stroke-miterlimit:10;}
	.st6{fill:#E6E7E8;}
	.st7{fill:#F2F2F2;}
	.st8{fill:#CCCCCC;}
	.st9{fill:#2F2F2F;}
</style>
<rect y="0.6" class="st0" width="398" height="230"/>
<rect x="0.5" y="21.7" class="st1" width="70.5" height="206.9"/>
<rect x="0.4" y="0.6" class="st2" width="397.3" height="20.9"/>
<g>
	<g>
		<path class="st2" d="M129,55.3c-0.1,0.2-0.1,0.3,0,0.5C129,55.6,129,55.4,129,55.3z"/>
	</g>
	<g>
		<path class="st2" d="M110.8,35.8c0.1,0,0.2,0.1,0.2-0.1C111,35.8,110.9,35.8,110.8,35.8C110.8,35.8,110.8,35.8,110.8,35.8
			C110.8,35.8,110.8,35.8,110.8,35.8z"/>
	</g>
	<g>
		<path class="st2" d="M128.9,53.9c0,0.1,0,0.1,0,0.2c0,0,0,0,0.1,0C129,54.1,129,54,128.9,53.9C129,53.9,129,53.9,128.9,53.9z"/>
	</g>
	<g>
		<path class="st2" d="M110.8,35.8C110.8,35.8,110.8,35.8,110.8,35.8c-0.1-0.1-0.1-0.1-0.2-0.1c0,0,0,0,0,0c0,0,0,0,0,0
			C110.7,35.8,110.8,35.8,110.8,35.8z"/>
	</g>
	<g>
		<path class="st2" d="M110.7,35.8C110.7,35.8,110.7,35.8,110.7,35.8c-0.1-0.1-0.1-0.1-0.2-0.1c0,0,0,0,0,0c0,0,0,0,0,0
			C110.6,35.8,110.6,35.8,110.7,35.8z"/>
	</g>
	<g>
		<path class="st2" d="M110.5,35.8C110.5,35.8,110.5,35.8,110.5,35.8c-0.1-0.1-0.1-0.1-0.2-0.1C110.4,35.8,110.5,35.8,110.5,35.8z"
			/>
	</g>
	<g>
		<path class="st2" d="M108.9,35.8c0.1,0,0.1,0,0.2-0.1C109,35.8,108.9,35.8,108.9,35.8C108.8,35.8,108.8,35.8,108.9,35.8
			C108.9,35.8,108.9,35.8,108.9,35.8z"/>
	</g>
	<g>
		<path class="st2" d="M108.9,35.8C108.9,35.8,108.9,35.8,108.9,35.8c0-0.1-0.1-0.1-0.1-0.1c0,0,0,0,0,0c0,0,0,0,0,0
			C108.8,35.8,108.8,35.8,108.9,35.8z"/>
	</g>
	<g>
		<path class="st2" d="M108.7,35.8C108.7,35.8,108.7,35.8,108.7,35.8c0-0.1-0.1-0.1-0.1-0.1c0,0,0,0,0,0c0,0,0,0,0,0
			C108.6,35.8,108.7,35.8,108.7,35.8z"/>
	</g>
	<g>
		<path class="st2" d="M108.6,35.8C108.6,35.8,108.6,35.8,108.6,35.8c0-0.1-0.1-0.1-0.1-0.1C108.4,35.8,108.5,35.8,108.6,35.8z"/>
	</g>
	<g>
		<path class="st2" d="M128.9,53.9C129,53.9,129,53.9,128.9,53.9c0.1,0,0.1-0.1,0.1-0.1C128.9,53.8,128.9,53.9,128.9,53.9z"/>
	</g>
	<g>
		<path class="st2" d="M129,54.1C129,54.1,129,54.1,129,54.1c-0.1,0.1-0.1,0.1,0,0.2C129,54.3,129,54.2,129,54.1z"/>
	</g>
	<g>
		<path class="st2" d="M129,56c-0.1,0-0.1,0.1-0.1,0.2c0,0,0,0,0.1,0C129,56.1,129,56.1,129,56z"/>
	</g>
	<g>
		<path class="st2" d="M129,56.2C129,56.2,129,56.2,129,56.2c-0.1,0.1-0.1,0.1,0,0.2C129,56.3,129,56.2,129,56.2z"/>
	</g>
	<g>
		<path class="st2" d="M111,74.4c0-0.1-0.1-0.1-0.1-0.1c0,0,0,0,0,0c0,0,0,0,0,0C110.9,74.4,110.9,74.4,111,74.4z"/>
	</g>
	<g>
		<path class="st2" d="M110.8,74.4C110.8,74.3,110.8,74.3,110.8,74.4c0-0.1-0.1-0.1-0.1-0.1c0,0,0,0,0,0c0,0,0,0,0,0
			C110.7,74.4,110.8,74.4,110.8,74.4z"/>
	</g>
	<g>
		<path class="st2" d="M110.7,74.4C110.7,74.3,110.7,74.3,110.7,74.4c-0.1-0.1-0.1-0.1-0.2,0C110.6,74.4,110.6,74.4,110.7,74.4z"/>
	</g>
	<g>
		<path class="st2" d="M108.9,74.4c0-0.1-0.1-0.1-0.2-0.1c0,0,0,0,0,0c0,0,0,0,0,0C108.8,74.4,108.9,74.4,108.9,74.4z"/>
	</g>
	<g>
		<path class="st2" d="M108.8,74.4C108.8,74.3,108.8,74.3,108.8,74.4c-0.1-0.1-0.1-0.1-0.2-0.1c0,0,0,0,0,0c0,0,0,0,0,0
			C108.7,74.4,108.7,74.4,108.8,74.4z"/>
	</g>
	<g>
		<path class="st2" d="M108.6,74.4C108.6,74.3,108.6,74.3,108.6,74.4c-0.1-0.1-0.1-0.1-0.2,0C108.5,74.4,108.6,74.4,108.6,74.4z"/>
	</g>
	<g>
		<g>
			<path class="st2" d="M90.4,56.4c0,1.7,0.4,3.3,0.9,4.9c1,2.8,2.5,5.2,4.5,7.3c2.2,2.3,4.8,3.9,7.8,4.9c1.5,0.5,2.9,0.8,4.5,0.8
				c0,0,0.1,0,0.1,0c0.1,0,0.2,0,0.2,0c0,0,0.1,0,0.2,0c0,0,0.1,0,0.1,0c0.1,0,0.1,0,0.2,0c0.5,0,1.1,0,1.6,0c0,0,0.1,0,0.2,0
				c0,0,0.1,0,0.1,0c0.1,0,0.1,0,0.2,0c0.1,0,0.2,0,0.3,0c1-0.1,1.9-0.2,2.9-0.4c3-0.7,5.6-2,8-4c2-1.7,3.6-3.6,4.8-5.9
				c1-1.9,1.7-4,2-6.2c0.1-0.4,0-0.7,0.1-1.1c0-0.1,0-0.3,0-0.4c0,0,0-0.1,0-0.2c0-0.1,0-0.1,0-0.2c0-0.1,0-0.2,0-0.3
				c-0.1-0.2-0.1-0.3,0-0.5c0-0.3,0-0.7,0-1c-0.1,0,0-0.1,0-0.2c0-0.1,0-0.1,0-0.2c0-0.1,0-0.1,0-0.2c0-0.1,0-0.2,0-0.3
				c-0.1-0.6-0.1-1.2-0.2-1.8c-0.4-2.4-1.3-4.7-2.6-6.7c-1.5-2.4-3.4-4.4-5.7-6c-2.5-1.7-5.2-2.7-8.1-3.1c-0.3,0-0.7,0-1-0.1
				c-0.1,0-0.2,0-0.3,0c-0.1,0.1-0.1,0-0.2,0c0,0-0.1,0-0.1,0c0,0-0.1,0-0.1,0c-0.1,0-0.1,0-0.2,0c-0.5,0-0.9,0-1.4,0
				c0,0.1-0.1,0-0.2,0c0,0-0.1,0-0.1,0c0,0-0.1,0-0.1,0c-0.1,0-0.1,0-0.2,0c-0.1,0-0.2,0-0.2,0c-0.8,0.1-1.6,0.1-2.3,0.3
				c-3.3,0.7-6.2,2.1-8.7,4.3c-3.7,3.2-6,7.3-6.7,12.1C90.3,53.7,90.4,55.1,90.4,56.4z M92.2,51.3c2-9.5,11.3-15.6,20.8-13.8
				c8,1.5,14,8.2,14.5,16.3c0.4,5.5-1.4,10.2-5.3,14.1c-0.5,0.5-0.5,0.5-1.2,0.2c-1.8-1-3.5-1.9-5.3-2.9c-0.7-0.4-1-0.9-1-1.6
				c0-0.5,0-1.1,0-1.6c0-0.2,0-0.3,0.1-0.5c0.9-1.2,1.6-2.6,2-4.1c0-0.1,0.1-0.2,0.2-0.3c0.5-0.5,0.8-1.1,0.8-1.9c0-0.8,0-1.6,0-2.4
				c0-0.4,0-0.8-0.2-1.1c-0.4-0.5-0.4-1.1-0.4-1.7c0-0.4,0-0.7,0-1.1c0,0,0,0,0,0c0-0.5,0-1,0-1.4c0-2.4-1.1-4.2-3.3-5.1
				c-2.4-1.1-4.9-1-7.4-0.4c-2.9,0.8-4.5,3.1-4.4,5.9c0.1,1,0,2,0,3.1c0,0.2,0,0.3-0.1,0.4c-0.3,0.4-0.5,0.9-0.5,1.5
				c0,0.9,0,1.7,0,2.6c0,0.9,0.4,1.6,1.2,2.1c0.2,0.1,0.3,0.2,0.3,0.4c0.3,0.9,0.7,1.9,1.3,2.7c0.7,0.9,0.9,1.8,0.8,2.9
				c0,0.9-0.4,1.5-1.2,1.9c-2,1-3.9,2-5.9,3c-0.3,0.1-0.4,0.2-0.7-0.1C92.7,63.5,90.9,57.8,92.2,51.3z"/>
		</g>
	</g>
</g>
<g>
	<g>
		<path class="st3" d="M110.1,88.1c0,0.1,0,0.1,0,0.2C110.1,88.3,110.1,88.2,110.1,88.1z"/>
	</g>
	<g>
		<path class="st3" d="M103.1,80.6C103.2,80.6,103.2,80.7,103.1,80.6C103.2,80.6,103.1,80.6,103.1,80.6
			C103.1,80.6,103.1,80.6,103.1,80.6C103.1,80.6,103.1,80.6,103.1,80.6z"/>
	</g>
	<g>
		<path class="st3" d="M110.1,87.6C110.1,87.6,110.1,87.7,110.1,87.6C110.1,87.7,110.1,87.7,110.1,87.6
			C110.1,87.7,110.1,87.6,110.1,87.6C110.1,87.6,110.1,87.6,110.1,87.6z"/>
	</g>
	<g>
		<path class="st3" d="M103.1,80.6C103.1,80.6,103.1,80.6,103.1,80.6C103.1,80.6,103.1,80.6,103.1,80.6
			C103.1,80.6,103,80.6,103.1,80.6C103.1,80.6,103.1,80.6,103.1,80.6C103.1,80.6,103.1,80.6,103.1,80.6z"/>
	</g>
	<g>
		<path class="st3" d="M103.1,80.6C103.1,80.6,103.1,80.6,103.1,80.6C103,80.6,103,80.6,103.1,80.6C103,80.6,103,80.6,103.1,80.6
			C103,80.6,103,80.6,103.1,80.6C103,80.6,103,80.6,103.1,80.6z"/>
	</g>
	<g>
		<path class="st3" d="M103,80.6C103,80.6,103,80.6,103,80.6C103,80.6,103,80.6,103,80.6C103,80.6,103,80.7,103,80.6z"/>
	</g>
	<g>
		<path class="st3" d="M102.4,80.6C102.4,80.7,102.4,80.6,102.4,80.6C102.4,80.6,102.4,80.6,102.4,80.6
			C102.4,80.6,102.4,80.6,102.4,80.6C102.4,80.6,102.4,80.6,102.4,80.6z"/>
	</g>
	<g>
		<path class="st3" d="M102.4,80.6C102.4,80.6,102.4,80.6,102.4,80.6C102.3,80.6,102.3,80.6,102.4,80.6
			C102.3,80.6,102.3,80.6,102.4,80.6C102.3,80.6,102.3,80.6,102.4,80.6C102.3,80.6,102.3,80.6,102.4,80.6z"/>
	</g>
	<g>
		<path class="st3" d="M102.3,80.6C102.3,80.6,102.3,80.6,102.3,80.6C102.3,80.6,102.3,80.6,102.3,80.6
			C102.2,80.6,102.2,80.6,102.3,80.6C102.2,80.6,102.2,80.6,102.3,80.6C102.3,80.6,102.3,80.6,102.3,80.6z"/>
	</g>
	<g>
		<path class="st3" d="M102.2,80.6C102.2,80.6,102.2,80.6,102.2,80.6C102.2,80.6,102.2,80.6,102.2,80.6
			C102.2,80.7,102.2,80.7,102.2,80.6z"/>
	</g>
	<g>
		<path class="st3" d="M110.1,87.6C110.1,87.6,110.1,87.6,110.1,87.6C110.1,87.6,110.1,87.6,110.1,87.6
			C110.1,87.6,110.1,87.6,110.1,87.6z"/>
	</g>
	<g>
		<path class="st3" d="M110.1,87.7C110.1,87.7,110.1,87.7,110.1,87.7C110.1,87.7,110.1,87.8,110.1,87.7
			C110.1,87.7,110.1,87.7,110.1,87.7z"/>
	</g>
	<g>
		<path class="st3" d="M110.1,88.4C110.1,88.4,110.1,88.5,110.1,88.4C110.1,88.5,110.1,88.5,110.1,88.4
			C110.1,88.5,110.1,88.5,110.1,88.4z"/>
	</g>
	<g>
		<path class="st3" d="M110.1,88.5C110.1,88.5,110.1,88.5,110.1,88.5C110.1,88.5,110.1,88.5,110.1,88.5
			C110.1,88.5,110.1,88.5,110.1,88.5z"/>
	</g>
	<g>
		<path class="st3" d="M103.2,95.5C103.2,95.4,103.1,95.5,103.2,95.5C103.1,95.5,103.1,95.5,103.2,95.5
			C103.1,95.5,103.1,95.5,103.2,95.5C103.1,95.5,103.2,95.5,103.2,95.5z"/>
	</g>
	<g>
		<path class="st3" d="M103.1,95.5C103.1,95.5,103.1,95.5,103.1,95.5C103.1,95.5,103.1,95.5,103.1,95.5
			C103.1,95.5,103,95.5,103.1,95.5C103.1,95.5,103.1,95.5,103.1,95.5C103.1,95.5,103.1,95.5,103.1,95.5z"/>
	</g>
	<g>
		<path class="st3" d="M103.1,95.5C103.1,95.5,103.1,95.5,103.1,95.5C103,95.5,103,95.5,103.1,95.5C103,95.5,103,95.5,103.1,95.5z"
			/>
	</g>
	<g>
		<path class="st3" d="M102.4,95.5C102.4,95.5,102.4,95.5,102.4,95.5C102.3,95.5,102.3,95.5,102.4,95.5
			C102.3,95.5,102.3,95.5,102.4,95.5C102.4,95.5,102.4,95.5,102.4,95.5z"/>
	</g>
	<g>
		<path class="st3" d="M102.3,95.5C102.3,95.5,102.3,95.5,102.3,95.5C102.3,95.5,102.3,95.5,102.3,95.5
			C102.3,95.5,102.3,95.5,102.3,95.5C102.3,95.5,102.3,95.5,102.3,95.5C102.3,95.5,102.3,95.5,102.3,95.5z"/>
	</g>
	<g>
		<path class="st3" d="M102.3,95.5C102.3,95.5,102.3,95.5,102.3,95.5C102.3,95.5,102.2,95.4,102.3,95.5
			C102.2,95.5,102.3,95.5,102.3,95.5z"/>
	</g>
	<g>
		<g>
			<path class="st3" d="M95.2,88.6c0,0.6,0.2,1.3,0.4,1.9c0.4,1.1,0.9,2,1.7,2.8c0.9,0.9,1.9,1.5,3,1.9c0.6,0.2,1.1,0.3,1.7,0.3
				c0,0,0,0,0,0c0,0,0.1,0,0.1,0c0,0,0,0,0.1,0c0,0,0,0,0.1,0c0,0,0,0,0.1,0c0.2,0,0.4,0,0.6,0c0,0,0,0,0.1,0c0,0,0,0,0.1,0
				c0,0,0,0,0.1,0c0,0,0.1,0,0.1,0c0.4,0,0.7-0.1,1.1-0.2c1.1-0.3,2.2-0.8,3.1-1.5c0.8-0.6,1.4-1.4,1.8-2.3c0.4-0.7,0.7-1.5,0.8-2.4
				c0-0.1,0-0.3,0-0.4c0,0,0-0.1,0-0.1c0,0,0,0,0-0.1c0,0,0,0,0-0.1c0,0,0-0.1,0-0.1c0-0.1,0-0.1,0-0.2c0-0.1,0-0.3,0-0.4
				c0,0,0,0,0-0.1c0,0,0,0,0-0.1c0,0,0,0,0-0.1c0,0,0-0.1,0-0.1c0-0.2,0-0.5-0.1-0.7c-0.2-0.9-0.5-1.8-1-2.6
				c-0.6-0.9-1.3-1.7-2.2-2.3c-0.9-0.6-2-1-3.1-1.2c-0.1,0-0.3,0-0.4,0c0,0-0.1,0-0.1,0c0,0-0.1,0-0.1,0c0,0,0,0-0.1,0
				c0,0,0,0-0.1,0c0,0,0,0-0.1,0c-0.2,0-0.3,0-0.5,0c0,0,0,0-0.1,0c0,0,0,0-0.1,0c0,0,0,0-0.1,0c0,0,0,0-0.1,0c0,0-0.1,0-0.1,0
				c-0.3,0-0.6,0-0.9,0.1c-1.3,0.3-2.4,0.8-3.4,1.6c-1.4,1.2-2.3,2.8-2.6,4.7C95.2,87.5,95.2,88.1,95.2,88.6z M96,86.6
				c0.8-3.7,4.3-6,8-5.3c3.1,0.6,5.4,3.2,5.6,6.3c0.1,2.1-0.6,3.9-2,5.4c-0.2,0.2-0.2,0.2-0.5,0.1c-0.7-0.4-1.4-0.7-2-1.1
				c-0.3-0.1-0.4-0.3-0.4-0.6c0-0.2,0-0.4,0-0.6c0-0.1,0-0.1,0.1-0.2c0.3-0.5,0.6-1,0.8-1.6c0-0.1,0-0.1,0.1-0.1
				c0.2-0.2,0.3-0.4,0.3-0.7c0-0.3,0-0.6,0-0.9c0-0.1,0-0.3-0.1-0.4c-0.2-0.2-0.1-0.4-0.1-0.7c0-0.1,0-0.3,0-0.4c0,0,0,0,0,0
				c0-0.2,0-0.4,0-0.6c0-0.9-0.4-1.6-1.3-2c-0.9-0.4-1.9-0.4-2.9-0.2c-1.1,0.3-1.7,1.2-1.7,2.3c0,0.4,0,0.8,0,1.2
				c0,0.1,0,0.1-0.1,0.2c-0.1,0.2-0.2,0.4-0.2,0.6c0,0.3,0,0.7,0,1c0,0.4,0.2,0.6,0.5,0.8c0.1,0,0.1,0.1,0.1,0.2
				c0.1,0.4,0.3,0.7,0.5,1c0.3,0.3,0.3,0.7,0.3,1.1c0,0.4-0.1,0.6-0.5,0.7c-0.8,0.4-1.5,0.8-2.3,1.1c-0.1,0.1-0.2,0.1-0.3,0
				C96.2,91.3,95.4,89.1,96,86.6z"/>
		</g>
	</g>
</g>
<g>
	<g>
		<path class="st3" d="M134.1,88.1c0,0.1,0,0.1,0,0.2C134.1,88.3,134.1,88.2,134.1,88.1z"/>
	</g>
	<g>
		<path class="st3" d="M127.1,80.6C127.2,80.6,127.2,80.7,127.1,80.6C127.2,80.6,127.1,80.6,127.1,80.6
			C127.1,80.6,127.1,80.6,127.1,80.6C127.1,80.6,127.1,80.6,127.1,80.6z"/>
	</g>
	<g>
		<path class="st3" d="M134.1,87.6C134.1,87.6,134.1,87.7,134.1,87.6C134.1,87.7,134.1,87.7,134.1,87.6
			C134.1,87.7,134.1,87.6,134.1,87.6C134.1,87.6,134.1,87.6,134.1,87.6z"/>
	</g>
	<g>
		<path class="st3" d="M127.1,80.6C127.1,80.6,127.1,80.6,127.1,80.6C127.1,80.6,127.1,80.6,127.1,80.6
			C127.1,80.6,127,80.6,127.1,80.6C127.1,80.6,127.1,80.6,127.1,80.6C127.1,80.6,127.1,80.6,127.1,80.6z"/>
	</g>
	<g>
		<path class="st3" d="M127.1,80.6C127.1,80.6,127.1,80.6,127.1,80.6C127,80.6,127,80.6,127.1,80.6C127,80.6,127,80.6,127.1,80.6
			C127,80.6,127,80.6,127.1,80.6C127,80.6,127,80.6,127.1,80.6z"/>
	</g>
	<g>
		<path class="st3" d="M127,80.6C127,80.6,127,80.6,127,80.6C127,80.6,127,80.6,127,80.6C127,80.6,127,80.7,127,80.6z"/>
	</g>
	<g>
		<path class="st3" d="M126.4,80.6C126.4,80.7,126.4,80.6,126.4,80.6C126.4,80.6,126.4,80.6,126.4,80.6
			C126.4,80.6,126.4,80.6,126.4,80.6C126.4,80.6,126.4,80.6,126.4,80.6z"/>
	</g>
	<g>
		<path class="st3" d="M126.4,80.6C126.4,80.6,126.4,80.6,126.4,80.6C126.3,80.6,126.3,80.6,126.4,80.6
			C126.3,80.6,126.3,80.6,126.4,80.6C126.3,80.6,126.3,80.6,126.4,80.6C126.3,80.6,126.3,80.6,126.4,80.6z"/>
	</g>
	<g>
		<path class="st3" d="M126.3,80.6C126.3,80.6,126.3,80.6,126.3,80.6C126.3,80.6,126.3,80.6,126.3,80.6
			C126.2,80.6,126.2,80.6,126.3,80.6C126.2,80.6,126.2,80.6,126.3,80.6C126.3,80.6,126.3,80.6,126.3,80.6z"/>
	</g>
	<g>
		<path class="st3" d="M126.2,80.6C126.2,80.6,126.2,80.6,126.2,80.6C126.2,80.6,126.2,80.6,126.2,80.6
			C126.2,80.7,126.2,80.7,126.2,80.6z"/>
	</g>
	<g>
		<path class="st3" d="M134.1,87.6C134.1,87.6,134.1,87.6,134.1,87.6C134.1,87.6,134.1,87.6,134.1,87.6
			C134.1,87.6,134.1,87.6,134.1,87.6z"/>
	</g>
	<g>
		<path class="st3" d="M134.1,87.7C134.1,87.7,134.1,87.7,134.1,87.7C134.1,87.7,134.1,87.8,134.1,87.7
			C134.1,87.7,134.1,87.7,134.1,87.7z"/>
	</g>
	<g>
		<path class="st3" d="M134.1,88.4C134.1,88.4,134.1,88.5,134.1,88.4C134.1,88.5,134.1,88.5,134.1,88.4
			C134.1,88.5,134.1,88.5,134.1,88.4z"/>
	</g>
	<g>
		<path class="st3" d="M134.1,88.5C134.1,88.5,134.1,88.5,134.1,88.5C134.1,88.5,134.1,88.5,134.1,88.5
			C134.1,88.5,134.1,88.5,134.1,88.5z"/>
	</g>
	<g>
		<path class="st3" d="M127.2,95.5C127.2,95.4,127.1,95.5,127.2,95.5C127.1,95.5,127.1,95.5,127.2,95.5
			C127.1,95.5,127.1,95.5,127.2,95.5C127.1,95.5,127.2,95.5,127.2,95.5z"/>
	</g>
	<g>
		<path class="st3" d="M127.1,95.5C127.1,95.5,127.1,95.5,127.1,95.5C127.1,95.5,127.1,95.5,127.1,95.5
			C127.1,95.5,127,95.5,127.1,95.5C127.1,95.5,127.1,95.5,127.1,95.5C127.1,95.5,127.1,95.5,127.1,95.5z"/>
	</g>
	<g>
		<path class="st3" d="M127.1,95.5C127.1,95.5,127.1,95.5,127.1,95.5C127,95.5,127,95.5,127.1,95.5C127,95.5,127,95.5,127.1,95.5z"
			/>
	</g>
	<g>
		<path class="st3" d="M126.4,95.5C126.4,95.5,126.4,95.5,126.4,95.5C126.3,95.5,126.3,95.5,126.4,95.5
			C126.3,95.5,126.3,95.5,126.4,95.5C126.4,95.5,126.4,95.5,126.4,95.5z"/>
	</g>
	<g>
		<path class="st3" d="M126.3,95.5C126.3,95.5,126.3,95.5,126.3,95.5C126.3,95.5,126.3,95.5,126.3,95.5
			C126.3,95.5,126.3,95.5,126.3,95.5C126.3,95.5,126.3,95.5,126.3,95.5C126.3,95.5,126.3,95.5,126.3,95.5z"/>
	</g>
	<g>
		<path class="st3" d="M126.3,95.5C126.3,95.5,126.3,95.5,126.3,95.5C126.3,95.5,126.2,95.4,126.3,95.5
			C126.2,95.5,126.3,95.5,126.3,95.5z"/>
	</g>
	<g>
		<g>
			<path class="st3" d="M119.2,88.6c0,0.6,0.2,1.3,0.4,1.9c0.4,1.1,0.9,2,1.7,2.8c0.9,0.9,1.9,1.5,3,1.9c0.6,0.2,1.1,0.3,1.7,0.3
				c0,0,0,0,0,0c0,0,0.1,0,0.1,0c0,0,0,0,0.1,0c0,0,0,0,0.1,0c0,0,0,0,0.1,0c0.2,0,0.4,0,0.6,0c0,0,0,0,0.1,0c0,0,0,0,0.1,0
				c0,0,0,0,0.1,0c0,0,0.1,0,0.1,0c0.4,0,0.7-0.1,1.1-0.2c1.1-0.3,2.2-0.8,3.1-1.5c0.8-0.6,1.4-1.4,1.8-2.3c0.4-0.7,0.7-1.5,0.8-2.4
				c0-0.1,0-0.3,0-0.4c0,0,0-0.1,0-0.1c0,0,0,0,0-0.1c0,0,0,0,0-0.1c0,0,0-0.1,0-0.1c0-0.1,0-0.1,0-0.2c0-0.1,0-0.3,0-0.4
				c0,0,0,0,0-0.1c0,0,0,0,0-0.1c0,0,0,0,0-0.1c0,0,0-0.1,0-0.1c0-0.2,0-0.5-0.1-0.7c-0.2-0.9-0.5-1.8-1-2.6
				c-0.6-0.9-1.3-1.7-2.2-2.3c-0.9-0.6-2-1-3.1-1.2c-0.1,0-0.3,0-0.4,0c0,0-0.1,0-0.1,0c0,0-0.1,0-0.1,0c0,0,0,0-0.1,0
				c0,0,0,0-0.1,0c0,0,0,0-0.1,0c-0.2,0-0.3,0-0.5,0c0,0,0,0-0.1,0c0,0,0,0-0.1,0c0,0,0,0-0.1,0c0,0,0,0-0.1,0c0,0-0.1,0-0.1,0
				c-0.3,0-0.6,0-0.9,0.1c-1.3,0.3-2.4,0.8-3.4,1.6c-1.4,1.2-2.3,2.8-2.6,4.7C119.2,87.5,119.2,88.1,119.2,88.6z M120,86.6
				c0.8-3.7,4.3-6,8-5.3c3.1,0.6,5.4,3.2,5.6,6.3c0.1,2.1-0.6,3.9-2,5.4c-0.2,0.2-0.2,0.2-0.5,0.1c-0.7-0.4-1.4-0.7-2-1.1
				c-0.3-0.1-0.4-0.3-0.4-0.6c0-0.2,0-0.4,0-0.6c0-0.1,0-0.1,0.1-0.2c0.3-0.5,0.6-1,0.8-1.6c0-0.1,0-0.1,0.1-0.1
				c0.2-0.2,0.3-0.4,0.3-0.7c0-0.3,0-0.6,0-0.9c0-0.1,0-0.3-0.1-0.4c-0.2-0.2-0.1-0.4-0.1-0.7c0-0.1,0-0.3,0-0.4c0,0,0,0,0,0
				c0-0.2,0-0.4,0-0.6c0-0.9-0.4-1.6-1.3-2c-0.9-0.4-1.9-0.4-2.9-0.2c-1.1,0.3-1.7,1.2-1.7,2.3c0,0.4,0,0.8,0,1.2
				c0,0.1,0,0.1-0.1,0.2c-0.1,0.2-0.2,0.4-0.2,0.6c0,0.3,0,0.7,0,1c0,0.4,0.2,0.6,0.5,0.8c0.1,0,0.1,0.1,0.1,0.2
				c0.1,0.4,0.3,0.7,0.5,1c0.3,0.3,0.3,0.7,0.3,1.1c0,0.4-0.1,0.6-0.5,0.7c-0.8,0.4-1.5,0.8-2.3,1.1c-0.1,0.1-0.2,0.1-0.3,0
				C120.2,91.3,119.4,89.1,120,86.6z"/>
		</g>
	</g>
</g>
<g>
	<g>
		<path class="st3" d="M158.1,88.1c0,0.1,0,0.1,0,0.2C158.1,88.3,158.1,88.2,158.1,88.1z"/>
	</g>
	<g>
		<path class="st3" d="M151.1,80.6C151.2,80.6,151.2,80.7,151.1,80.6C151.2,80.6,151.1,80.6,151.1,80.6
			C151.1,80.6,151.1,80.6,151.1,80.6C151.1,80.6,151.1,80.6,151.1,80.6z"/>
	</g>
	<g>
		<path class="st3" d="M158.1,87.6C158.1,87.6,158.1,87.7,158.1,87.6C158.1,87.7,158.1,87.7,158.1,87.6
			C158.1,87.7,158.1,87.6,158.1,87.6C158.1,87.6,158.1,87.6,158.1,87.6z"/>
	</g>
	<g>
		<path class="st3" d="M151.1,80.6C151.1,80.6,151.1,80.6,151.1,80.6C151.1,80.6,151.1,80.6,151.1,80.6
			C151.1,80.6,151,80.6,151.1,80.6C151.1,80.6,151.1,80.6,151.1,80.6C151.1,80.6,151.1,80.6,151.1,80.6z"/>
	</g>
	<g>
		<path class="st3" d="M151.1,80.6C151.1,80.6,151.1,80.6,151.1,80.6C151,80.6,151,80.6,151.1,80.6C151,80.6,151,80.6,151.1,80.6
			C151,80.6,151,80.6,151.1,80.6C151,80.6,151,80.6,151.1,80.6z"/>
	</g>
	<g>
		<path class="st3" d="M151,80.6C151,80.6,151,80.6,151,80.6C151,80.6,151,80.6,151,80.6C151,80.6,151,80.7,151,80.6z"/>
	</g>
	<g>
		<path class="st3" d="M150.4,80.6C150.4,80.7,150.4,80.6,150.4,80.6C150.4,80.6,150.4,80.6,150.4,80.6
			C150.4,80.6,150.4,80.6,150.4,80.6C150.4,80.6,150.4,80.6,150.4,80.6z"/>
	</g>
	<g>
		<path class="st3" d="M150.4,80.6C150.4,80.6,150.4,80.6,150.4,80.6C150.3,80.6,150.3,80.6,150.4,80.6
			C150.3,80.6,150.3,80.6,150.4,80.6C150.3,80.6,150.3,80.6,150.4,80.6C150.3,80.6,150.3,80.6,150.4,80.6z"/>
	</g>
	<g>
		<path class="st3" d="M150.3,80.6C150.3,80.6,150.3,80.6,150.3,80.6C150.3,80.6,150.3,80.6,150.3,80.6
			C150.2,80.6,150.2,80.6,150.3,80.6C150.2,80.6,150.2,80.6,150.3,80.6C150.3,80.6,150.3,80.6,150.3,80.6z"/>
	</g>
	<g>
		<path class="st3" d="M150.2,80.6C150.2,80.6,150.2,80.6,150.2,80.6C150.2,80.6,150.2,80.6,150.2,80.6
			C150.2,80.7,150.2,80.7,150.2,80.6z"/>
	</g>
	<g>
		<path class="st3" d="M158.1,87.6C158.1,87.6,158.1,87.6,158.1,87.6C158.1,87.6,158.1,87.6,158.1,87.6
			C158.1,87.6,158.1,87.6,158.1,87.6z"/>
	</g>
	<g>
		<path class="st3" d="M158.1,87.7C158.1,87.7,158.1,87.7,158.1,87.7C158.1,87.7,158.1,87.8,158.1,87.7
			C158.1,87.7,158.1,87.7,158.1,87.7z"/>
	</g>
	<g>
		<path class="st3" d="M158.1,88.4C158.1,88.4,158.1,88.5,158.1,88.4C158.1,88.5,158.1,88.5,158.1,88.4
			C158.1,88.5,158.1,88.5,158.1,88.4z"/>
	</g>
	<g>
		<path class="st3" d="M158.1,88.5C158.1,88.5,158.1,88.5,158.1,88.5C158.1,88.5,158.1,88.5,158.1,88.5
			C158.1,88.5,158.1,88.5,158.1,88.5z"/>
	</g>
	<g>
		<path class="st3" d="M151.2,95.5C151.2,95.4,151.1,95.5,151.2,95.5C151.1,95.5,151.1,95.5,151.2,95.5
			C151.1,95.5,151.1,95.5,151.2,95.5C151.1,95.5,151.2,95.5,151.2,95.5z"/>
	</g>
	<g>
		<path class="st3" d="M151.1,95.5C151.1,95.5,151.1,95.5,151.1,95.5C151.1,95.5,151.1,95.5,151.1,95.5
			C151.1,95.5,151,95.5,151.1,95.5C151.1,95.5,151.1,95.5,151.1,95.5C151.1,95.5,151.1,95.5,151.1,95.5z"/>
	</g>
	<g>
		<path class="st3" d="M151.1,95.5C151.1,95.5,151.1,95.5,151.1,95.5C151,95.5,151,95.5,151.1,95.5C151,95.5,151,95.5,151.1,95.5z"
			/>
	</g>
	<g>
		<path class="st3" d="M150.4,95.5C150.4,95.5,150.4,95.5,150.4,95.5C150.3,95.5,150.3,95.5,150.4,95.5
			C150.3,95.5,150.3,95.5,150.4,95.5C150.4,95.5,150.4,95.5,150.4,95.5z"/>
	</g>
	<g>
		<path class="st3" d="M150.3,95.5C150.3,95.5,150.3,95.5,150.3,95.5C150.3,95.5,150.3,95.5,150.3,95.5
			C150.3,95.5,150.3,95.5,150.3,95.5C150.3,95.5,150.3,95.5,150.3,95.5C150.3,95.5,150.3,95.5,150.3,95.5z"/>
	</g>
	<g>
		<path class="st3" d="M150.3,95.5C150.3,95.5,150.3,95.5,150.3,95.5C150.3,95.5,150.2,95.4,150.3,95.5
			C150.2,95.5,150.3,95.5,150.3,95.5z"/>
	</g>
	<g>
		<g>
			<path class="st3" d="M143.2,88.6c0,0.6,0.2,1.3,0.4,1.9c0.4,1.1,0.9,2,1.7,2.8c0.9,0.9,1.9,1.5,3,1.9c0.6,0.2,1.1,0.3,1.7,0.3
				c0,0,0,0,0,0c0,0,0.1,0,0.1,0c0,0,0,0,0.1,0c0,0,0,0,0.1,0c0,0,0,0,0.1,0c0.2,0,0.4,0,0.6,0c0,0,0,0,0.1,0c0,0,0,0,0.1,0
				c0,0,0,0,0.1,0c0,0,0.1,0,0.1,0c0.4,0,0.7-0.1,1.1-0.2c1.1-0.3,2.2-0.8,3.1-1.5c0.8-0.6,1.4-1.4,1.8-2.3c0.4-0.7,0.7-1.5,0.8-2.4
				c0-0.1,0-0.3,0-0.4c0,0,0-0.1,0-0.1c0,0,0,0,0-0.1c0,0,0,0,0-0.1c0,0,0-0.1,0-0.1c0-0.1,0-0.1,0-0.2c0-0.1,0-0.3,0-0.4
				c0,0,0,0,0-0.1c0,0,0,0,0-0.1c0,0,0,0,0-0.1c0,0,0-0.1,0-0.1c0-0.2,0-0.5-0.1-0.7c-0.2-0.9-0.5-1.8-1-2.6
				c-0.6-0.9-1.3-1.7-2.2-2.3c-0.9-0.6-2-1-3.1-1.2c-0.1,0-0.3,0-0.4,0c0,0-0.1,0-0.1,0c0,0-0.1,0-0.1,0c0,0,0,0-0.1,0
				c0,0,0,0-0.1,0c0,0,0,0-0.1,0c-0.2,0-0.3,0-0.5,0c0,0,0,0-0.1,0c0,0,0,0-0.1,0c0,0,0,0-0.1,0c0,0,0,0-0.1,0c0,0-0.1,0-0.1,0
				c-0.3,0-0.6,0-0.9,0.1c-1.3,0.3-2.4,0.8-3.4,1.6c-1.4,1.2-2.3,2.8-2.6,4.7C143.2,87.5,143.2,88.1,143.2,88.6z M144,86.6
				c0.8-3.7,4.3-6,8-5.3c3.1,0.6,5.4,3.2,5.6,6.3c0.1,2.1-0.6,3.9-2,5.4c-0.2,0.2-0.2,0.2-0.5,0.1c-0.7-0.4-1.4-0.7-2-1.1
				c-0.3-0.1-0.4-0.3-0.4-0.6c0-0.2,0-0.4,0-0.6c0-0.1,0-0.1,0.1-0.2c0.3-0.5,0.6-1,0.8-1.6c0-0.1,0-0.1,0.1-0.1
				c0.2-0.2,0.3-0.4,0.3-0.7c0-0.3,0-0.6,0-0.9c0-0.1,0-0.3-0.1-0.4c-0.2-0.2-0.1-0.4-0.1-0.7c0-0.1,0-0.3,0-0.4c0,0,0,0,0,0
				c0-0.2,0-0.4,0-0.6c0-0.9-0.4-1.6-1.3-2c-0.9-0.4-1.9-0.4-2.9-0.2c-1.1,0.3-1.7,1.2-1.7,2.3c0,0.4,0,0.8,0,1.2
				c0,0.1,0,0.1-0.1,0.2c-0.1,0.2-0.2,0.4-0.2,0.6c0,0.3,0,0.7,0,1c0,0.4,0.2,0.6,0.5,0.8c0.1,0,0.1,0.1,0.1,0.2
				c0.1,0.4,0.3,0.7,0.5,1c0.3,0.3,0.3,0.7,0.3,1.1c0,0.4-0.1,0.6-0.5,0.7c-0.8,0.4-1.5,0.8-2.3,1.1c-0.1,0.1-0.2,0.1-0.3,0
				C144.2,91.3,143.4,89.1,144,86.6z"/>
		</g>
	</g>
</g>
<g>
	<g>
		<path class="st3" d="M182.1,88.1c0,0.1,0,0.1,0,0.2C182.1,88.3,182.1,88.2,182.1,88.1z"/>
	</g>
	<g>
		<path class="st3" d="M175.1,80.6C175.2,80.6,175.2,80.7,175.1,80.6C175.2,80.6,175.1,80.6,175.1,80.6
			C175.1,80.6,175.1,80.6,175.1,80.6C175.1,80.6,175.1,80.6,175.1,80.6z"/>
	</g>
	<g>
		<path class="st3" d="M182.1,87.6C182.1,87.6,182.1,87.7,182.1,87.6C182.1,87.7,182.1,87.7,182.1,87.6
			C182.1,87.7,182.1,87.6,182.1,87.6C182.1,87.6,182.1,87.6,182.1,87.6z"/>
	</g>
	<g>
		<path class="st3" d="M175.1,80.6C175.1,80.6,175.1,80.6,175.1,80.6C175.1,80.6,175.1,80.6,175.1,80.6
			C175.1,80.6,175,80.6,175.1,80.6C175.1,80.6,175.1,80.6,175.1,80.6C175.1,80.6,175.1,80.6,175.1,80.6z"/>
	</g>
	<g>
		<path class="st3" d="M175.1,80.6C175.1,80.6,175.1,80.6,175.1,80.6C175,80.6,175,80.6,175.1,80.6C175,80.6,175,80.6,175.1,80.6
			C175,80.6,175,80.6,175.1,80.6C175,80.6,175,80.6,175.1,80.6z"/>
	</g>
	<g>
		<path class="st3" d="M175,80.6C175,80.6,175,80.6,175,80.6C175,80.6,175,80.6,175,80.6C175,80.6,175,80.7,175,80.6z"/>
	</g>
	<g>
		<path class="st3" d="M174.4,80.6C174.4,80.7,174.4,80.6,174.4,80.6C174.4,80.6,174.4,80.6,174.4,80.6
			C174.4,80.6,174.4,80.6,174.4,80.6C174.4,80.6,174.4,80.6,174.4,80.6z"/>
	</g>
	<g>
		<path class="st3" d="M174.4,80.6C174.4,80.6,174.4,80.6,174.4,80.6C174.3,80.6,174.3,80.6,174.4,80.6
			C174.3,80.6,174.3,80.6,174.4,80.6C174.3,80.6,174.3,80.6,174.4,80.6C174.3,80.6,174.3,80.6,174.4,80.6z"/>
	</g>
	<g>
		<path class="st3" d="M174.3,80.6C174.3,80.6,174.3,80.6,174.3,80.6C174.3,80.6,174.3,80.6,174.3,80.6
			C174.2,80.6,174.2,80.6,174.3,80.6C174.2,80.6,174.2,80.6,174.3,80.6C174.3,80.6,174.3,80.6,174.3,80.6z"/>
	</g>
	<g>
		<path class="st3" d="M174.2,80.6C174.2,80.6,174.2,80.6,174.2,80.6C174.2,80.6,174.2,80.6,174.2,80.6
			C174.2,80.7,174.2,80.7,174.2,80.6z"/>
	</g>
	<g>
		<path class="st3" d="M182.1,87.6C182.1,87.6,182.1,87.6,182.1,87.6C182.1,87.6,182.1,87.6,182.1,87.6
			C182.1,87.6,182.1,87.6,182.1,87.6z"/>
	</g>
	<g>
		<path class="st3" d="M182.1,87.7C182.1,87.7,182.1,87.7,182.1,87.7C182.1,87.7,182.1,87.8,182.1,87.7
			C182.1,87.7,182.1,87.7,182.1,87.7z"/>
	</g>
	<g>
		<path class="st3" d="M182.1,88.4C182.1,88.4,182.1,88.5,182.1,88.4C182.1,88.5,182.1,88.5,182.1,88.4
			C182.1,88.5,182.1,88.5,182.1,88.4z"/>
	</g>
	<g>
		<path class="st3" d="M182.1,88.5C182.1,88.5,182.1,88.5,182.1,88.5C182.1,88.5,182.1,88.5,182.1,88.5
			C182.1,88.5,182.1,88.5,182.1,88.5z"/>
	</g>
	<g>
		<path class="st3" d="M175.2,95.5C175.2,95.4,175.1,95.5,175.2,95.5C175.1,95.5,175.1,95.5,175.2,95.5
			C175.1,95.5,175.1,95.5,175.2,95.5C175.1,95.5,175.2,95.5,175.2,95.5z"/>
	</g>
	<g>
		<path class="st3" d="M175.1,95.5C175.1,95.5,175.1,95.5,175.1,95.5C175.1,95.5,175.1,95.5,175.1,95.5
			C175.1,95.5,175,95.5,175.1,95.5C175.1,95.5,175.1,95.5,175.1,95.5C175.1,95.5,175.1,95.5,175.1,95.5z"/>
	</g>
	<g>
		<path class="st3" d="M175.1,95.5C175.1,95.5,175.1,95.5,175.1,95.5C175,95.5,175,95.5,175.1,95.5C175,95.5,175,95.5,175.1,95.5z"
			/>
	</g>
	<g>
		<path class="st3" d="M174.4,95.5C174.4,95.5,174.4,95.5,174.4,95.5C174.3,95.5,174.3,95.5,174.4,95.5
			C174.3,95.5,174.3,95.5,174.4,95.5C174.4,95.5,174.4,95.5,174.4,95.5z"/>
	</g>
	<g>
		<path class="st3" d="M174.3,95.5C174.3,95.5,174.3,95.5,174.3,95.5C174.3,95.5,174.3,95.5,174.3,95.5
			C174.3,95.5,174.3,95.5,174.3,95.5C174.3,95.5,174.3,95.5,174.3,95.5C174.3,95.5,174.3,95.5,174.3,95.5z"/>
	</g>
	<g>
		<path class="st3" d="M174.3,95.5C174.3,95.5,174.3,95.5,174.3,95.5C174.3,95.5,174.2,95.4,174.3,95.5
			C174.2,95.5,174.3,95.5,174.3,95.5z"/>
	</g>
	<g>
		<g>
			<path class="st3" d="M167.2,88.6c0,0.6,0.2,1.3,0.4,1.9c0.4,1.1,0.9,2,1.7,2.8c0.9,0.9,1.9,1.5,3,1.9c0.6,0.2,1.1,0.3,1.7,0.3
				c0,0,0,0,0,0c0,0,0.1,0,0.1,0c0,0,0,0,0.1,0c0,0,0,0,0.1,0c0,0,0,0,0.1,0c0.2,0,0.4,0,0.6,0c0,0,0,0,0.1,0c0,0,0,0,0.1,0
				c0,0,0,0,0.1,0c0,0,0.1,0,0.1,0c0.4,0,0.7-0.1,1.1-0.2c1.1-0.3,2.2-0.8,3.1-1.5c0.8-0.6,1.4-1.4,1.8-2.3c0.4-0.7,0.7-1.5,0.8-2.4
				c0-0.1,0-0.3,0-0.4c0,0,0-0.1,0-0.1c0,0,0,0,0-0.1c0,0,0,0,0-0.1c0,0,0-0.1,0-0.1c0-0.1,0-0.1,0-0.2c0-0.1,0-0.3,0-0.4
				c0,0,0,0,0-0.1c0,0,0,0,0-0.1c0,0,0,0,0-0.1c0,0,0-0.1,0-0.1c0-0.2,0-0.5-0.1-0.7c-0.2-0.9-0.5-1.8-1-2.6
				c-0.6-0.9-1.3-1.7-2.2-2.3c-0.9-0.6-2-1-3.1-1.2c-0.1,0-0.3,0-0.4,0c0,0-0.1,0-0.1,0c0,0-0.1,0-0.1,0c0,0,0,0-0.1,0
				c0,0,0,0-0.1,0c0,0,0,0-0.1,0c-0.2,0-0.3,0-0.5,0c0,0,0,0-0.1,0c0,0,0,0-0.1,0c0,0,0,0-0.1,0c0,0,0,0-0.1,0c0,0-0.1,0-0.1,0
				c-0.3,0-0.6,0-0.9,0.1c-1.3,0.3-2.4,0.8-3.4,1.6c-1.4,1.2-2.3,2.8-2.6,4.7C167.2,87.5,167.2,88.1,167.2,88.6z M168,86.6
				c0.8-3.7,4.3-6,8-5.3c3.1,0.6,5.4,3.2,5.6,6.3c0.1,2.1-0.6,3.9-2,5.4c-0.2,0.2-0.2,0.2-0.5,0.1c-0.7-0.4-1.4-0.7-2-1.1
				c-0.3-0.1-0.4-0.3-0.4-0.6c0-0.2,0-0.4,0-0.6c0-0.1,0-0.1,0.1-0.2c0.3-0.5,0.6-1,0.8-1.6c0-0.1,0-0.1,0.1-0.1
				c0.2-0.2,0.3-0.4,0.3-0.7c0-0.3,0-0.6,0-0.9c0-0.1,0-0.3-0.1-0.4c-0.2-0.2-0.1-0.4-0.1-0.7c0-0.1,0-0.3,0-0.4c0,0,0,0,0,0
				c0-0.2,0-0.4,0-0.6c0-0.9-0.4-1.6-1.3-2c-0.9-0.4-1.9-0.4-2.9-0.2c-1.1,0.3-1.7,1.2-1.7,2.3c0,0.4,0,0.8,0,1.2
				c0,0.1,0,0.1-0.1,0.2c-0.1,0.2-0.2,0.4-0.2,0.6c0,0.3,0,0.7,0,1c0,0.4,0.2,0.6,0.5,0.8c0.1,0,0.1,0.1,0.1,0.2
				c0.1,0.4,0.3,0.7,0.5,1c0.3,0.3,0.3,0.7,0.3,1.1c0,0.4-0.1,0.6-0.5,0.7c-0.8,0.4-1.5,0.8-2.3,1.1c-0.1,0.1-0.2,0.1-0.3,0
				C168.2,91.3,167.4,89.1,168,86.6z"/>
		</g>
	</g>
</g>
<g>
	<g>
		<path class="st3" d="M206.1,88.1c0,0.1,0,0.1,0,0.2C206.1,88.3,206.1,88.2,206.1,88.1z"/>
	</g>
	<g>
		<path class="st3" d="M199.1,80.6C199.2,80.6,199.2,80.7,199.1,80.6C199.2,80.6,199.1,80.6,199.1,80.6
			C199.1,80.6,199.1,80.6,199.1,80.6C199.1,80.6,199.1,80.6,199.1,80.6z"/>
	</g>
	<g>
		<path class="st3" d="M206.1,87.6C206.1,87.6,206.1,87.7,206.1,87.6C206.1,87.7,206.1,87.7,206.1,87.6
			C206.1,87.7,206.1,87.6,206.1,87.6C206.1,87.6,206.1,87.6,206.1,87.6z"/>
	</g>
	<g>
		<path class="st3" d="M199.1,80.6C199.1,80.6,199.1,80.6,199.1,80.6C199.1,80.6,199.1,80.6,199.1,80.6
			C199.1,80.6,199,80.6,199.1,80.6C199.1,80.6,199.1,80.6,199.1,80.6C199.1,80.6,199.1,80.6,199.1,80.6z"/>
	</g>
	<g>
		<path class="st3" d="M199.1,80.6C199.1,80.6,199.1,80.6,199.1,80.6C199,80.6,199,80.6,199.1,80.6C199,80.6,199,80.6,199.1,80.6
			C199,80.6,199,80.6,199.1,80.6C199,80.6,199,80.6,199.1,80.6z"/>
	</g>
	<g>
		<path class="st3" d="M199,80.6C199,80.6,199,80.6,199,80.6C199,80.6,199,80.6,199,80.6C199,80.6,199,80.7,199,80.6z"/>
	</g>
	<g>
		<path class="st3" d="M198.4,80.6C198.4,80.7,198.4,80.6,198.4,80.6C198.4,80.6,198.4,80.6,198.4,80.6
			C198.4,80.6,198.4,80.6,198.4,80.6C198.4,80.6,198.4,80.6,198.4,80.6z"/>
	</g>
	<g>
		<path class="st3" d="M198.4,80.6C198.4,80.6,198.4,80.6,198.4,80.6C198.3,80.6,198.3,80.6,198.4,80.6
			C198.3,80.6,198.3,80.6,198.4,80.6C198.3,80.6,198.3,80.6,198.4,80.6C198.3,80.6,198.3,80.6,198.4,80.6z"/>
	</g>
	<g>
		<path class="st3" d="M198.3,80.6C198.3,80.6,198.3,80.6,198.3,80.6C198.3,80.6,198.3,80.6,198.3,80.6
			C198.2,80.6,198.2,80.6,198.3,80.6C198.2,80.6,198.2,80.6,198.3,80.6C198.3,80.6,198.3,80.6,198.3,80.6z"/>
	</g>
	<g>
		<path class="st3" d="M198.2,80.6C198.2,80.6,198.2,80.6,198.2,80.6C198.2,80.6,198.2,80.6,198.2,80.6
			C198.2,80.7,198.2,80.7,198.2,80.6z"/>
	</g>
	<g>
		<path class="st3" d="M206.1,87.6C206.1,87.6,206.1,87.6,206.1,87.6C206.1,87.6,206.1,87.6,206.1,87.6
			C206.1,87.6,206.1,87.6,206.1,87.6z"/>
	</g>
	<g>
		<path class="st3" d="M206.1,87.7C206.1,87.7,206.1,87.7,206.1,87.7C206.1,87.7,206.1,87.8,206.1,87.7
			C206.1,87.7,206.1,87.7,206.1,87.7z"/>
	</g>
	<g>
		<path class="st3" d="M206.1,88.4C206.1,88.4,206.1,88.5,206.1,88.4C206.1,88.5,206.1,88.5,206.1,88.4
			C206.1,88.5,206.1,88.5,206.1,88.4z"/>
	</g>
	<g>
		<path class="st3" d="M206.1,88.5C206.1,88.5,206.1,88.5,206.1,88.5C206.1,88.5,206.1,88.5,206.1,88.5
			C206.1,88.5,206.1,88.5,206.1,88.5z"/>
	</g>
	<g>
		<path class="st3" d="M199.2,95.5C199.2,95.4,199.1,95.5,199.2,95.5C199.1,95.5,199.1,95.5,199.2,95.5
			C199.1,95.5,199.1,95.5,199.2,95.5C199.1,95.5,199.2,95.5,199.2,95.5z"/>
	</g>
	<g>
		<path class="st3" d="M199.1,95.5C199.1,95.5,199.1,95.5,199.1,95.5C199.1,95.5,199.1,95.5,199.1,95.5
			C199.1,95.5,199,95.5,199.1,95.5C199.1,95.5,199.1,95.5,199.1,95.5C199.1,95.5,199.1,95.5,199.1,95.5z"/>
	</g>
	<g>
		<path class="st3" d="M199.1,95.5C199.1,95.5,199.1,95.5,199.1,95.5C199,95.5,199,95.5,199.1,95.5C199,95.5,199,95.5,199.1,95.5z"
			/>
	</g>
	<g>
		<path class="st3" d="M198.4,95.5C198.4,95.5,198.4,95.5,198.4,95.5C198.3,95.5,198.3,95.5,198.4,95.5
			C198.3,95.5,198.3,95.5,198.4,95.5C198.4,95.5,198.4,95.5,198.4,95.5z"/>
	</g>
	<g>
		<path class="st3" d="M198.3,95.5C198.3,95.5,198.3,95.5,198.3,95.5C198.3,95.5,198.3,95.5,198.3,95.5
			C198.3,95.5,198.3,95.5,198.3,95.5C198.3,95.5,198.3,95.5,198.3,95.5C198.3,95.5,198.3,95.5,198.3,95.5z"/>
	</g>
	<g>
		<path class="st3" d="M198.3,95.5C198.3,95.5,198.3,95.5,198.3,95.5C198.3,95.5,198.2,95.4,198.3,95.5
			C198.2,95.5,198.3,95.5,198.3,95.5z"/>
	</g>
	<g>
		<g>
			<path class="st3" d="M191.2,88.6c0,0.6,0.2,1.3,0.4,1.9c0.4,1.1,0.9,2,1.7,2.8c0.9,0.9,1.9,1.5,3,1.9c0.6,0.2,1.1,0.3,1.7,0.3
				c0,0,0,0,0,0c0,0,0.1,0,0.1,0c0,0,0,0,0.1,0c0,0,0,0,0.1,0c0,0,0,0,0.1,0c0.2,0,0.4,0,0.6,0c0,0,0,0,0.1,0c0,0,0,0,0.1,0
				c0,0,0,0,0.1,0c0,0,0.1,0,0.1,0c0.4,0,0.7-0.1,1.1-0.2c1.1-0.3,2.2-0.8,3.1-1.5c0.8-0.6,1.4-1.4,1.8-2.3c0.4-0.7,0.7-1.5,0.8-2.4
				c0-0.1,0-0.3,0-0.4c0,0,0-0.1,0-0.1c0,0,0,0,0-0.1c0,0,0,0,0-0.1c0,0,0-0.1,0-0.1c0-0.1,0-0.1,0-0.2c0-0.1,0-0.3,0-0.4
				c0,0,0,0,0-0.1c0,0,0,0,0-0.1c0,0,0,0,0-0.1c0,0,0-0.1,0-0.1c0-0.2,0-0.5-0.1-0.7c-0.2-0.9-0.5-1.8-1-2.6
				c-0.6-0.9-1.3-1.7-2.2-2.3c-0.9-0.6-2-1-3.1-1.2c-0.1,0-0.3,0-0.4,0c0,0-0.1,0-0.1,0c0,0-0.1,0-0.1,0c0,0,0,0-0.1,0
				c0,0,0,0-0.1,0c0,0,0,0-0.1,0c-0.2,0-0.3,0-0.5,0c0,0,0,0-0.1,0c0,0,0,0-0.1,0c0,0,0,0-0.1,0c0,0,0,0-0.1,0c0,0-0.1,0-0.1,0
				c-0.3,0-0.6,0-0.9,0.1c-1.3,0.3-2.4,0.8-3.4,1.6c-1.4,1.2-2.3,2.8-2.6,4.7C191.2,87.5,191.2,88.1,191.2,88.6z M192,86.6
				c0.8-3.7,4.3-6,8-5.3c3.1,0.6,5.4,3.2,5.6,6.3c0.1,2.1-0.6,3.9-2,5.4c-0.2,0.2-0.2,0.2-0.5,0.1c-0.7-0.4-1.4-0.7-2-1.1
				c-0.3-0.1-0.4-0.3-0.4-0.6c0-0.2,0-0.4,0-0.6c0-0.1,0-0.1,0.1-0.2c0.3-0.5,0.6-1,0.8-1.6c0-0.1,0-0.1,0.1-0.1
				c0.2-0.2,0.3-0.4,0.3-0.7c0-0.3,0-0.6,0-0.9c0-0.1,0-0.3-0.1-0.4c-0.2-0.2-0.1-0.4-0.1-0.7c0-0.1,0-0.3,0-0.4c0,0,0,0,0,0
				c0-0.2,0-0.4,0-0.6c0-0.9-0.4-1.6-1.3-2c-0.9-0.4-1.9-0.4-2.9-0.2c-1.1,0.3-1.7,1.2-1.7,2.3c0,0.4,0,0.8,0,1.2
				c0,0.1,0,0.1-0.1,0.2c-0.1,0.2-0.2,0.4-0.2,0.6c0,0.3,0,0.7,0,1c0,0.4,0.2,0.6,0.5,0.8c0.1,0,0.1,0.1,0.1,0.2
				c0.1,0.4,0.3,0.7,0.5,1c0.3,0.3,0.3,0.7,0.3,1.1c0,0.4-0.1,0.6-0.5,0.7c-0.8,0.4-1.5,0.8-2.3,1.1c-0.1,0.1-0.2,0.1-0.3,0
				C192.2,91.3,191.4,89.1,192,86.6z"/>
		</g>
	</g>
</g>
<g>
	<path class="st2" d="M199,49.6h-60c-1.1,0-2-0.9-2-2s0.9-2,2-2h60c1.1,0,2,0.9,2,2S200.1,49.6,199,49.6z"/>
</g>
<g>
	<path class="st2" d="M368,52.6h-60c-1.1,0-2-0.4-2-1s0.9-1,2-1h60c1.1,0,2,0.4,2,1S369.1,52.6,368,52.6z"/>
</g>
<g>
	<path class="st3" d="M338.9,58.6h-31.9c-0.6,0-1.1-0.4-1.1-1s0.5-1,1.1-1h31.9c0.6,0,1.1,0.4,1.1,1S339.5,58.6,338.9,58.6z"/>
</g>
<g>
	<path class="st2" d="M348.6,72.6h-41.3c-0.8,0-1.4-0.4-1.4-1s0.6-1,1.4-1h41.3c0.8,0,1.4,0.4,1.4,1S349.4,72.6,348.6,72.6z"/>
</g>
<g>
	<path class="st3" d="M345.7,78.6h-38.4c-0.7,0-1.3-0.4-1.3-1s0.6-1,1.3-1h38.4c0.7,0,1.3,0.4,1.3,1S346.4,78.6,345.7,78.6z"/>
</g>
<g>
	<path class="st2" d="M361.2,92.6h-53.4c-1,0-1.8-0.4-1.8-1s0.8-1,1.8-1h53.4c1,0,1.8,0.4,1.8,1S362.2,92.6,361.2,92.6z"/>
</g>
<g>
	<path class="st3" d="M325.4,98.6h-18.8c-0.3,0-0.6-0.4-0.6-1s0.3-1,0.6-1h18.8c0.3,0,0.6,0.4,0.6,1S325.7,98.6,325.4,98.6z"/>
</g>
<g>
	<path class="st2" d="M171.9,62.6h-33.8c-0.6,0-1.1-0.9-1.1-2s0.5-2,1.1-2h33.8c0.6,0,1.1,0.9,1.1,2S172.5,62.6,171.9,62.6z"/>
</g>
<g>
	<path class="st2" d="M260.3,74.6v-32c-11,0.1-20.7,5.6-26.6,14.1L260.3,74.6L260.3,74.6z"/>
	<path class="st3" d="M263.2,47.6v33l-0.8-0.8L236,62c-3.5,5.2-5.5,11.4-5.5,18.1c0,17.9,14.6,32.5,32.5,32.5s32.5-14.6,32.5-32.5
		C295.5,62.2,281.1,47.7,263.2,47.6z"/>
	<path class="st0" d="M260.7,75.6v-33c-0.1,0-0.1,0-0.2,0s-0.1,0-0.2,0v32l-0.1-0.1l-26.5-17.8c-0.1,0.1-0.2,0.2-0.2,0.3l26.4,17.8
		L260.7,75.6z"/>
</g>
<rect x="107" y="134.7" class="st3" width="97" height="81.9"/>
<circle class="st0" cx="108.6" cy="215" r="1.6"/>
<g>
	<g>
		<line class="st4" x1="114.2" y1="134.7" x2="114.2" y2="216.6"/>
		<line class="st4" x1="120.5" y1="134.7" x2="120.5" y2="216.6"/>
		<line class="st4" x1="126.9" y1="134.7" x2="126.9" y2="216.6"/>
		<line class="st4" x1="133.2" y1="134.7" x2="133.2" y2="216.6"/>
		<line class="st4" x1="139.6" y1="134.7" x2="139.6" y2="216.6"/>
		<line class="st4" x1="146" y1="134.7" x2="146" y2="216.6"/>
		<line class="st4" x1="152.3" y1="134.7" x2="152.3" y2="216.6"/>
		<line class="st4" x1="158.7" y1="134.7" x2="158.7" y2="216.6"/>
		<line class="st4" x1="165" y1="134.7" x2="165" y2="216.6"/>
		<line class="st4" x1="171.4" y1="134.7" x2="171.4" y2="216.6"/>
		<line class="st4" x1="177.8" y1="134.7" x2="177.8" y2="216.6"/>
		<line class="st4" x1="184.1" y1="134.7" x2="184.1" y2="216.6"/>
		<line class="st4" x1="190.5" y1="134.7" x2="190.5" y2="216.6"/>
		<line class="st4" x1="196.8" y1="134.7" x2="196.8" y2="216.6"/>
	</g>
	<g>
		<line class="st4" x1="204" y1="141.1" x2="107" y2="141.1"/>
		<line class="st4" x1="204" y1="147.5" x2="107" y2="147.5"/>
		<line class="st4" x1="204" y1="153.8" x2="107" y2="153.8"/>
		<line class="st4" x1="204" y1="160.2" x2="107" y2="160.2"/>
		<line class="st4" x1="204" y1="166.5" x2="107" y2="166.5"/>
		<line class="st4" x1="204" y1="172.9" x2="107" y2="172.9"/>
		<line class="st4" x1="204" y1="179.3" x2="107" y2="179.3"/>
		<line class="st4" x1="204" y1="185.6" x2="107" y2="185.6"/>
		<line class="st4" x1="204" y1="192" x2="107" y2="192"/>
		<line class="st4" x1="204" y1="198.3" x2="107" y2="198.3"/>
		<line class="st4" x1="204" y1="204.7" x2="107" y2="204.7"/>
		<line class="st4" x1="204" y1="211.1" x2="107" y2="211.1"/>
	</g>
</g>
<polyline class="st5" points="108.3,215.5 125.3,190.4 139.2,198.7 151.9,174.8 174.1,158.9 "/>
<g>
	<g>
		<g>
			<polygon class="st6" points="210.5,181.1 216.2,175.4 210.5,169.7 211.6,168.6 218.4,175.4 211.6,182.2 			"/>
		</g>
	</g>
</g>
<g>
	<g>
		<g>
			<polygon class="st6" points="98.4,181.1 92.7,175.4 98.4,169.7 97.3,168.6 90.5,175.4 97.3,182.2 			"/>
		</g>
	</g>
</g>
<rect x="231" y="134.6" class="st7" width="167" height="96"/>
<rect x="389" y="134.6" class="st8" width="9" height="96"/>
<g>
	<g>
		<polygon class="st9" points="393.6,138.4 391.3,140.6 395.8,140.6 		"/>
	</g>
</g>
<g>
	<g>
		<polygon class="st9" points="393.6,226.8 395.8,224.6 391.3,224.6 		"/>
	</g>
</g>
<rect x="231" y="134.6" class="st1" width="158" height="11"/>
<rect x="231" y="157.6" class="st1" width="158" height="11"/>
<rect x="231" y="180.6" class="st1" width="158" height="11"/>
<rect x="231" y="203.6" class="st1" width="158" height="11"/>
<rect x="231" y="226.6" class="st1" width="158" height="5"/>
</svg>
