<?xml version="1.0" encoding="utf-8"?>
<!-- Generator: Adobe Illustrator 22.1.0, SVG Export Plug-In . SVG Version: 6.00 Build 0)  -->
<svg version="1.1" id="Layer_1" xmlns="http://www.w3.org/2000/svg" xmlns:xlink="http://www.w3.org/1999/xlink" x="0px" y="0px"
	 viewBox="0 0 313 313" style="enable-background:new 0 0 313 313;" xml:space="preserve">
<style type="text/css">
	.st0{fill:#677EDD;}
</style>
<g>
	<g>
		<path class="st0" d="M57,263c-11.4,0-20.5-9.2-20.5-20.5v-173C36.6,58.2,45.8,49,57,49h136.7c11.4,0,20.5,9.2,20.5,20.5v110.6
			c0,9.3,7.6,16.9,16.9,16.9h0.4c9.3,0,16.9-7.6,16.9-16.9V69.5c0-30.2-24.4-54.7-54.7-54.7H57c-30.2,0-54.7,24.4-54.7,54.7v172.9
			c0,30.3,24.4,54.7,54.7,54.7h78.8c9.3,0,16.9-7.6,16.9-16.9v-0.4c0-9.3-7.6-16.9-16.9-16.9L57,263L57,263z"/>
		<path class="st0" d="M176.6,94.5H74.2c-9.5,0-17,7.7-17,17s7.7,17,17,17h102.5c9.5,0,17-7.7,17-17S186.1,94.5,176.6,94.5z"/>
		<path class="st0" d="M176.6,149.1H74.2c-9.5,0-17,7.7-17,17c0,9.5,7.7,17,17,17h102.5c9.5,0,17-7.7,17-17
			C193.8,156.8,186.1,149.1,176.6,149.1z"/>
		<path class="st0" d="M122,203.8H74.2c-9.5,0-17,7.7-17,17c0,9.5,7.7,17,17,17h47.9c9.5,0,17-7.7,17-17
			C139,211.5,131.4,203.8,122,203.8z"/>
	</g>
	<path class="st0" d="M216,295.2c-0.8-0.1-1.2-0.8-1.7-1.3c-5.9-5.8-11.6-11.6-17.5-17.4c-10.5-10.5-20.9-21-31.5-31.5
		c-1.3-1.3-1.3-2,0-3.2c4.8-4.7,9.6-9.4,14.2-14.2c1.4-1.4,2-1.2,3.2,0.1c10.4,10.5,20.9,20.8,31.3,31.4c1.4,1.4,2.1,1.5,3.5,0
		c24.7-24.9,49.6-49.6,74.3-74.5c1.5-1.5,2.3-1.8,3.9-0.1c4.5,4.8,9.3,9.5,14,14.1c1.2,1.1,1.2,1.7,0,2.9
		c-30.9,30.8-61.8,61.8-92.7,92.6C216.8,294.4,216.4,294.8,216,295.2z"/>
</g>
</svg>
