<?xml version="1.0" encoding="utf-8"?>
<!-- Generator: Adobe Illustrator 22.1.0, SVG Export Plug-In . SVG Version: 6.00 Build 0)  -->
<svg version="1.1" id="Layer_1" xmlns="http://www.w3.org/2000/svg" xmlns:xlink="http://www.w3.org/1999/xlink" x="0px" y="0px"
	 viewBox="0 0 1054.5 304.8" style="enable-background:new 0 0 1054.5 304.8;" xml:space="preserve">
<style type="text/css">
	.st0{fill:#42413B;}
	.st1{fill:#00B2D9;}
	.st2{fill:#A17F45;}
	.st3{fill:#FFFFFF;}
	.st4{fill:#EDECEA;}
</style>
<path class="st0" d="M97.1,273.6l-39-94.2l-2.7-6.5v130.4h-52C6.6,226.9,9.8,150.6,13,73.7h51.4c25.5,66.2,51,132.8,76.8,199.9H97.1
	z M185.5,303.2V173l-2.9,7l-14.1,33.5l-0.1,0.3L156.9,241c-7.2-19-14.8-38.8-21.2-56.4c-0.3-0.7-0.5-1.4-0.8-2.1l0.4-1l40.4-107.5
	h52.1c3.2,76.4,6.4,152.4,9.7,229.2H185.5z"/>
<path class="st1" d="M141.3,273.6H97.1l-39-94.2l-2.7-6.5v130.4h-52C6.6,226.9,9.8,150.6,13,73.7h51.4
	C89.9,139.9,115.5,206.4,141.3,273.6z"/>
<path class="st2" d="M185.5,303.2V173l-2.9,7l-14.1,33.5l-0.1,0.3L156.9,241c-7.2-19-14.8-38.8-21.2-56.4c-0.3-0.7-0.5-1.4-0.8-2.1
	l0.4-1l40.4-107.5h52.1c3.2,76.4,6.4,152.4,9.7,229.2H185.5z"/>
<path class="st3" d="M661.7,303.3c-12-17.3-39.7-57.4-51.7-74.7c-2.3-3.3-2.9-5.9,1.4-7.7c20.8-8.7,26.3-28.5,28.7-46.9
	c2.4-18.6,2.2-37.9-2.7-57.2c-6.5-25.4-24.9-41.3-48.9-41.8c-33.8-0.7-67.6,0.2-101.4-0.4c-8-0.1-8.6,2.6-8.6,9.2
	c0.2,58.1,0.1,116.3,0.2,174.4c0,11.9-0.4,33-0.2,44.9c16.1,0.2,32.8,0.1,48.9,0c0-19.5,0.1-48.3-0.2-67.8c-0.1-5.6,2-6.5,7-6.5
	c5.1,0,18.5-0.5,23-0.1l35.7,59.2c1.3,1.8,8.3,13.3,9.5,15.1 M527.3,123.5c-0.1-2.8,1.3-4.2,4.1-4.1c13.4,0,26.8-0.1,40.2,0
	c13.2,0.1,19.5,4.9,20.5,17.4c0.9,11.3,0.5,22.8,0,34.1c-0.3,6.8-8.7,13.2-16.5,13.3c-14.7,0.2-29.5,0-44.2,0
	c-2.8,0.1-4.2-1.3-4.1-4.1V123.5z"/>
<path class="st4" d="M531.4,119.4c0.1,2.8-1.3,4.2-4.1,4.1C527.2,120.7,528.5,119.3,531.4,119.4z"/>
<path class="st4" d="M531.4,184.3c-2.8,0.1-4.2-1.3-4.1-4.1C530.1,180.2,531.5,181.5,531.4,184.3z"/>
<g>
	<path class="st3" d="M292.1,302c0-75.6,0-150.4,0-225.9c42.8,0,85.2,0,128.5,0c0,14.1,0,28.6,0,43.8c-27.7,0-55.2,0-83.5,0
		c0,13.3,0,26,0,40.2c25.7,1.6,52.4,0,79.7,0.8c0,14.5,0,28.5,0,44c-26.1,0-52.8,0-79.9,0c0,18.1,0,34.8,0,53c27.8,0,55.8,0,84.2,0
		c0,15.4,0,29.4,0,44.2C378.5,302,336.1,302,292.1,302z"/>
	<path class="st3" d="M350.8,59.1c-5-8.5-9.8-16.6-15.1-25.8c14.3-10.1,28.7-20.4,43.1-30.6c5.4,9.7,10.7,19.4,16.1,29.2
		C379,41.7,364.7,50.5,350.8,59.1z"/>
</g>
<g>
	<path class="st3" d="M712.5,74.7c15.4,0,29.5,0,45,0c0,76.1,0,151.5,0,228.5c-14.2,0-28.9,0-45,0
		C712.5,228.1,712.5,152.8,712.5,74.7z"/>
</g>
<g>
	<path class="st3" d="M1008,74.7c15.4,0,29.5,0,45,0c0,76.1,0,151.5,0,228.5c-14.2,0-28.9,0-45,0C1008,228.1,1008,152.8,1008,74.7z"
		/>
</g>
<path class="st3" d="M890.1,258.6c-25.6,0.4-33.2-6.7-33.7-31.7c-0.3-13-0.4-26-0.4-39c0-13,0.1-26,0.4-39
	c0.5-25,8.1-32.1,33.7-31.7c16.1,0.3,32.1,1.9,50.1,3.1c2.2-12.9,4.4-25.8,6.9-40.6c-33.9-8.4-66.8-13.7-99.8-0.9
	c-25.7,10-36.6,31.2-37.3,57.4c-0.4,17.2-0.7,34.4-0.7,51.7c0,17.2,0.2,34.5,0.7,51.7c0.7,26.2,11.6,47.4,37.3,57.4
	c32.9,12.8,65.8,7.5,99.8-0.9c-2.5-14.8-4.7-27.8-6.9-40.6C922.2,256.7,906.1,258.4,890.1,258.6z"/>
</svg>
