<?xml version="1.0" encoding="utf-8"?>
<!-- Generator: Adobe Illustrator 22.1.0, SVG Export Plug-In . SVG Version: 6.00 Build 0)  -->
<svg version="1.1" id="Layer_1" xmlns="http://www.w3.org/2000/svg" xmlns:xlink="http://www.w3.org/1999/xlink" x="0px" y="0px"
	 viewBox="0 0 71.9 49.7" style="enable-background:new 0 0 71.9 49.7;" xml:space="preserve">
<style type="text/css">
	.st0{fill:#FFFFFF;}
	.st1{fill:#E41D2F;}
	.st2{fill:#010101;}
	.st3{fill:#BF9855;}
</style>
<g>
	<g>
		<path class="st0" d="M18.8,9.9h-5.9V3.7h21.3c7.8,0,11.9,0.2,15.5,2c2.9,1.5,5.8,4.1,5.8,8.5c0,6.8-7.3,9.6-11.3,9.6v0.1
			c7.7,0,14.6,3.6,14.6,10.5c0,5.6-5.5,11.7-20.8,11.7H13.3v-6.2h5.5V9.9z M30.3,21h5.4c4.7,0,8.6-2,8.6-5.8c0-3.6-3-5.3-8.5-5.3
			h-5.5V21z M30.3,39.9h6.2c6.7,0,9.7-2.8,9.7-6.2c0-3.3-3.3-5.8-9.2-5.8h-6.7V39.9z"/>
		<path class="st0" d="M37.9,48.3H11.2V37.8h5.5V12h-5.9V1.6h23.4c8.4,0,12.6,0.3,16.5,2.2c4.5,2.2,7,5.9,7,10.5
			c0,4.1-2.2,7.1-5,9.1c5.1,2.1,8.3,6.1,8.3,11.1c0,3.8-2,7.3-5.6,9.7C51.2,46.9,45.4,48.3,37.9,48.3z M15.5,44h22.5
			c8.6,0,18.7-2.5,18.7-9.6c0-4.2-3.9-8.3-12.5-8.3H42v-4.2c-1.7,0.8-3.8,1.3-6.2,1.3h-7.5V7.7h7.7c9.2,0,10.6,4.7,10.6,7.5
			c0,2.8-1.5,5.1-4.1,6.5h1.7c2.4,0,9.2-1.8,9.2-7.4c0-2.9-1.5-5.1-4.6-6.6c-3.1-1.5-6.8-1.8-14.6-1.8H15v1.9h5.9v34.3h-5.5L15.5,44
			L15.5,44z M32.5,18.9h3.2c3,0,6.5-1,6.5-3.7c0-0.8,0-3.2-6.3-3.2h-3.4V18.9z M36.6,42.1h-8.4V25.8h8.9c7.8,0,11.3,4,11.3,8
			C48.4,37.8,45.3,42.1,36.6,42.1z M32.5,37.8h4.1c6.8,0,7.5-2.8,7.5-4c0-2.2-2.8-3.7-7-3.7h-4.6V37.8z"/>
	</g>
	<g>
		<path class="st1" d="M18.8,9.9h-5.9V3.7h21.3c7.8,0,11.9,0.2,15.5,2c2.9,1.5,5.8,4.1,5.8,8.5c0,6.8-7.3,9.6-11.3,9.6v0.1
			c7.7,0,14.6,3.6,14.6,10.5c0,5.6-5.5,11.7-20.8,11.7H13.3v-6.2h5.5V9.9z M30.3,21h5.4c4.7,0,8.6-2,8.6-5.8c0-3.6-3-5.3-8.5-5.3
			h-5.5V21z M30.3,39.9h6.2c6.7,0,9.7-2.8,9.7-6.2c0-3.3-3.3-5.8-9.2-5.8h-6.7V39.9z"/>
		<path class="st1" d="M37.9,49.4H10V36.6h5.5V13.2H9.6V0.4h24.6c7.6,0,12.5,0.2,17,2.3c4.9,2.4,7.6,6.5,7.6,11.5
			c0,3.8-1.6,6.7-3.9,8.8c4.5,2.4,7.3,6.4,7.3,11.4c0,4.2-2.2,8-6.1,10.7C51.7,48,45.6,49.4,37.9,49.4z M22.1,42.8h5V24.6h10
			c1.4,0,2.6,0.1,3.7,0.3v-1.4c-1.5,0.5-3.2,0.7-5.1,0.7h-8.7V7h-5V42.8z M46.3,27.3c2.2,1.7,3.2,4.1,3.2,6.4c0,2.8-1.3,5.3-3.7,7
			c-1.2,0.9-2.7,1.5-4.3,1.9c10.2-0.8,13.9-4.8,13.9-8.3C55.5,32,53.5,28,46.3,27.3z M33.6,36.6h3c4.7,0,6.4-1.5,6.4-2.9
			c0-1.6-3-2.5-5.9-2.5h-3.4V36.6z M40.7,7.1c6.1,1.5,6.9,6,6.9,8.1c0,2-0.6,3.7-1.7,5.1c2.6-0.6,6.2-2.3,6.2-6.1
			c0-2.4-1.3-4.3-3.9-5.6C46.3,7.7,44.1,7.3,40.7,7.1z M33.6,17.7h2.1c4.2,0,5.3-1.7,5.3-2.5c0-0.7-0.2-0.9-0.6-1.2
			c-0.5-0.3-1.8-0.8-4.5-0.8h-2.2L33.6,17.7L33.6,17.7z"/>
	</g>
	<g>
		<path class="st0" d="M18.8,9.9h-5.9V3.7h21.3c7.8,0,11.9,0.2,15.5,2c2.9,1.5,5.8,4.1,5.8,8.5c0,6.8-7.3,9.6-11.3,9.6v0.1
			c7.7,0,14.6,3.6,14.6,10.5c0,5.6-5.5,11.7-20.8,11.7H13.3v-6.2h5.5V9.9z M30.3,21h5.4c4.7,0,8.6-2,8.6-5.8c0-3.6-3-5.3-8.5-5.3
			h-5.5V21z M30.3,39.9h6.2c6.7,0,9.7-2.8,9.7-6.2c0-3.3-3.3-5.8-9.2-5.8h-6.7V39.9z"/>
		<path class="st0" d="M37.9,48.3H11.2V37.8h5.5V12h-5.9V1.6h23.4c8.4,0,12.6,0.3,16.5,2.2c4.5,2.2,7,5.9,7,10.5
			c0,4.1-2.2,7.1-5,9.1c5.1,2.1,8.3,6.1,8.3,11.1c0,3.8-2,7.3-5.6,9.7C51.2,46.9,45.4,48.3,37.9,48.3z M15.5,44h22.5
			c8.6,0,18.7-2.5,18.7-9.6c0-4.2-3.9-8.3-12.5-8.3H42v-4.2c-1.7,0.8-3.8,1.3-6.2,1.3h-7.5V7.7h7.7c9.2,0,10.6,4.7,10.6,7.5
			c0,2.8-1.5,5.1-4.1,6.5h1.7c2.4,0,9.2-1.8,9.2-7.4c0-2.9-1.5-5.1-4.6-6.6c-3.1-1.5-6.8-1.8-14.6-1.8H15v1.9h5.9v34.3h-5.5L15.5,44
			L15.5,44z M32.5,18.9h3.2c3,0,6.5-1,6.5-3.7c0-0.8,0-3.2-6.3-3.2h-3.4V18.9z M36.6,42.1h-8.4V25.8h8.9c7.8,0,11.3,4,11.3,8
			C48.4,37.8,45.3,42.1,36.6,42.1z M32.5,37.8h4.1c6.8,0,7.5-2.8,7.5-4c0-2.2-2.8-3.7-7-3.7h-4.6V37.8z"/>
	</g>
	<g>
		<path class="st2" d="M18.8,9.9h-5.9V3.7h21.3c7.8,0,11.9,0.2,15.5,2c2.9,1.5,5.8,4.1,5.8,8.5c0,6.8-7.3,9.6-11.3,9.6v0.1
			c7.7,0,14.6,3.6,14.6,10.5c0,5.6-5.5,11.7-20.8,11.7H13.3v-6.2h5.5V9.9z M30.3,21h5.4c4.7,0,8.6-2,8.6-5.8c0-3.6-3-5.3-8.5-5.3
			h-5.5V21z M30.3,39.9h6.2c6.7,0,9.7-2.8,9.7-6.2c0-3.3-3.3-5.8-9.2-5.8h-6.7V39.9z"/>
		<path class="st2" d="M37.9,46.7H12.8v-7.3h5.5V10.5h-5.9V3.1h21.9c8.2,0,12.2,0.3,15.8,2.1c3.9,2,6.1,5.2,6.1,9.1
			c0,5.1-3.9,8.2-7.8,9.5c5.9,1.1,11.1,4.5,11.1,10.7c0,3.3-1.8,6.3-4.9,8.4C50.6,45.4,45.1,46.7,37.9,46.7z M13.9,45.5h24
			c9.3,0,20.2-2.9,20.2-11.1c0-4.9-4.3-9.9-14.1-9.9h-0.6v-1.3h0.6c3.4,0,10.7-2.3,10.7-9c0-4.4-3-6.8-5.5-8
			C46,4.5,42.1,4.3,34.1,4.3H13.4v5h5.9v31.2h-5.5V45.5z M36.6,40.5h-6.8V27.4h7.3c5.8,0,9.8,2.6,9.8,6.4C46.8,38,43,40.5,36.6,40.5
			z M30.9,39.4h5.7c5.7,0,9.1-2.1,9.1-5.6c0-3.1-3.5-5.2-8.6-5.2h-6.1V39.4z M35.7,21.6h-6V9.3h6.1c7.5,0,9,3.2,9,5.9
			C44.9,19.1,41.3,21.6,35.7,21.6z M30.9,20.4h4.8c3.7,0,8-1.4,8-5.2c0-3.2-2.7-4.8-7.9-4.8h-5V20.4z"/>
	</g>
	<path class="st3" d="M18.8,9.9h-5.9V3.7h21.3c7.8,0,11.9,0.2,15.5,2c2.9,1.5,5.8,4.1,5.8,8.5c0,6.8-7.3,9.6-11.3,9.6v0.1
		c7.7,0,14.6,3.6,14.6,10.5c0,5.6-5.5,11.7-20.8,11.7H13.3v-6.2h5.5V9.9z M30.3,21h5.4c4.7,0,8.6-2,8.6-5.8c0-3.6-3-5.3-8.5-5.3
		h-5.5V21z M30.3,39.9h6.2c6.7,0,9.7-2.8,9.7-6.2c0-3.3-3.3-5.8-9.2-5.8h-6.7V39.9z"/>
	<g>
		<rect x="1.6" y="18.8" class="st3" width="68.6" height="11.4"/>
		<path class="st3" d="M71.2,31.1H0.6V17.8h70.6V31.1z M2.6,29.2h66.7v-9.4H2.6V29.2z"/>
	</g>
	<g>
		<rect x="1.6" y="18.8" class="st1" width="68.6" height="11.4"/>
		<path class="st0" d="M70.6,30.6H1.2V18.4h69.4V30.6z M2,29.8h67.9V19.2H2V29.8z"/>
	</g>
	<g>
		<g>
			<path class="st2" d="M9.9,28.4H6.1v-7.4h4c1.1,0,2.5,0.2,2.5,1.5v0.8c0,0.6-0.3,0.9-0.7,1.1c0.6,0.3,0.9,0.7,0.9,1.3v1
				C12.7,28.3,11.1,28.4,9.9,28.4z M6.6,27.9h3.3c2,0,2.3-0.6,2.3-1.3v-1c0-0.9-1.2-1.1-1.7-1.1l-0.8,0l0.7-0.5l0.1,0
				c1.2,0,1.5-0.3,1.5-0.8v-0.8c0-0.6-0.3-1-2-1H6.6V27.9z M9.1,27.3H8.6v-2.5h0.5c0.8,0,0.9,0.5,0.9,0.7v1.1
				C10,26.8,10,27.3,9.1,27.3z M9.1,26.8L9.1,26.8c0.4,0,0.4-0.1,0.4-0.2v-1.1c0,0,0-0.2-0.4-0.2h0V26.8z M9.2,24.3H8.6v-2.1h0.5
				c0.5,0,0.9,0.3,0.9,0.7v0.7C10,24,9.7,24.3,9.2,24.3z M9.1,23.8L9.1,23.8c0.2,0,0.4-0.1,0.4-0.2v-0.7c0-0.1-0.2-0.2-0.4-0.2h0
				V23.8z"/>
		</g>
		<g>
			<path class="st2" d="M17.9,28.4h-5.1v-7.4h5V23h-1.8v0.8h1.7v1.8h-1.7v1h2V28.4z M13.2,27.9h4.1v-0.9h-2v-2h1.7v-0.8h-1.7v-1.8
				h1.8v-0.9h-4V27.9z"/>
		</g>
		<g>
			<path class="st2" d="M24.4,28.4h-3v-2.9c0-0.2,0-0.3-0.4-0.3c0,0,0,0-0.1,0v3.2h-3.1v-7.4H21c1.5,0,3.3,0,3.3,1.6v0.6
				c0,0.6-0.2,1-0.7,1.2c0.4,0.2,0.8,0.6,0.8,1.2L24.4,28.4z M21.9,27.9h2v-2.1c0-0.5-0.2-0.9-1.4-1l-0.2,0v-0.5l0.2,0
				c1.2,0,1.3-0.5,1.3-1v-0.6c0-1-0.8-1.1-2.8-1.1h-2.7v6.4h2.1v-3.1l0.2,0c0.1,0,0.2,0,0.4,0c0.8,0,0.9,0.5,0.9,0.8V27.9z
				 M20.8,24.2h-0.5v-2h0.5c0.9,0,1,0.5,1,0.7v0.6C21.9,23.7,21.8,24.2,20.8,24.2z M20.9,22.7v1c0.2,0,0.5,0,0.5-0.2v-0.6
				C21.4,22.7,21.1,22.7,20.9,22.7z"/>
		</g>
		<g>
			<path class="st2" d="M27.9,28.6c-2.3,0-3.4-0.8-3.4-2.4v-2.9c0-1.1,0.6-2.4,3.5-2.4c2,0,3.2,0.8,3.2,2.2v1.2H28v-1.5
				c0-0.2,0-0.2-0.2-0.2c-0.1,0-0.2,0-0.2,0.2v3.9c0,0.2,0.1,0.2,0.2,0.2c0.2,0,0.2,0,0.2-0.3V25h3.2v1.4
				C31.2,27.7,29.9,28.6,27.9,28.6z M28,21.4c-2,0-3,0.6-3,1.9v2.9c0,0.9,0.3,1.9,2.9,1.9c1.7,0,2.8-0.6,2.8-1.7v-0.9h-2.2v1.1
				c0,0.3,0,0.8-0.7,0.8c-0.4,0-0.7-0.3-0.7-0.7v-3.9c0-0.4,0.3-0.7,0.7-0.7c0.7,0,0.7,0.5,0.7,0.7v1h2.2v-0.7
				C30.7,21.7,29,21.4,28,21.4z"/>
		</g>
		<g>
			<path class="st2" d="M38,28.4h-3.2v-2.9h-0.5v2.9h-3.2v-7.4h3.2v2.5h0.5v-2.5H38V28.4z M35.3,27.9h2.2v-6.4h-2.2v2.5h-1.5v-2.5
				h-2.2v6.4h2.2v-2.9h1.5V27.9z"/>
		</g>
		<g>
			<path class="st2" d="M47.1,28.4h-2.8v-3.1l-0.7,3.1h-2.1l-0.7-3.1v3.1h-2.8v-7.4h4l0.5,2.8l0.4-2.8h4L47.1,28.4L47.1,28.4z
				 M44.8,27.9h1.8v-6.4h-3.1l-0.6,4h-0.4l-0.1-0.2l-0.7-3.8h-3.1v6.4h1.7v-5.1h0.5l0.1,0.2l1.1,4.9h1.3l1.1-5.1h0.5l0,0.3
				L44.8,27.9L44.8,27.9z"/>
		</g>
		<g>
			<path class="st2" d="M54.1,28.4h-3.2l-0.1-1.2h-0.5l-0.1,1.2h-3.2l1.4-7.4h4.2L54.1,28.4z M51.3,27.9h2.1l-1.3-6.4h-3.4l-1.2,6.4
				h2.1l0.1-1.2h1.4L51.3,27.9z M51.2,26h-1.5l0.5-3.7h0.5L51.2,26z M50.3,25.5h0.3l-0.2-1.3L50.3,25.5z"/>
		</g>
		<g>
			<path class="st2" d="M60.4,28.4h-2.7l-1.1-2.9v2.9h-2.8v-7.4h2.7l1.1,2.5v-2.5h2.8L60.4,28.4L60.4,28.4z M58.1,27.9h1.8v-6.4
				h-1.8V25h-0.4l-0.1-0.1l-1.4-3.3h-1.8v6.4h1.8v-3.8h0.5L58.1,27.9z"/>
		</g>
		<g>
			<path class="st2" d="M63.6,28.6c-2.2,0-3.1-0.6-3.1-2v-1.1h2.2c0,0-0.1,0-0.1,0c-1-0.4-2.2-0.9-2.2-2.1v-0.4
				c0-1.3,1.1-1.9,3.2-1.9c2.1,0,3.2,0.6,3.2,1.8v0.9h-2.6c0.1,0,0.2,0.1,0.4,0.1c1,0.4,2.4,0.9,2.4,2.3v0.5
				C67,28.4,65.2,28.6,63.6,28.6z M61,25.9v0.6c0,0.8,0.2,1.5,2.6,1.5c2,0,2.9-0.4,2.9-1.5V26c0-1-1.1-1.5-2.1-1.8
				c-0.8-0.3-1.5-0.6-1.5-1.2v-0.3c0-0.4,0.3-0.7,0.7-0.7c0.7,0,0.8,0.5,0.8,0.7v0.3h1.9v-0.4c0-0.3,0-1.3-2.7-1.3
				c-2.4,0-2.6,0.8-2.6,1.4v0.4c0,0.9,0.9,1.3,1.8,1.7c0.8,0.3,1.6,0.7,1.6,1.4v0.3c0,0.2,0,0.9-0.7,0.9c-0.4,0-0.7-0.3-0.7-0.7
				v-0.9L61,25.9L61,25.9z M63.4,25.8v1c0,0.2,0,0.2,0.2,0.2c0.2,0,0.2,0,0.2-0.4v-0.3C63.9,26.1,63.7,26,63.4,25.8z M63.6,22.5
				c-0.2,0-0.2,0-0.2,0.2V23c0,0.1,0.2,0.3,0.5,0.4v-0.7C63.9,22.6,63.8,22.5,63.6,22.5z"/>
		</g>
	</g>
	<g>
		<path class="st0" d="M6,21.1h3.7c1.4,0,2.2,0.3,2.2,1.3v0.8c0,0.8-0.6,1-1.7,1l0,0c1.2,0,1.9,0.5,1.9,1.3v1c0,1.1-0.9,1.5-2.5,1.5
			H6L6,21.1L6,21.1z M8.6,23.8h0.3c0.4,0,0.6-0.2,0.6-0.4v-0.7c0-0.2-0.2-0.4-0.6-0.4H8.6V23.8z M8.6,26.8h0.3
			c0.4,0,0.6-0.1,0.6-0.4v-1.1c0-0.3-0.2-0.4-0.6-0.4H8.6V26.8z"/>
		<path class="st0" d="M12.7,21.1h4.5v1.4h-1.8v1.3h1.7v1.3h-1.7v1.5h2V28h-4.6V21.1z"/>
		<path class="st0" d="M17.8,21.1h2.9c1.7,0,3,0.1,3,1.4v0.6c0,0.7-0.4,1.2-1.6,1.2v0c1.2,0,1.7,0.5,1.7,1.2V28h-2.5v-2.6
			c0-0.3-0.1-0.6-0.7-0.6c-0.1,0-0.2,0-0.3,0V28h-2.6L17.8,21.1z M20.4,23.7h0.2c0.4,0,0.8-0.1,0.8-0.5v-0.6c0-0.4-0.4-0.5-0.8-0.5
			h-0.2V23.7z"/>
		<path class="st0" d="M24.5,23.1c0-1.1,0.6-2.1,3.2-2.1c1.9,0,3,0.7,3,1.9v1H28v-1.3c0-0.2,0-0.5-0.5-0.5c-0.3,0-0.4,0.2-0.4,0.5
			v3.9c0,0.2,0.1,0.5,0.4,0.5c0.5,0,0.5-0.3,0.5-0.6V25h2.7v1.1c0,1.2-1.1,2-3,2c-2.7,0-3.2-1-3.2-2.1L24.5,23.1L24.5,23.1z"/>
		<path class="st0" d="M31.2,21.1h2.7v2.5h1v-2.5h2.7V28h-2.7v-2.9h-1V28h-2.7V21.1z"/>
		<path class="st0" d="M38.1,21.1h3.5l0.7,4h0l0.6-4h3.6V28h-2.3v-5.1h0L43.2,28h-1.7l-1.1-5.1h0V28h-2.3L38.1,21.1L38.1,21.1z"/>
		<path class="st0" d="M48.3,21.1h3.8l1.4,6.9h-2.7l-0.1-1.2h-1L49.6,28H47L48.3,21.1z M50.7,25.5l-0.5-3.2h0l-0.4,3.2H50.7z"/>
		<path class="st0" d="M53.9,21.1h2.3l1.5,3.4h0v-3.4h2.3V28h-2.3l-1.5-3.8h0V28h-2.3L53.9,21.1L53.9,21.1z"/>
		<path class="st0" d="M60.5,25.5h2.5v1.1c0,0.2,0.1,0.4,0.4,0.4c0.5,0,0.5-0.4,0.5-0.6v-0.3c0-1.3-3.4-1.1-3.4-3.1v-0.4
			c0-1.2,1.1-1.7,2.9-1.7c2.5,0,2.9,0.8,2.9,1.5v0.6h-2.4v-0.6c0-0.4-0.3-0.5-0.5-0.5c-0.3,0-0.4,0.1-0.4,0.5v0.3c0,1,3.5,1,3.5,3
			v0.5c0,1.4-1.3,1.8-3.1,1.8c-2.5,0-2.9-0.8-2.9-1.8L60.5,25.5L60.5,25.5z"/>
	</g>
</g>
</svg>
