<?xml version="1.0" encoding="utf-8"?>
<!-- Generator: Adobe Illustrator 22.1.0, SVG Export Plug-In . SVG Version: 6.00 Build 0)  -->
<svg version="1.1" id="Layer_1" xmlns="http://www.w3.org/2000/svg" xmlns:xlink="http://www.w3.org/1999/xlink" x="0px" y="0px"
	 viewBox="0 0 1567.8 318" style="enable-background:new 0 0 1567.8 318;" xml:space="preserve">
<style type="text/css">
	.st0{stroke:#000000;stroke-width:7;stroke-miterlimit:10;}
	.st1{stroke:#000000;stroke-width:12;stroke-miterlimit:10;}
	.st2{fill:none;stroke:#000000;stroke-width:40;stroke-miterlimit:10;}
	.st3{fill:#484C9A;stroke:#484C9A;stroke-width:12;stroke-miterlimit:10;}
</style>
<path class="st0" d="M233.3,98.6c-4.2-21.9-14.4-41.4-30.6-58.5C181,16.7,154.1,4.8,122.9,3.6c-32.4-1.2-60.4,10.3-83.7,34
	C13.1,63.8,1.3,96.5,4.6,134.5c1.9,22.1,10.3,43.4,24.1,60.7c23,28.8,52.5,43.7,87.6,44.6c32.4,1.2,60.4-10.3,83.7-33.6
	c23.7-23.7,35.5-51.8,35.5-84.2C235.5,113.8,234.8,106.1,233.3,98.6 M179.8,184.4c-17.4,18.6-38.3,26.9-63.2,25.7
	c-23.3-0.8-42.7-9.9-58.8-27.7s-23.7-38.8-23.3-62.5c0.4-24.1,8.7-44.3,25.7-61.3c17-17,37.1-25.7,61.2-25.3
	c22.9,0,42.3,8.3,58.5,25.3s24.9,37.2,25.7,60.9C205.9,144.4,197.6,165.8,179.8,184.4z"/>
<path d="M288,99.7c-1.3,7.2-2,14.6-2,22.2c0,0.4,0,1.6,0,1.6v186.4c0,2.1,1.7,3.8,3.8,3.8h21.6c2.1,0,3.8-1.7,3.8-3.8l0-100.3
	c0-3.4,4-5.1,6.4-2.7c21.3,21,46.8,32.1,76.9,33.2c32.4,1.2,60.4-10.3,83.7-33.6c24.3-24.7,36.1-54.6,35.1-89.2
	c-0.8-27.1-11.2-53.4-29.1-73.8c-22.4-25.5-50-38.7-83-39.5c-32.4-1.2-60.4,10.3-84.1,34C303.4,55.9,292.3,76.5,288,99.7
	 M461.4,185.2c-17,17-37.1,25.3-60.8,25.3c-23.3,0-43-8.3-59.2-25.3s-24.9-37.2-25.3-60.9c-0.4-24.9,7.9-46.3,25.3-64.9
	c17.8-18.6,38.7-26.9,63.6-25.7c23.3,0.8,42.7,10.3,58.8,28.1c16.2,17.8,24.1,38.4,23.7,62.1C487.1,148,478.4,168.2,461.4,185.2z"/>
<path d="M311.5,317.2h-21.6c-4,0-7.3-3.3-7.3-7.3v-188c0-7.8,0.7-15.5,2-22.8c4.4-23.8,15.8-45.2,34.1-63.5
	c24.4-24.5,53.6-36.3,86.7-35c33.7,0.9,62.5,14.5,85.5,40.7c18.5,21.1,29.2,48.1,30,76c1.1,35.4-11.1,66.3-36.1,91.7
	c-24.2,24.2-53.2,35.9-86.4,34.7c-30.6-1.1-57.3-12.6-79.2-34.2c-0.1-0.1-0.1-0.1-0.3-0.1c-0.2,0.1-0.2,0.2-0.2,0.3v100.3
	C318.8,313.9,315.5,317.2,311.5,317.2z M400.9,7.5c-29.3,0-55.3,11.1-77.2,33.1c-17.3,17.3-28.1,37.4-32.2,59.8l0,0
	c-1.3,7-1.9,14.2-1.9,21.6v188c0,0.2,0.1,0.3,0.3,0.3h21.6c0.2,0,0.3-0.1,0.3-0.3V209.7c0-2.9,1.8-5.6,4.5-6.7
	c2.7-1.1,5.8-0.5,7.9,1.5c20.6,20.3,45.7,31.2,74.6,32.2c31.1,1.2,58.4-9.8,81.1-32.6c23.6-24,35.1-53.2,34.1-86.6
	c-0.8-26.3-10.8-51.7-28.3-71.6C464,21.2,437,8.3,405.2,7.5C403.8,7.5,402.3,7.5,400.9,7.5z M400.6,214c-24.3,0-45.1-8.9-61.8-26.4
	c-17-17.9-25.8-39.2-26.2-63.3c-0.4-26,8.2-48,26.2-67.3c18.5-19.3,40.1-28,66.3-26.8c24.1,0.8,44.1,10.4,61.3,29.2
	c16.7,18.4,25,40.1,24.6,64.5c-0.4,25-9.3,45.9-27.1,63.7h0C446.4,205.1,425.1,214,400.6,214z M400.4,37.1
	c-22.1,0-40.6,8.1-56.5,24.7c-16.7,17.9-24.7,38.3-24.3,62.4c0.4,22.3,8.6,42,24.3,58.6c15.5,16.3,34.1,24.2,56.7,24.2
	c22.9,0,42-7.9,58.3-24.3c16.5-16.5,24.7-35.8,25-58.9c0.4-22.9-7.1-42.4-22.8-59.7c-15.8-17.4-34.2-26.2-56.4-26.9
	C403.3,37.1,401.8,37.1,400.4,37.1z"/>
<path class="st0" d="M689.3,2.6c-33.6-2-62.4,9.5-87.3,34c-24.5,24.1-36.3,53.4-35.5,87c0.4,32,12.6,59.3,36.3,82.7
	c23.7,22.9,51,34,81.8,33.6c24.5-0.4,46.6-7.5,66.7-21.8c18.7-13.2,32.3-30.8,40.8-52.6c1-2.5-0.9-5.2-3.6-5.2h-24.2
	c-1.4,0-2.7,0.8-3.4,2.1c-15.5,31-40.4,46.9-75.2,47.3c-22.9,0.4-42.7-7.1-59.6-21.8c-15.9-13.7-25.2-31.2-28.3-51.8
	c-0.3-2.3,1.5-4.4,3.8-4.4h194c2.1,0,3.8-1.7,3.8-3.8v-12.4c0-28.1-10.7-53.4-32-75.9C745.4,16.8,719.3,4.5,689.3,2.6z M765.1,104.2
	h-163c-2.4,0-4.3-2.3-3.7-4.7c4.8-19.2,14.4-35,29.4-47.1c16.2-13.1,35.2-19.8,56.9-19.4c21.7,0.4,40.3,7.1,55.7,20.2
	c14.2,12.1,23.7,27.5,28.5,46.3C769.4,101.9,767.5,104.2,765.1,104.2z"/>
<path class="st0" d="M1076,3.6c-32.8-1.2-60.8,9.9-84.1,33.6c-24.3,24.3-36.1,54.2-35.1,88.7c0.8,27.2,11.2,53.4,29.1,73.8
	c22.4,25.5,50,38.7,83,39.9c32.5,1.1,60.4-10.1,83.6-33.4c2.4-2.4,6.4-0.7,6.4,2.7v21.8c0,2.1,1.7,3.8,3.8,3.8h21.6
	c2.1,0,3.8-1.7,3.8-3.8V123.1v-1.6c1.2-31.2-9.5-58.5-31.6-81.5C1134.5,16.7,1107.6,4.8,1076,3.6z M1132.5,184.4
	c-17.4,18.2-38.3,26.9-63.2,25.7c-22.9-1.2-42.7-10.3-58.8-28.1c-16.2-17.8-23.7-38.8-23.3-62.5c0.4-24.1,8.7-44.3,25.7-61.3
	c17-17,37.1-25.3,61.2-25.3c22.9,0,42.7,8.3,58.8,25.3c16.2,17,24.9,37.2,25.3,60.9C1158.6,144,1150.3,165.8,1132.5,184.4z"/>
<path class="st0" d="M1538.9,31.7c-15.4-16.2-35.2-25.3-59.6-27.3c-31-2.6-56,10-75,37.2c-1.6,2.2-4.8,2.2-6.3,0
	c-19-27.2-44-39.8-75-37.2c-24.5,2-44.2,11.1-59.2,27.3c-16.2,17-24.1,40-24.1,68v131.1c0,2.1,1.7,3.8,3.8,3.8h23.6
	c2.1,0,3.8-1.7,3.8-3.8V96.2c0-17.8,4.7-32.4,14.6-44.7c9.9-12.3,22.9-18.6,39.1-18.6c16.6,0,30.8,5.5,42.7,16.2
	c12.2,10.7,18.2,24.1,18.2,40.3v141.4c0,2.1,1.7,3.8,3.8,3.8h24c2.1,0,3.8-1.7,3.8-3.8V89.5c0-16.2,5.9-29.7,17.8-40.3
	c12.2-10.7,26.5-16.2,43.1-16.2c16.2,0,29.6,6.3,39.5,18.6c9.9,12.3,15,27.3,15,44.7v134.6c0,2.1,1.7,3.8,3.8,3.8h23.6
	c2.1,0,3.8-1.7,3.8-3.8V99.7C1563.4,71.7,1555.1,48.7,1538.9,31.7z"/>
<path class="st0" d="M933.8,3.5c-48.8,1.9-87,38.9-87,84.5v142.7c0,2.1,1.7,3.8,3.8,3.8h24c2.1,0,3.8-1.7,3.8-3.8V88
	c0.1-28.9,24.6-52.3,55.7-54c2-0.1,3.7-1.7,3.7-3.8V7.4C937.8,5.2,936,3.5,933.8,3.5z"/>
<path class="st1" d="M256.4,88"/>
<g>
	<path class="st2" d="M293.4,97.6c-21.7-12.3-47.6-12.8-67.1,1.2"/>
</g>
<ellipse class="st3" cx="133.3" cy="110.5" rx="35.7" ry="35.7"/>
<ellipse class="st3" cx="416.3" cy="111.5" rx="35.7" ry="35.7"/>
</svg>
