<?xml version="1.0" encoding="utf-8"?>
<!-- Generator: Adobe Illustrator 22.1.0, SVG Export Plug-In . SVG Version: 6.00 Build 0)  -->
<svg version="1.1" id="Layer_1" xmlns="http://www.w3.org/2000/svg" xmlns:xlink="http://www.w3.org/1999/xlink" x="0px" y="0px"
	 viewBox="0 0 313 313" style="enable-background:new 0 0 313 313;" xml:space="preserve">
<style type="text/css">
	.st0{fill:#677EDD;}
</style>
<g>
	<path class="st0" d="M308.8,122.2c0-0.5-0.1-0.9,0.3-1.4c0-0.6,0-1.2,0-1.8c-0.9-0.3-0.6-1.2-0.7-1.8c-2.3-19.7-8.8-37.8-20.1-54.2
		c-12.4-17.9-28.5-31.5-48.4-40.4c-19.4-8.7-39.7-12.1-60.8-9.8C157,15.3,137,23.3,119.4,37.1C99.3,52.8,85.7,73,78.7,97.6
		c-7,24.4-5.9,48.5,2.7,72.3c3,8.2,7,16,11.8,23.5c-2.9,1.1-5.8,2-8.4,3.4c-4.3,2.2-7.9,5.3-11.3,8.7
		c-22.7,24.1-45.4,48.2-68.2,72.3c-2,2-1.8,3,0.3,4.7c4.5,3.9,8.8,8.1,13,12.3c6,5.9,13,7.1,20.9,5.2c7.9-1.9,14.2-6.4,19.6-12.3
		c19.8-21,39.7-42,59.3-63c1.6-1.7,2.5-1.7,4.3-0.4c15.9,11.5,33.5,18.7,53,21.4c21.3,3,42.1,0.5,61.5-8.3
		c37.4-16.8,60.6-45.4,69.4-85.6c0.8-3.6,0.6-7.4,2.1-10.9c0-0.8,0-1.6,0-2.4c-0.6-0.6-0.2-1.2-0.3-1.9c0-0.4,0-0.7,0-1.1
		c0.1-0.7-0.2-1.3,0.3-1.8c0-3,0-6,0-8.9c-0.5-0.5-0.3-1.1-0.3-1.8C308.8,122.9,308.8,122.5,308.8,122.2z M191.8,215.7
		c-48-0.5-86-38.4-86.1-86.2c0-47.7,38.5-85.8,86-85.9c47.5-0.1,86.5,38.9,86.1,86.1C277.5,177.4,239,215.7,191.8,215.7z"/>
</g>
</svg>
