<?xml version="1.0" encoding="utf-8"?>
<!-- Generator: Adobe Illustrator 22.1.0, SVG Export Plug-In . SVG Version: 6.00 Build 0)  -->
<svg version="1.1" id="Layer_1" xmlns="http://www.w3.org/2000/svg" xmlns:xlink="http://www.w3.org/1999/xlink" x="0px" y="0px"
	 viewBox="0 0 313 313" style="enable-background:new 0 0 313 313;" xml:space="preserve">
<style type="text/css">
	.st0{fill:#677EDD;}
</style>
<g>
	<path class="st0" d="M311.5,144.7c0-7.7,0-7.7-7.3-10.7c-10.5-4.3-21.2-8.3-31.9-12.2c-2-0.7-3.4-1.9-4.2-3.9
		c-1.4-3.5-2.7-7-4.4-10.3c-1.8-3.5-1.4-6.5,0.1-10c4.9-10.8,9.5-21.8,13.5-32.9c1.1-2.9,0.6-5.2-1.7-7.3
		c-6.5-6.1-12.6-12.7-19.2-18.8c-2.7-2.4-4.9-2.8-8.1-1.6c-11.7,4.4-23.1,9.4-34.5,14.5c-1.7,0.8-3.3,1.3-5.2,0.5
		c-4.6-2-9.3-3.8-14-5.6c-1.7-0.7-2.8-1.9-3.4-3.6c-1.3-3.4-2.8-6.7-4.1-10c-3.4-8.3-7.1-16.5-10.9-24.6c-1.6-3.4-3.9-4.9-7.8-4.7
		c-7.8,0.3-15.7,0.4-23.5,0c-5.5-0.3-8.6,1.8-10.2,6.7c-0.2,0.5-0.4,0.9-0.6,1.4c-4.6,10.3-8.6,20.8-12.6,31.4
		c-0.7,1.8-1.8,3-3.6,3.7c-4.1,1.6-8.3,3.2-12.3,5c-2.4,1.1-4.5,0.9-6.9-0.1c-11.8-5-23.6-9.9-35.7-14c-2.4-0.8-4.3-0.7-6.3,1.1
		c-6,5.5-11.8,11.2-17.5,17c-5.9,6-6.6,4.1-2.6,14c4,9.8,8.2,19.5,12.9,28.9c1.5,3.1,1.6,5.8,0,8.9c-1.5,2.9-2.8,5.8-3.8,8.9
		s-3,5-6.1,6.1c-10.7,4.1-21.3,8.5-31.8,13.1c-2.2,1-4.6,1.7-5.9,4c0,11.3,0,22.5,0,33.8c1.3,2.5,3.9,3.1,6.1,4.1
		c8.8,3.6,17.6,7.5,26.7,10.3c6.3,1.9,10.4,5.1,12.7,11.6c4.2,12,4.7,7.3-0.2,19.1c-4,9.6-8.1,19.1-11.6,28.8
		c-0.9,2.5-0.7,4.6,1.3,6.6c6.8,6.4,13,13.4,20.1,19.6c2.3,2,4.2,2.4,7,1.4c11.9-4.4,23.5-9.5,35-14.8c2.1-0.9,3.9-1.1,6-0.2
		c4.2,1.8,8.4,3.4,12.6,5c2,0.8,3.4,2,4.1,4.1c1.2,3.4,2.7,6.7,4.1,10c3.6,8.6,7.1,17.3,11.6,25.6c1.3,2.5,3.3,3.5,6.1,3.5
		c7.5-0.1,15.1,0,22.6-0.1c8.6-0.1,8.3,1.9,13-8.8c4.4-10,8.3-20.3,12.2-30.5c0.7-1.8,1.8-3,3.6-3.8c4.5-1.8,9-3.5,13.4-5.5
		c1.5-0.7,2.9-0.7,4.4-0.1s3,1.2,4.5,1.8c10.7,4.6,21.6,8.9,32.6,12.7c2.2,0.8,4.1,0.8,6.1-0.9c7.5-6.5,14.1-13.8,21.2-20.6
		c1.6-1.5,1.9-3.1,1.2-5.2c-1.4-4.3-3.3-8.4-5-12.6c-3.1-7.2-6.3-14.4-9.8-21.4c-1.4-2.9-1.9-5.5-0.4-8.6c1.7-3.5,3.2-7.2,4.5-10.9
		c0.7-2,2-3.4,4.1-4.2c4.9-1.9,9.8-3.8,14.6-5.8c7.5-3.1,15.2-6,22.3-9.9c1.8-1,2.5-2.2,2.5-4.3
		C311.4,161.6,311.5,153.2,311.5,144.7z M156.1,224.6c-37.2,0-67.4-30.2-67.4-67.4s30.2-67.4,67.4-67.4s67.4,30.2,67.4,67.4
		S193.3,224.6,156.1,224.6z"/>
</g>
</svg>
