<?xml version="1.0" encoding="utf-8"?>
<!-- Generator: Adobe Illustrator 22.1.0, SVG Export Plug-In . SVG Version: 6.00 Build 0)  -->
<svg version="1.1" id="Layer_1" xmlns="http://www.w3.org/2000/svg" xmlns:xlink="http://www.w3.org/1999/xlink" x="0px" y="0px"
	 viewBox="0 0 252 144" style="enable-background:new 0 0 252 144;" xml:space="preserve">
<style type="text/css">
	.st0{fill:#060606;}
	.st1{opacity:0.6;}
	.st2{fill:none;}
	.st3{fill:#010101;}
	.st4{fill:#151515;}
	.st5{fill:#FFFFFF;}
	.st6{fill:#454C9F;}
</style>
<g>
	<rect class="st0" width="252" height="144"/>
</g>
<g class="st1">
	<rect class="st2" width="252" height="144"/>
	<path class="st3" d="M132,24"/>
	<path class="st4" d="M252,38c0-0.2,0-0.4,0-0.5v5.3C252.1,41.2,252.1,39.6,252,38z"/>
	<path class="st4" d="M61.8,0c1.3,1.1,2.5,2.3,3.7,3.6c9.5,10,14.5,21.9,15,35.5c0.2,14.7-4.7,27.1-15,37.9
		c-9.5,10.2-20.8,15.1-34.3,15.1c-0.9,0-1.8,0-2.8-0.1C17.6,91.7,8.2,88.2,0,81.5v15.7c8.5,4.8,18,7.3,28.4,7.6
		c17.5,0.6,32.9-5.5,45.6-18.3c12.9-12.9,19.4-28.4,19.4-46c0-3.2-0.2-6.3-0.6-9.4l-9.1-12.7c1.5-1.1,3.2-2.1,4.8-3
		C86.3,10,83.1,4.8,79.2,0H61.8z"/>
	<path class="st4" d="M64.1,75.7c10-10.5,14.7-22.5,14.4-36.5c-0.4-13.3-5.3-24.7-14.4-34.3c-1.7-1.8-3.5-3.5-5.4-4.9h-3.3
		c2.5,1.8,5,3.9,7.3,6.3c8.9,9.4,13.5,20.2,13.9,32.9c0.2,13.6-4.3,25.1-13.9,35.1l0,0c-9.3,10-20.5,14.5-34,13.8
		C17.5,87.8,8.1,83.9,0,76.3v2.6c8.1,7.1,17.6,10.8,28.6,11.2C42.6,90.8,54.4,86.1,64.1,75.7z"/>
	<path class="st4" d="M30.9,108.8c17.5,0,33-6.6,45.9-19.5c13.6-13.7,20.6-30.1,20.6-48.8c0-1.4-0.1-2.8-0.1-4.1
		c-0.2,0.1-0.3,0.2-0.5,0.3l-1.6-2.3c0.2,2,0.3,4.1,0.3,6.1c0,18.2-6.7,34-20,47.4c-13.1,13.1-28.9,19.6-47.1,18.9
		C18,106.5,8.6,104.1,0,99.5v2.3c8.5,4.4,18,6.7,28.3,7C29.2,108.8,30.1,108.8,30.9,108.8z"/>
	<path class="st4" d="M5.8,0H2.5C1.6,0.6,0.8,1.3,0,2v2.6C1.9,2.9,3.8,1.4,5.8,0z"/>
	<path class="st4" d="M90.3,14.5c0.6-0.3,1.2-0.5,1.8-0.8c-2-4.8-4.7-9.4-7.9-13.7h-2.5C85.3,4.6,88.2,9.4,90.3,14.5z"/>
	<path class="st4" d="M0,0v2c0.8-0.7,1.6-1.4,2.5-2H0z"/>
	<path class="st4" d="M64.1,4.9c9.1,9.6,14,20.9,14.4,34.3c0.2,14-4.4,26-14.4,36.5c-9.8,10.5-21.5,15.1-35.5,14.5
		C17.6,89.7,8.1,86.1,0,78.9v2.6c8.2,6.7,17.6,10.2,28.5,10.5c0.9,0,1.9,0.1,2.8,0.1c13.5,0,24.8-5,34.3-15.1
		c10.3-10.8,15.2-23.2,15-37.9c-0.5-13.6-5.5-25.6-15-35.5c-1.2-1.3-2.5-2.5-3.7-3.6h-3.1C60.6,1.5,62.4,3.1,64.1,4.9z"/>
	<path class="st4" d="M88.6,15.4c0.6-0.3,1.2-0.6,1.8-0.9c-2.2-5.1-5-10-8.6-14.5h-2.5C83.1,4.8,86.3,10,88.6,15.4z"/>
	<path class="st4" d="M93.5,40.5c0,17.6-6.5,33.1-19.4,46c-12.8,12.8-28.2,18.9-45.6,18.3C18,104.6,8.5,102,0,97.2v2.2
		c8.6,4.6,18,7,28.4,7.3c18.2,0.7,34-5.8,47.1-18.9c13.3-13.3,20-29.1,20-47.4c0-2.1-0.1-4.1-0.3-6.1l-2.3-3.3
		C93.3,34.2,93.5,37.3,93.5,40.5z"/>
	<path class="st4" d="M14.6,34.7c0,0.2,0,0.3,0,0.5c0-0.2,0-0.4,0-0.7C14.6,34.5,14.6,34.6,14.6,34.7z"/>
	<path class="st4" d="M15.6,41c-0.5-1.8-0.9-3.6-1-5.6C14.7,37.4,15,39.2,15.6,41z"/>
	<path class="st4" d="M219.7,0c1.9,1.6,3.8,3.4,5.6,5.4c9.4,10.3,14.1,22.5,13.8,36.3c-0.2,14.1-5.2,25.8-15.2,35.8
		c-9.8,9.8-21.8,14.8-35.6,14.8c-13.7,0-25.4-5-34.7-14.8c-9.6-10-14.5-22-14.8-35.6c-0.2-14.6,4.6-27,14.7-37.9
		c1.4-1.5,2.8-2.8,4.3-4h-17.5c-4,4.9-7.2,10.1-9.5,15.6c0.9,0.5,1.9,1,2.8,1.5L126.8,29c-0.6,3.7-1,7.6-1,11.5V144h12.3l0.2-54.1
		c0-1.7,1-3.1,2.5-3.8c1.5-0.6,3.3-0.3,4.4,0.9c11.6,11.4,25.7,17.5,41.9,18.1c17.4,0.7,32.8-5.5,45.6-18.3
		C245,74.4,251.4,59.6,252,42.8v-5.3c-0.5-13.6-5.5-26.8-14-37.5H219.7z"/>
	<path class="st4" d="M123.9,41.4c0,0,0-0.7,0-0.9c0-2.3,0.1-4.6,0.3-6.9l-1.7,3c-0.2-0.1-0.3-0.2-0.5-0.2c-0.1,1.4-0.1,2.7-0.1,4.1
		V144h2V41.4z"/>
	<path class="st4" d="M140.8,41.8c0.2,13.3,5.1,24.7,14.2,34.3c9.1,9.6,20.2,14.2,33.3,14.2c13.3,0,24.7-4.7,34.2-14.2
		c9.5-9.6,14.4-20.9,14.7-34.5c0.2-13.3-4.2-24.9-13.3-34.9c-2.3-2.5-4.7-4.8-7.3-6.7h-3.4c3.2,2.2,6.3,4.8,9.2,8
		c8.8,9.7,13,20.7,12.8,33.6c-0.2,13-4.8,23.8-14.1,33.1c-9.2,9.2-19.9,13.7-32.8,13.7c-12.7,0-23.2-4.5-31.9-13.6
		c-8.9-9.3-13.5-20.4-13.7-32.9c-0.2-13.5,4.3-25,13.7-35.1c2.5-2.6,5.1-4.9,7.9-6.7h-3.4c-2,1.6-4,3.4-5.9,5.4
		C145.2,15.8,140.5,27.8,140.8,41.8z"/>
	<path class="st4" d="M129,14.8c2.2-5.2,5.1-10.1,8.8-14.8h-2.5c-3.3,4.4-6,9.1-8.1,14C127.8,14.2,128.4,14.5,129,14.8z"/>
	<path class="st4" d="M252,23.8v-6.7c-2.2-6.1-5.2-11.8-9-17.1h-2.5C245.9,7.1,249.8,15.2,252,23.8z"/>
	<path class="st4" d="M187.1,109c18.6,0.7,35-5.9,48.6-19.5c7.5-7.7,13-16.2,16.3-25.6v-6.8c-2.9,11.5-8.8,21.9-17.7,31
		c-13.1,13.1-28.9,19.6-47.1,18.9c-16.9-0.6-31.3-6.9-43.3-18.7c-1.3-1.3-3.6-0.4-3.6,1.5V144h2l0.2-54.2
		C154.9,101.9,169.9,108.4,187.1,109z"/>
	<path class="st4" d="M140.3,0h-2.5c-3.6,4.6-6.6,9.6-8.8,14.8c0.6,0.3,1.2,0.5,1.8,0.8C133.1,10.1,136.3,4.9,140.3,0z"/>
	<path class="st4" d="M252,37.5V23.8c-2.2-8.6-6.1-16.7-11.5-23.8H238C246.5,10.7,251.5,23.9,252,37.5z"/>
	<path class="st4" d="M125.9,40.5c0-3.9,0.3-7.8,1-11.5l-2.6,4.6c-0.2,2.3-0.3,4.6-0.3,6.9c0,0.2,0,0.9,0,0.9V144h2V40.5z"/>
	<path class="st4" d="M232.9,86.7c-12.8,12.8-28.2,19-45.6,18.3c-16.2-0.6-30.3-6.7-41.9-18.1c-1.2-1.2-2.9-1.5-4.4-0.9
		c-1.5,0.6-2.5,2.1-2.5,3.8l-0.2,54.1h2.1V89.9c0-1.9,2.3-2.8,3.6-1.5c12,11.8,26.3,18.1,43.3,18.7c18.2,0.7,34-5.8,47.1-18.9
		c8.9-9.1,14.9-19.5,17.7-31V42.8C251.4,59.6,245,74.4,232.9,86.7z"/>
	<path class="st4" d="M223.8,6.7c9.1,10,13.5,21.6,13.3,34.9c-0.2,13.6-5.1,24.9-14.7,34.5c-9.6,9.6-20.9,14.2-34.2,14.2
		c-13.1,0-24.2-4.7-33.3-14.2c-9.1-9.6-14-20.9-14.2-34.3c-0.2-14,4.4-26,14.2-36.5c1.9-2,3.9-3.8,5.9-5.4h-3.1
		c-1.5,1.2-2.9,2.6-4.3,4c-10.2,10.9-15,23.2-14.7,37.9c0.2,13.6,5.2,25.5,14.8,35.6c9.4,9.9,21.1,14.8,34.7,14.8
		c13.8,0,25.8-5,35.6-14.8c10-10,15-21.8,15.2-35.8c0.2-13.7-4.4-25.9-13.8-36.3c-1.8-2-3.7-3.8-5.6-5.4h-3.2
		C219.1,1.9,221.5,4.2,223.8,6.7z"/>
	<path class="st4" d="M176.6,23.4c-2.2,3.2-3.4,7.1-3.4,11.2c0,4.2,1.3,8,3.4,11.2c-1.8-3.3-2.9-7.2-2.9-11.2
		C173.7,30.6,174.8,26.8,176.6,23.4z"/>
	<path class="st4" d="M53.8,28.8c0.5,1.8,0.8,3.6,0.9,5.6c0-0.1,0-0.2,0-0.3C54.7,32.2,54.4,30.5,53.8,28.8z"/>
	<path class="st4" d="M38,17.4c-9.2,0-16.7,7.5-16.7,16.7S28.8,50.8,38,50.8c9.1,0,16.5-7.4,16.7-16.4c0-1.9-0.3-3.8-0.9-5.6
		C51.6,22.2,45.4,17.4,38,17.4z"/>
	<path class="st4" d="M14.6,34.5c0.1-10.5,8.2-19,18.5-19.8c1.6-0.4,3.2-0.6,5-0.6c11.1,0,20.1,9,20.1,20.1c0,10.6-8.1,19.2-18.5,20
		c-1.6,0.4-3.2,0.6-5,0.6c-8.9,0-16.4-5.8-19-13.8c2.9,9.6,11.9,16.6,22.4,16.6c12.9,0,23.4-10.5,23.4-23.5S50.9,10.6,38,10.6
		c-12.9,0-23.4,10.5-23.4,23.5C14.6,34.2,14.6,34.4,14.6,34.5z"/>
	<path class="st4" d="M14.6,35.4c0-0.1,0-0.2,0-0.3C14.6,35.3,14.6,35.3,14.6,35.4z"/>
	<path class="st4" d="M34.6,54.7c1.7,0,3.4-0.2,5-0.6c-0.5,0-1,0.1-1.6,0.1c-11.1,0-20.1-9-20.1-20.1c0-9.4,6.4-17.2,15.1-19.5
		C22.8,15.4,14.7,24,14.6,34.5c0,0.2,0,0.4,0,0.7c0,0.1,0,0.2,0,0.3c0.1,1.9,0.4,3.8,1,5.6C18.3,49,25.8,54.7,34.6,54.7z"/>
	<path class="st4" d="M53.8,28.8c0.6,1.7,0.9,3.4,0.9,5.3c0,0.1,0,0.2,0,0.3c0,0.1,0,0.2,0,0.3c0,9.4-6.4,17.2-15.1,19.5
		c10.3-0.8,18.5-9.4,18.5-20C58.1,23,49.1,14,38,14c-1.7,0-3.4,0.2-5,0.6c0.5,0,1-0.1,1.6-0.1C43.7,14.6,51.3,20.6,53.8,28.8z"/>
	<path class="st4" d="M17.9,34.1c0,11.1,9,20.1,20.1,20.1c0.5,0,1.1,0,1.6-0.1c8.7-2.2,15.1-10.1,15.1-19.5c0-0.1,0-0.2,0-0.3
		c-0.2,9.1-7.6,16.4-16.7,16.4c-9.2,0-16.7-7.5-16.7-16.7S28.8,17.4,38,17.4c7.4,0,13.6,4.8,15.8,11.4c-2.5-8.2-10.1-14.2-19.2-14.2
		c-0.5,0-1.1,0-1.6,0.1C24.4,16.9,17.9,24.7,17.9,34.1z"/>
	<path class="st4" d="M210.9,25.3c1.5,2.8,2.3,6,2.3,9.4c0,3.4-0.8,6.6-2.3,9.4c1.8-2.7,2.9-5.9,2.9-9.4
		C213.8,31.2,212.8,27.9,210.9,25.3z"/>
	<path class="st4" d="M210.9,25.3c-3-4.4-8.1-7.3-13.8-7.3c-9.2,0-16.7,7.5-16.7,16.7c0,9.2,7.5,16.7,16.7,16.7
		c5.7,0,10.8-2.9,13.8-7.3c1.5-2.8,2.3-6,2.3-9.4C213.3,31.3,212.4,28.1,210.9,25.3z"/>
	<path class="st4" d="M193.2,14.6c0.7,0,1.3,0,2,0.1c0.6-0.1,1.3-0.1,2-0.1c11.1,0,20.1,9,20.1,20.1c0,11.1-9,20.1-20.1,20.1
		c-0.7,0-1.3,0-2-0.1c-0.6,0.1-1.3,0.1-2,0.1c-6.9,0-13-3.5-16.6-8.8c4,7.3,11.7,12.2,20.6,12.2c12.9,0,23.4-10.5,23.4-23.5
		c0-12.9-10.5-23.5-23.4-23.5c-8.9,0-16.6,4.9-20.6,12.2C180.2,18.1,186.3,14.6,193.2,14.6z"/>
	<path class="st4" d="M193.2,54.7c0.7,0,1.3,0,2-0.1c-10.2-1-18.1-9.6-18.1-20c0-10.4,7.9-19,18.1-20c-0.6-0.1-1.3-0.1-2-0.1
		c-6.9,0-13,3.5-16.6,8.8c-1.8,3.3-2.9,7.2-2.9,11.2c0,4.1,1,7.9,2.9,11.2C180.2,51.2,186.3,54.7,193.2,54.7z"/>
	<path class="st4" d="M210.9,25.3c1.8,2.7,2.9,5.9,2.9,9.4c0,3.5-1.1,6.7-2.9,9.4c-3.1,5.8-8.9,9.9-15.8,10.6c0.6,0.1,1.3,0.1,2,0.1
		c11.1,0,20.1-9,20.1-20.1c0-11.1-9-20.1-20.1-20.1c-0.7,0-1.3,0-2,0.1C202,15.3,207.9,19.5,210.9,25.3z"/>
	<path class="st4" d="M177.1,34.7c0,10.4,7.9,19,18.1,20c6.8-0.7,12.7-4.8,15.8-10.6c-3,4.4-8.1,7.3-13.8,7.3
		c-9.2,0-16.7-7.5-16.7-16.7c0-9.2,7.5-16.7,16.7-16.7c5.7,0,10.8,2.9,13.8,7.3c-3.1-5.8-8.9-9.9-15.8-10.6
		C185,15.7,177.1,24.2,177.1,34.7z"/>
	<path class="st4" d="M127.2,14c-11.7-4.7-24.2-4.8-35-0.3c1.8,4.3,3.2,8.7,4,13.3c0.6,3,0.9,6.2,1.1,9.4c6.9-4.6,16.2-4.6,24.7,0
		c0.2-3,0.5-5.9,1-8.8C123.9,22.9,125.3,18.4,127.2,14z"/>
	<path class="st4" d="M92.9,31.1c-0.2-1.1-0.3-2.2-0.5-3.3c-0.8-4.3-2.1-8.4-3.7-12.3c-1.7,0.9-3.3,1.9-4.8,3L92.9,31.1z"/>
	<path class="st4" d="M92.1,13.7c-0.6,0.3-1.2,0.5-1.8,0.8c1.7,4.1,3.1,8.4,3.9,12.9c0.4,2.3,0.7,4.6,0.9,7l1.6,2.3
		c0.2-0.1,0.3-0.2,0.5-0.3c-0.2-3.2-0.5-6.3-1.1-9.4C95.3,22.4,93.9,18,92.1,13.7z"/>
	<path class="st4" d="M90.3,14.5c-0.6,0.3-1.2,0.6-1.8,0.9c1.7,4,2.9,8.1,3.7,12.3c0.2,1.1,0.4,2.2,0.5,3.3l2.3,3.3
		c-0.2-2.4-0.5-4.7-0.9-7C93.4,22.9,92.1,18.6,90.3,14.5z"/>
	<path class="st4" d="M130.8,15.6c-1.7,4.1-3,8.4-3.8,12.8c0,0.2-0.1,0.4-0.1,0.6l6.8-11.9C132.7,16.6,131.7,16.1,130.8,15.6z"/>
	<path class="st4" d="M129,14.8c-0.6-0.3-1.2-0.5-1.8-0.8c-1.9,4.4-3.2,8.9-4.1,13.7c-0.5,2.8-0.9,5.8-1,8.8
		c0.2,0.1,0.3,0.2,0.5,0.2l1.7-3c0.2-1.9,0.4-3.8,0.8-5.6C125.8,23.4,127.2,19,129,14.8z"/>
	<path class="st4" d="M126.9,28.4c0.8-4.4,2.1-8.7,3.8-12.8c-0.6-0.3-1.2-0.6-1.8-0.8c-1.8,4.2-3.1,8.7-4,13.3
		c-0.3,1.8-0.6,3.7-0.8,5.6l2.6-4.6C126.9,28.8,126.9,28.6,126.9,28.4z"/>
</g>
<g>
	<path class="st5" d="M188.7,35.1c0,1,0.4,1.5,1.1,1.5c0.6,0,1-0.4,1-1h1.3v0.2c0,1.2-1,2-2.3,2c-1.6,0-2.5-1-2.5-2.6v-0.6
		c0-1.6,0.9-2.6,2.5-2.6c1.3,0,2.3,0.8,2.3,2V34h-1.3c0-0.6-0.4-1.1-1-1.1c-0.7,0-1.1,0.5-1.1,1.5V35.1z"/>
	<path class="st5" d="M196.7,37.6h-3.8v-5.7h3.8V33h-2.4v1.2h2.3v1h-2.3v1.3h2.4V37.6z"/>
	<path class="st5" d="M197.4,34.4c0-1.6,0.9-2.6,2.5-2.6s2.5,1,2.5,2.6v0.7c0,1.6-0.9,2.6-2.5,2.6c-1.6,0-2.5-1-2.5-2.6V34.4z
		 M198.8,35.1c0,1,0.5,1.5,1.1,1.5c0.7,0,1.1-0.5,1.1-1.5v-0.7c0-1-0.5-1.5-1.1-1.5c-0.7,0-1.1,0.5-1.1,1.5V35.1z"/>
	<path class="st5" d="M205.6,38.9v-7.6h0.4v7.6H205.6z"/>
	<path class="st5" d="M211.9,31.9c1.3,0,2,0.9,2,2c0,1.1-0.7,1.9-2,1.9h-1v1.8h-1.4v-5.7H211.9z M210.8,34.8h0.6
		c0.7,0,1.1-0.2,1.1-0.9c0-0.6-0.4-0.9-0.9-0.9h-0.7V34.8z"/>
	<path class="st5" d="M216.8,31.9c1.8,0,2.6,1.1,2.6,2.8c0,1.8-0.8,2.9-2.6,2.9h-2.2v-5.7H216.8z M215.9,36.5h0.6
		c0.8,0,1.4-0.3,1.4-1.7c0-1-0.3-1.8-1.4-1.8h-0.6V36.5z"/>
	<path class="st5" d="M223.5,33.8c-0.1-0.5-0.4-0.9-1-0.9c-0.7,0-1.1,0.5-1.1,1.4v0.7c0,0.9,0.3,1.5,1.2,1.5c0.6,0,1-0.4,1-0.9v-0.2
		h-1v-1h2.3v1.1c0,1.1-0.8,2.1-2.3,2.1c-1.8,0-2.5-1.1-2.5-2.6v-0.7c0-1.5,0.9-2.6,2.5-2.6c1.5,0,2.3,0.9,2.3,2H223.5z"/>
</g>
<g>
	<path class="st5" d="M177.4,23.6v-3.5l-2.7-4.5h0.9l2.1,3.7h0l2.1-3.7h0.9l-2.7,4.5v3.5H177.4z"/>
	<path class="st5" d="M182.9,23.7c-1.2,0-2-0.7-2-1.8c0-1.1,0.7-1.7,2.1-1.7h1.7v-0.7c0-0.9-0.5-1.3-1.4-1.3c-0.9,0-1.3,0.4-1.4,1.1
		h-0.8c0.1-1,0.8-1.8,2.2-1.8c1.3,0,2.2,0.7,2.2,2v4.3h-0.8v-0.8h0C184.4,23.2,183.8,23.7,182.9,23.7z M184.7,21.5v-0.8H183
		c-0.9,0-1.3,0.4-1.3,1.1c0,0.8,0.6,1.2,1.3,1.2C184,23,184.7,22.4,184.7,21.5z"/>
	<path class="st5" d="M187.3,17.5h0.8v0.9h0c0.2-0.4,0.8-1,1.8-1c1.3,0,2.2,0.8,2.2,2.3v3.9h-0.8v-3.8c0-1-0.6-1.7-1.6-1.7
		c-1.1,0-1.7,0.8-1.7,1.7v3.8h-0.8V17.5z"/>
	<path class="st5" d="M193.9,17.5h0.8v0.9h0c0.2-0.4,0.8-1,1.8-1c1.3,0,2.2,0.8,2.2,2.3v3.9H198v-3.8c0-1-0.6-1.7-1.6-1.7
		c-1.1,0-1.7,0.8-1.7,1.7v3.8h-0.8V17.5z"/>
	<path class="st5" d="M208,17.9c-0.1-1-0.9-1.8-2.1-1.8c-1.5,0-2.3,1-2.3,2.7v1.2c0,1.8,0.8,2.9,2.3,2.9c1.2,0,2.1-0.7,2.1-1.9v-0.9
		h-2.2v-0.7h3v1.6c0,1.5-1.2,2.6-2.9,2.6c-2.1,0-3.1-1.3-3.1-3.6v-1.2c0-2.2,1.1-3.5,3.1-3.5c1.7,0,2.8,1.1,2.9,2.5H208z"/>
	<path class="st5" d="M210.9,15.4c0.3,0,0.6,0.3,0.6,0.6c0,0.3-0.3,0.6-0.6,0.6s-0.6-0.3-0.6-0.6C210.3,15.6,210.6,15.4,210.9,15.4z
		 M210.5,17.5h0.8v6.1h-0.8V17.5z"/>
	<path class="st5" d="M213.2,17.5h0.8v0.8h0c0.2-0.4,0.6-0.9,1.6-0.9c0.1,0,0.3,0,0.4,0v0.8c-0.1,0-0.3,0-0.5,0
		c-1.1,0-1.5,0.7-1.5,1.7v3.8h-0.8V17.5z"/>
	<path class="st5" d="M222.1,20.2v0.6c0,1.7-0.9,2.8-2.6,2.8s-2.6-1.2-2.6-2.8v-0.6c0-1.7,0.9-2.8,2.6-2.8
		C221.2,17.4,222.1,18.5,222.1,20.2z M217.8,20.2v0.6c0,1.4,0.7,2.2,1.8,2.2c1.1,0,1.8-0.8,1.8-2.2v-0.6c0-1.4-0.7-2.2-1.8-2.2
		S217.8,18.9,217.8,20.2z"/>
	<path class="st5" d="M228.5,23.6h-0.8v-0.9h0c-0.2,0.5-0.8,1-1.8,1c-1.2,0-2.2-0.7-2.2-2.1v-4.1h0.8v3.9c0,1.2,0.7,1.6,1.6,1.6
		c1,0,1.6-0.7,1.6-1.7v-3.8h0.8V23.6z"/>
	<path class="st5" d="M232.2,21.1L232.2,21.1l-1.7,2.4h-0.9l2.1-3.1l-2.1-3.1h1l1.6,2.4h0l1.6-2.4h0.9l-2.1,3.1l2.1,3.1h-1
		L232.2,21.1z"/>
</g>
<path class="st3" d="M132,24"/>
<g>
	<g>
		<g>
			<path class="st6" d="M229.1,77.6c-3.9,0-7,3.1-7,7c0,3.9,3.1,7,7,7c3.9,0,7-3.1,7-7C236.1,80.7,232.9,77.6,229.1,77.6z
				 M225.5,82.1c0-0.3,0.1-0.4,0.4-0.4c0.6,0,1.3,0,1.9,0c0.4,0,0.9,0,1.3,0c1.1,0,2.1,0,3.2,0c0.3,0,0.4,0.1,0.4,0.4
				c0,0.2,0,0.4,0,0.5c0,0,0,0.1-0.1,0.1c-0.2,0.1-0.4,0.2-0.6,0.3c-0.9,0.5-1.8,1.1-2.8,1.6c-0.1,0.1-0.2,0.1-0.2,0
				c-1.1-0.6-2.2-1.3-3.3-1.9c-0.1,0-0.1-0.1-0.1-0.2C225.5,82.4,225.5,82.2,225.5,82.1z M225.5,86.4c0-0.5,0-1,0-1.4
				c0-0.5,0-0.9,0-1.4c0-0.1,0-0.2,0.1-0.1c0.6,0.4,1.3,0.7,1.9,1.1c0.1,0.1,0.1,0.1,0,0.2c-0.6,0.6-1.3,1.2-1.9,1.8
				c0,0-0.1,0.1-0.1,0C225.5,86.5,225.5,86.5,225.5,86.4z M232.2,87.4c-1.1,0-2.1,0-3.2,0c-1,0-2.1,0-3.1,0c-0.1,0-0.2,0-0.2-0.1
				c0-0.1,0.1-0.1,0.1-0.2c0.8-0.7,1.6-1.5,2.4-2.2c0.1-0.1,0.1-0.1,0.2,0c0.2,0.1,0.4,0.2,0.5,0.3c0.1,0.1,0.3,0.1,0.4,0
				c0.2-0.1,0.4-0.2,0.6-0.4c0.1,0,0.1,0,0.2,0c0.7,0.8,1.5,1.6,2.2,2.4c0,0,0.1,0.1,0.1,0.1C232.3,87.5,232.3,87.4,232.2,87.4z
				 M232.6,85c0,0.5,0,1,0,1.5c0,0.1,0,0.1,0,0.1c-0.1,0-0.1,0-0.1-0.1c-0.6-0.6-1.2-1.3-1.8-1.9c-0.1-0.1-0.1-0.1,0-0.2
				c0.6-0.3,1.2-0.7,1.7-1c0,0,0.1-0.1,0.2,0c0.1,0,0,0.1,0,0.2C232.6,84,232.6,84.5,232.6,85z"/>
		</g>
	</g>
	<g>
		<g>
			<g>
				<path class="st6" d="M229.1,58.4c-3.9,0-7,3.1-7,7c0,3.9,3.1,7,7,7c3.9,0,7-3.1,7-7C236.1,61.5,232.9,58.4,229.1,58.4z
					 M232.9,68.3c0,0.1-0.1,0.2-0.2,0.3c-0.1,0.1-0.3,0.3-0.4,0.4c-0.2,0.2-0.4,0.2-0.6,0.2c-3,0-5.6-2-6.3-4.9
					c-0.1-0.5-0.2-1-0.2-1.6c0-0.2,0.1-0.5,0.3-0.7c0.1-0.1,0.2-0.2,0.4-0.4c0.4-0.4,1.1-0.4,1.5,0.1c0.1,0.1,0.2,0.3,0.2,0.5
					c0.1,0.3,0.2,0.6,0.2,0.9c0.1,0.4,0,0.7-0.3,1c-0.1,0.1-0.1,0.1-0.2,0.2c-0.1,0.1-0.1,0.2-0.1,0.4c0.5,1.3,1.3,2.1,2.6,2.5
					c0.1,0,0.1,0,0.2,0c0.1-0.1,0.2-0.2,0.3-0.3c0.3-0.3,0.6-0.4,1-0.3c0.3,0.1,0.7,0.2,1,0.3C232.8,67.2,233.1,67.8,232.9,68.3z"/>
			</g>
		</g>
		<g>
			<rect x="234.8" y="65.1" class="st6" width="17.1" height="0.6"/>
		</g>
	</g>
	<g>
		<rect x="234.8" y="84.3" class="st6" width="17.1" height="0.6"/>
	</g>
</g>
<g>
	<path class="st6" d="M83.5,130.1v-4.9h-1.7v-0.4h3.8v0.4h-1.7v4.9H83.5z"/>
	<path class="st6" d="M85.5,128.3v-0.4c0-1.2,0.6-1.9,1.6-1.9c1,0,1.6,0.7,1.6,1.9v0.3h-2.8v0.2c0,0.9,0.5,1.5,1.2,1.5
		c0.6,0,1-0.4,1.1-0.7h0.4c-0.1,0.6-0.6,1.1-1.5,1.1C86.1,130.2,85.5,129.5,85.5,128.3z M88.3,127.8L88.3,127.8
		c0-0.9-0.5-1.4-1.2-1.4s-1.2,0.6-1.2,1.4v0H88.3z"/>
	<path class="st6" d="M89.6,127.8c0-1.1,0.6-1.8,1.6-1.8c1,0,1.5,0.6,1.5,1.2h-0.4c-0.1-0.4-0.5-0.8-1.1-0.8c-0.7,0-1.2,0.5-1.2,1.5
		v0.5c0,0.9,0.5,1.5,1.2,1.5c0.7,0,1-0.4,1.1-0.8h0.4c-0.1,0.6-0.5,1.2-1.5,1.2c-1,0-1.6-0.7-1.6-1.8V127.8z"/>
	<path class="st6" d="M93.9,124.5h0.4v2.2h0c0.1-0.3,0.5-0.7,1.3-0.7c0.8,0,1.4,0.5,1.4,1.5v2.6h-0.4v-2.6c0-0.7-0.4-1.2-1.1-1.2
		c-0.8,0-1.2,0.6-1.2,1.3v2.5h-0.4V124.5z"/>
	<path class="st6" d="M98.3,126.1h0.4v0.7h0c0.1-0.3,0.5-0.7,1.3-0.7c0.8,0,1.4,0.5,1.4,1.5v2.6H101v-2.6c0-0.7-0.4-1.2-1.1-1.2
		c-0.8,0-1.2,0.6-1.2,1.3v2.5h-0.4V126.1z"/>
	<path class="st6" d="M105.8,127.8v0.5c0,1.1-0.7,1.8-1.7,1.8s-1.7-0.7-1.7-1.8v-0.5c0-1.1,0.7-1.8,1.7-1.8
		C105.1,126,105.8,126.7,105.8,127.8z M102.9,127.9v0.4c0,1,0.5,1.5,1.3,1.5c0.8,0,1.3-0.5,1.3-1.5v-0.4c0-1-0.5-1.5-1.3-1.5
		S102.9,126.9,102.9,127.9z"/>
	<path class="st6" d="M107,124.5h0.4v5.6H107V124.5z"/>
	<path class="st6" d="M111.9,127.8v0.5c0,1.1-0.7,1.8-1.7,1.8s-1.7-0.7-1.7-1.8v-0.5c0-1.1,0.7-1.8,1.7-1.8
		C111.2,126,111.9,126.7,111.9,127.8z M109,127.9v0.4c0,1,0.5,1.5,1.3,1.5c0.8,0,1.3-0.5,1.3-1.5v-0.4c0-1-0.5-1.5-1.3-1.5
		S109,126.9,109,127.9z"/>
	<path class="st6" d="M115.7,130.1v-0.9h0c-0.1,0.4-0.7,0.8-1.3,0.8c-0.9,0-1.6-0.7-1.6-1.8v-0.5c0-1.1,0.7-1.8,1.6-1.8
		c0.6,0,1.1,0.3,1.3,0.8h0v-0.7h0.4v4.1c0,0.9-0.7,1.5-1.6,1.5c-0.9,0-1.5-0.5-1.5-1.1h0.4c0.1,0.4,0.5,0.8,1.1,0.8
		C115.2,131.2,115.7,130.8,115.7,130.1z M113.3,127.8v0.4c0,0.9,0.5,1.5,1.2,1.5c0.7,0,1.2-0.6,1.2-1.4v-0.4c0-0.9-0.5-1.5-1.2-1.5
		C113.7,126.4,113.3,126.9,113.3,127.8z"/>
	<path class="st6" d="M117.7,124.7c0.2,0,0.3,0.1,0.3,0.3s-0.1,0.3-0.3,0.3s-0.3-0.1-0.3-0.3S117.5,124.7,117.7,124.7z M117.5,126.1
		h0.4v4.1h-0.4V126.1z"/>
	<path class="st6" d="M119,128.3v-0.4c0-1.2,0.6-1.9,1.6-1.9c1,0,1.6,0.7,1.6,1.9v0.3h-2.8v0.2c0,0.9,0.5,1.5,1.2,1.5
		c0.6,0,1-0.4,1.1-0.7h0.4c-0.1,0.6-0.6,1.1-1.5,1.1C119.6,130.2,119,129.5,119,128.3z M121.8,127.8L121.8,127.8
		c0-0.9-0.5-1.4-1.2-1.4s-1.2,0.6-1.2,1.4v0H121.8z"/>
	<path class="st6" d="M124.6,126c1,0,1.4,0.6,1.4,1.1h-0.4c0-0.3-0.2-0.8-1-0.8c-0.5,0-1,0.2-1,0.8c0,0.5,0.5,0.6,1.1,0.8
		c0.7,0.2,1.4,0.3,1.4,1.1s-0.7,1.2-1.5,1.2c-1,0-1.5-0.5-1.5-1.1h0.4c0,0.4,0.3,0.8,1.1,0.8c0.6,0,1.1-0.3,1.1-0.8
		c0-0.5-0.4-0.6-1.1-0.8c-0.8-0.2-1.3-0.4-1.3-1.1C123.2,126.4,123.8,126,124.6,126z"/>
	<path class="st6" d="M129,126.4h-0.6v-0.4h0.6v-0.5c0-0.8,0.4-1.1,1.1-1.1c0.1,0,0.2,0,0.3,0v0.4c-0.1,0-0.2,0-0.3,0
		c-0.5,0-0.7,0.2-0.7,0.7v0.5h0.9v0.4h-0.9v3.7H129V126.4z"/>
	<path class="st6" d="M134.4,127.8v0.5c0,1.1-0.7,1.8-1.7,1.8s-1.7-0.7-1.7-1.8v-0.5c0-1.1,0.7-1.8,1.7-1.8
		C133.7,126,134.4,126.7,134.4,127.8z M131.5,127.9v0.4c0,1,0.5,1.5,1.3,1.5c0.8,0,1.3-0.5,1.3-1.5v-0.4c0-1-0.5-1.5-1.3-1.5
		S131.5,126.9,131.5,127.9z"/>
	<path class="st6" d="M135.5,126.1h0.4v0.7h0c0.1-0.3,0.4-0.7,1.1-0.7c0.1,0,0.2,0,0.3,0v0.4c-0.1,0-0.2,0-0.3,0
		c-0.7,0-1.1,0.5-1.1,1.3v2.4h-0.4V126.1z"/>
	<path class="st6" d="M141,126c1,0,1.4,0.6,1.4,1.1H142c0-0.3-0.2-0.8-1-0.8c-0.5,0-1,0.2-1,0.8c0,0.5,0.5,0.6,1.1,0.8
		c0.7,0.2,1.4,0.3,1.4,1.1s-0.7,1.2-1.5,1.2c-1,0-1.5-0.5-1.5-1.1h0.4c0,0.4,0.3,0.8,1.1,0.8c0.6,0,1.1-0.3,1.1-0.8
		c0-0.5-0.4-0.6-1.1-0.8c-0.8-0.2-1.3-0.4-1.3-1.1C139.6,126.4,140.2,126,141,126z"/>
	<path class="st6" d="M143.4,127.8c0-1.1,0.6-1.8,1.6-1.8c1,0,1.5,0.6,1.5,1.2h-0.4c-0.1-0.4-0.5-0.8-1.1-0.8
		c-0.7,0-1.2,0.5-1.2,1.5v0.5c0,0.9,0.5,1.5,1.2,1.5c0.7,0,1-0.4,1.1-0.8h0.4c-0.1,0.6-0.5,1.2-1.5,1.2c-1,0-1.6-0.7-1.6-1.8V127.8z
		"/>
	<path class="st6" d="M147.6,124.5h0.4v2.2h0c0.1-0.3,0.5-0.7,1.3-0.7c0.8,0,1.4,0.5,1.4,1.5v2.6h-0.4v-2.6c0-0.7-0.4-1.2-1.1-1.2
		c-0.8,0-1.2,0.6-1.2,1.3v2.5h-0.4V124.5z"/>
	<path class="st6" d="M155.1,127.8v0.5c0,1.1-0.7,1.8-1.7,1.8s-1.7-0.7-1.7-1.8v-0.5c0-1.1,0.7-1.8,1.7-1.8
		C154.5,126,155.1,126.7,155.1,127.8z M152.2,127.9v0.4c0,1,0.5,1.5,1.3,1.5c0.8,0,1.3-0.5,1.3-1.5v-0.4c0-1-0.5-1.5-1.3-1.5
		S152.2,126.9,152.2,127.9z"/>
	<path class="st6" d="M159.4,127.8v0.5c0,1.1-0.7,1.8-1.7,1.8s-1.7-0.7-1.7-1.8v-0.5c0-1.1,0.7-1.8,1.7-1.8
		C158.8,126,159.4,126.7,159.4,127.8z M156.5,127.9v0.4c0,1,0.5,1.5,1.3,1.5c0.8,0,1.3-0.5,1.3-1.5v-0.4c0-1-0.5-1.5-1.3-1.5
		S156.5,126.9,156.5,127.9z"/>
	<path class="st6" d="M160.6,124.5h0.4v5.6h-0.4V124.5z"/>
	<path class="st6" d="M163.6,126c1,0,1.4,0.6,1.4,1.1h-0.4c0-0.3-0.2-0.8-1-0.8c-0.5,0-1,0.2-1,0.8c0,0.5,0.5,0.6,1.1,0.8
		c0.7,0.2,1.4,0.3,1.4,1.1s-0.7,1.2-1.5,1.2c-1,0-1.5-0.5-1.5-1.1h0.4c0,0.4,0.3,0.8,1.1,0.8c0.6,0,1.1-0.3,1.1-0.8
		c0-0.5-0.4-0.6-1.1-0.8c-0.8-0.2-1.3-0.4-1.3-1.1C162.2,126.4,162.8,126,163.6,126z"/>
	<path class="st6" d="M165.8,131.2l0.3-1.8h0.5l-0.5,1.8H165.8z"/>
	<path class="st6" d="M170.5,126c1,0,1.4,0.6,1.4,1.1h-0.4c0-0.3-0.2-0.8-1-0.8c-0.5,0-1,0.2-1,0.8c0,0.5,0.5,0.6,1.1,0.8
		c0.7,0.2,1.4,0.3,1.4,1.1s-0.7,1.2-1.5,1.2c-1,0-1.5-0.5-1.5-1.1h0.4c0,0.4,0.3,0.8,1.1,0.8c0.6,0,1.1-0.3,1.1-0.8
		c0-0.5-0.4-0.6-1.1-0.8c-0.8-0.2-1.3-0.4-1.3-1.1C169.1,126.4,169.7,126,170.5,126z"/>
	<path class="st6" d="M173.3,124.7c0.2,0,0.3,0.1,0.3,0.3s-0.1,0.3-0.3,0.3s-0.3-0.1-0.3-0.3S173.1,124.7,173.3,124.7z M173.1,126.1
		h0.4v4.1h-0.4V126.1z"/>
	<path class="st6" d="M174.8,126.1h0.4v0.6h0c0.1-0.3,0.4-0.7,1.1-0.7c0.7,0,1.1,0.3,1.2,0.8h0c0.1-0.3,0.5-0.8,1.2-0.8
		c0.8,0,1.3,0.5,1.3,1.4v2.8h-0.4v-2.7c0-0.7-0.4-1.1-1-1.1c-0.7,0-1,0.5-1,1.1v2.6h-0.4v-2.6c0-0.7-0.4-1.1-1-1.1
		c-0.6,0-1,0.5-1,1.1v2.6h-0.4V126.1z"/>
	<path class="st6" d="M181.8,129.4L181.8,129.4l0,2h-0.4v-5.4h0.4v0.7h0c0.2-0.3,0.5-0.8,1.3-0.8c0.9,0,1.6,0.7,1.6,1.8v0.6
		c0,1.2-0.7,1.8-1.6,1.8C182.4,130.2,182,129.8,181.8,129.4z M184.3,128.3v-0.5c0-0.9-0.5-1.5-1.2-1.5c-0.8,0-1.3,0.7-1.3,1.5v0.5
		c0,0.9,0.5,1.5,1.3,1.5C183.7,129.8,184.3,129.3,184.3,128.3z"/>
	<path class="st6" d="M185.8,124.5h0.4v5.6h-0.4V124.5z"/>
	<path class="st6" d="M187.8,124.7c0.2,0,0.3,0.1,0.3,0.3s-0.1,0.3-0.3,0.3s-0.3-0.1-0.3-0.3S187.6,124.7,187.8,124.7z M187.6,126.1
		h0.4v4.1h-0.4V126.1z"/>
	<path class="st6" d="M189.6,126.4H189v-0.4h0.6v-0.5c0-0.8,0.4-1.1,1.1-1.1c0.1,0,0.2,0,0.3,0v0.4c-0.1,0-0.2,0-0.3,0
		c-0.5,0-0.7,0.2-0.7,0.7v0.5h0.9v0.4H190v3.7h-0.4V126.4z"/>
	<path class="st6" d="M192.1,124.7c0.2,0,0.3,0.1,0.3,0.3s-0.1,0.3-0.3,0.3s-0.3-0.1-0.3-0.3S191.9,124.7,192.1,124.7z M191.9,126.1
		h0.4v4.1h-0.4V126.1z"/>
	<path class="st6" d="M193.5,128.3v-0.4c0-1.2,0.6-1.9,1.6-1.9c1,0,1.6,0.7,1.6,1.9v0.3h-2.8v0.2c0,0.9,0.5,1.5,1.2,1.5
		c0.6,0,1-0.4,1.1-0.7h0.4c-0.1,0.6-0.6,1.1-1.5,1.1C194.1,130.2,193.5,129.5,193.5,128.3z M196.3,127.8L196.3,127.8
		c0-0.9-0.5-1.4-1.2-1.4s-1.2,0.6-1.2,1.4v0H196.3z"/>
	<path class="st6" d="M200.5,126.7L200.5,126.7l0-2.2h0.4v5.6h-0.4v-0.7h0c-0.1,0.3-0.5,0.8-1.3,0.8c-1,0-1.6-0.7-1.6-1.8v-0.6
		c0-1.1,0.7-1.8,1.6-1.8C199.9,126,200.3,126.4,200.5,126.7z M198,127.8v0.5c0,1,0.5,1.5,1.2,1.5c0.8,0,1.3-0.6,1.3-1.5v-0.5
		c0-0.8-0.5-1.5-1.3-1.5C198.6,126.4,198,126.8,198,127.8z"/>
	<path class="st6" d="M203.3,126.1h0.4l1.2,3.5h0l1.3-3.5h0.4l-1.5,4.1h-0.4L203.3,126.1z"/>
	<path class="st6" d="M207.2,128.3v-0.4c0-1.2,0.6-1.9,1.6-1.9c1,0,1.6,0.7,1.6,1.9v0.3h-2.8v0.2c0,0.9,0.5,1.5,1.2,1.5
		c0.6,0,1-0.4,1.1-0.7h0.4c-0.1,0.6-0.6,1.1-1.5,1.1C207.9,130.2,207.2,129.5,207.2,128.3z M210,127.8L210,127.8
		c0-0.9-0.5-1.4-1.2-1.4s-1.2,0.6-1.2,1.4v0H210z"/>
	<path class="st6" d="M211.6,126.1h0.4v0.7h0c0.1-0.3,0.4-0.7,1.1-0.7c0.1,0,0.2,0,0.3,0v0.4c-0.1,0-0.2,0-0.3,0
		c-0.7,0-1.1,0.5-1.1,1.3v2.4h-0.4V126.1z"/>
	<path class="st6" d="M215.4,126c1,0,1.4,0.6,1.4,1.1h-0.4c0-0.3-0.2-0.8-1-0.8c-0.5,0-1,0.2-1,0.8c0,0.5,0.5,0.6,1.1,0.8
		c0.7,0.2,1.4,0.3,1.4,1.1s-0.7,1.2-1.5,1.2c-1,0-1.5-0.5-1.5-1.1h0.4c0,0.4,0.3,0.8,1.1,0.8c0.6,0,1.1-0.3,1.1-0.8
		c0-0.5-0.4-0.6-1.1-0.8c-0.8-0.2-1.3-0.4-1.3-1.1C214,126.4,214.7,126,215.4,126z"/>
	<path class="st6" d="M218.2,124.7c0.2,0,0.3,0.1,0.3,0.3s-0.1,0.3-0.3,0.3s-0.3-0.1-0.3-0.3S218,124.7,218.2,124.7z M218,126.1h0.4
		v4.1H218V126.1z"/>
	<path class="st6" d="M222.9,127.8v0.5c0,1.1-0.7,1.8-1.7,1.8s-1.7-0.7-1.7-1.8v-0.5c0-1.1,0.7-1.8,1.7-1.8
		C222.3,126,222.9,126.7,222.9,127.8z M220,127.9v0.4c0,1,0.5,1.5,1.3,1.5c0.8,0,1.3-0.5,1.3-1.5v-0.4c0-1-0.5-1.5-1.3-1.5
		S220,126.9,220,127.9z"/>
	<path class="st6" d="M224,126.1h0.4v0.7h0c0.1-0.3,0.5-0.7,1.3-0.7c0.8,0,1.4,0.5,1.4,1.5v2.6h-0.4v-2.6c0-0.7-0.4-1.2-1.1-1.2
		c-0.8,0-1.2,0.6-1.2,1.3v2.5H224V126.1z"/>
	<path class="st6" d="M228.7,129.5c0.2,0,0.3,0.2,0.3,0.3s-0.2,0.3-0.3,0.3s-0.3-0.2-0.3-0.3S228.5,129.5,228.7,129.5z M229,124.8
		l0,3.8h-0.4l0-3.8H229z"/>
</g>
<g>
	<path class="st6" d="M21.1,113.4c0,0.5,0.4,1.1,1.5,1.1c0.8,0,1.4-0.4,1.4-1.1c0-0.6-0.4-0.9-1.1-1l-0.8-0.2
		c-0.7-0.2-1.2-0.6-1.2-1.4c0-0.9,0.8-1.5,1.7-1.5c1,0,1.7,0.5,1.7,1.4h-0.4c0-0.5-0.4-1-1.3-1c-0.8,0-1.3,0.4-1.3,1.1
		c0,0.5,0.3,0.8,0.9,1L23,112c0.9,0.2,1.4,0.6,1.4,1.4c0,1-0.8,1.5-1.9,1.5c-1.4,0-1.8-0.9-1.8-1.5H21.1z"/>
	<path class="st6" d="M28.7,112.5v0.5c0,1.1-0.7,1.8-1.7,1.8s-1.7-0.7-1.7-1.8v-0.5c0-1.1,0.7-1.8,1.7-1.8
		C28,110.7,28.7,111.4,28.7,112.5z M25.7,112.5v0.4c0,1,0.5,1.5,1.3,1.5c0.8,0,1.3-0.5,1.3-1.5v-0.4c0-1-0.5-1.5-1.3-1.5
		S25.7,111.6,25.7,112.5z"/>
	<path class="st6" d="M29.8,109.2h0.4v5.6h-0.4V109.2z"/>
	<path class="st6" d="M34.6,114.8h-0.4v-0.7h0c-0.1,0.4-0.5,0.7-1.3,0.7c-0.8,0-1.4-0.5-1.4-1.4v-2.7h0.4v2.6c0,0.7,0.4,1.1,1.1,1.1
		c0.8,0,1.2-0.6,1.2-1.3v-2.5h0.4V114.8z"/>
	<path class="st6" d="M36.1,109.7h0.4v1h0.9v0.4h-0.9v2.8c0,0.5,0.2,0.6,0.7,0.6c0.1,0,0.2,0,0.3,0v0.4c-0.1,0-0.2,0-0.4,0
		c-0.8,0-1-0.3-1-1v-2.7h-0.6v-0.4h0.6V109.7z"/>
	<path class="st6" d="M38.7,109.4c0.2,0,0.3,0.1,0.3,0.3s-0.1,0.3-0.3,0.3s-0.3-0.1-0.3-0.3S38.6,109.4,38.7,109.4z M38.5,110.7h0.4
		v4.1h-0.4V110.7z"/>
	<path class="st6" d="M43.5,112.5v0.5c0,1.1-0.7,1.8-1.7,1.8s-1.7-0.7-1.7-1.8v-0.5c0-1.1,0.7-1.8,1.7-1.8
		C42.8,110.7,43.5,111.4,43.5,112.5z M40.5,112.5v0.4c0,1,0.5,1.5,1.3,1.5c0.8,0,1.3-0.5,1.3-1.5v-0.4c0-1-0.5-1.5-1.3-1.5
		S40.5,111.6,40.5,112.5z"/>
	<path class="st6" d="M44.6,110.7H45v0.7h0c0.1-0.3,0.5-0.7,1.3-0.7c0.8,0,1.4,0.5,1.4,1.5v2.6h-0.4v-2.6c0-0.7-0.4-1.2-1.1-1.2
		c-0.8,0-1.2,0.6-1.2,1.3v2.5h-0.4V110.7z"/>
	<path class="st6" d="M50.2,110.7c1,0,1.4,0.6,1.4,1.1h-0.4c0-0.3-0.2-0.8-1-0.8c-0.5,0-1,0.2-1,0.8c0,0.5,0.5,0.6,1.1,0.8
		c0.7,0.2,1.4,0.3,1.4,1.1s-0.7,1.2-1.5,1.2c-1,0-1.5-0.5-1.5-1.1h0.4c0,0.4,0.3,0.8,1.1,0.8c0.6,0,1.1-0.3,1.1-0.8
		c0-0.5-0.4-0.6-1.1-0.8c-0.8-0.2-1.3-0.4-1.3-1.1C48.8,111,49.4,110.7,50.2,110.7z"/>
	<path class="st6" d="M54.6,109.7H55v1h0.9v0.4H55v2.8c0,0.5,0.2,0.6,0.7,0.6c0.1,0,0.2,0,0.3,0v0.4c-0.1,0-0.2,0-0.4,0
		c-0.8,0-1-0.3-1-1v-2.7H54v-0.4h0.6V109.7z"/>
	<path class="st6" d="M56.7,113v-0.4c0-1.2,0.6-1.9,1.6-1.9c1,0,1.6,0.7,1.6,1.9v0.3h-2.8v0.2c0,0.9,0.5,1.5,1.2,1.5
		c0.6,0,1-0.4,1.1-0.7h0.4c-0.1,0.6-0.6,1.1-1.5,1.1C57.3,114.9,56.7,114.1,56.7,113z M59.5,112.5L59.5,112.5c0-0.9-0.5-1.4-1.2-1.4
		s-1.2,0.6-1.2,1.4v0H59.5z"/>
	<path class="st6" d="M60.8,112.5c0-1.1,0.6-1.8,1.6-1.8c1,0,1.5,0.6,1.5,1.2h-0.4c-0.1-0.4-0.5-0.8-1.1-0.8c-0.7,0-1.2,0.5-1.2,1.5
		v0.5c0,0.9,0.5,1.5,1.2,1.5c0.7,0,1-0.4,1.1-0.8H64c-0.1,0.6-0.5,1.2-1.5,1.2c-1,0-1.6-0.7-1.6-1.8V112.5z"/>
	<path class="st6" d="M65.1,109.2h0.4v2.2h0c0.1-0.3,0.5-0.7,1.3-0.7c0.8,0,1.4,0.5,1.4,1.5v2.6h-0.4v-2.6c0-0.7-0.4-1.2-1.1-1.2
		c-0.8,0-1.2,0.6-1.2,1.3v2.5h-0.4V109.2z"/>
	<path class="st6" d="M69.4,110.7h0.4v0.7h0c0.1-0.3,0.5-0.7,1.3-0.7c0.8,0,1.4,0.5,1.4,1.5v2.6h-0.4v-2.6c0-0.7-0.4-1.2-1.1-1.2
		c-0.8,0-1.2,0.6-1.2,1.3v2.5h-0.4V110.7z"/>
	<path class="st6" d="M77,112.5v0.5c0,1.1-0.7,1.8-1.7,1.8s-1.7-0.7-1.7-1.8v-0.5c0-1.1,0.7-1.8,1.7-1.8
		C76.3,110.7,77,111.4,77,112.5z M74.1,112.5v0.4c0,1,0.5,1.5,1.3,1.5c0.8,0,1.3-0.5,1.3-1.5v-0.4c0-1-0.5-1.5-1.3-1.5
		S74.1,111.6,74.1,112.5z"/>
	<path class="st6" d="M80.2,114.1L80.2,114.1l0,2h-0.4v-5.4h0.4v0.7h0c0.2-0.3,0.5-0.8,1.3-0.8c0.9,0,1.6,0.7,1.6,1.8v0.6
		c0,1.2-0.7,1.8-1.6,1.8C80.7,114.9,80.4,114.4,80.2,114.1z M82.6,113v-0.5c0-0.9-0.5-1.5-1.2-1.5c-0.8,0-1.3,0.7-1.3,1.5v0.5
		c0,0.9,0.5,1.5,1.3,1.5C82.1,114.5,82.6,114,82.6,113z"/>
	<path class="st6" d="M87.3,112.5v0.5c0,1.1-0.7,1.8-1.7,1.8S84,114.1,84,113v-0.5c0-1.1,0.7-1.8,1.7-1.8
		C86.7,110.7,87.3,111.4,87.3,112.5z M84.4,112.5v0.4c0,1,0.5,1.5,1.3,1.5c0.8,0,1.3-0.5,1.3-1.5v-0.4c0-1-0.5-1.5-1.3-1.5
		S84.4,111.6,84.4,112.5z"/>
	<path class="st6" d="M91.5,114.8h-0.4v-0.7h0c-0.1,0.4-0.5,0.7-1.3,0.7c-0.8,0-1.4-0.5-1.4-1.4v-2.7h0.4v2.6c0,0.7,0.4,1.1,1.1,1.1
		c0.8,0,1.2-0.6,1.2-1.3v-2.5h0.4V114.8z"/>
	<path class="st6" d="M92.8,110.7h0.4v0.7h0c0.1-0.3,0.4-0.7,1.1-0.7c0.1,0,0.2,0,0.3,0v0.4c-0.1,0-0.2,0-0.3,0
		c-0.7,0-1.1,0.5-1.1,1.3v2.4h-0.4V110.7z"/>
	<path class="st6" d="M97.1,109.2h0.4v5.6h-0.4V109.2z"/>
	<path class="st6" d="M98.6,111.3l0.3-1.8h0.5l-0.5,1.8H98.6z"/>
	<path class="st6" d="M99.8,113v-0.4c0-1.2,0.6-1.9,1.6-1.9c1,0,1.6,0.7,1.6,1.9v0.3h-2.8v0.2c0,0.9,0.5,1.5,1.2,1.5
		c0.6,0,1-0.4,1.1-0.7h0.4c-0.1,0.6-0.6,1.1-1.5,1.1C100.4,114.9,99.8,114.1,99.8,113z M102.6,112.5L102.6,112.5
		c0-0.9-0.5-1.4-1.2-1.4s-1.2,0.6-1.2,1.4v0H102.6z M101.2,110.1l0.8-1.1h0.5l-0.9,1.1H101.2z"/>
	<path class="st6" d="M104,112.5c0-1.1,0.6-1.8,1.6-1.8c1,0,1.5,0.6,1.5,1.2h-0.4c-0.1-0.4-0.5-0.8-1.1-0.8c-0.7,0-1.2,0.5-1.2,1.5
		v0.5c0,0.9,0.5,1.5,1.2,1.5c0.7,0,1-0.4,1.1-0.8h0.4c-0.1,0.6-0.5,1.2-1.5,1.2c-1,0-1.6-0.7-1.6-1.8V112.5z"/>
	<path class="st6" d="M111.4,112.5v0.5c0,1.1-0.7,1.8-1.7,1.8s-1.7-0.7-1.7-1.8v-0.5c0-1.1,0.7-1.8,1.7-1.8
		C110.7,110.7,111.4,111.4,111.4,112.5z M108.4,112.5v0.4c0,1,0.5,1.5,1.3,1.5c0.8,0,1.3-0.5,1.3-1.5v-0.4c0-1-0.5-1.5-1.3-1.5
		S108.4,111.6,108.4,112.5z"/>
	<path class="st6" d="M112.5,109.2h0.4v5.6h-0.4V109.2z"/>
	<path class="st6" d="M114.1,113v-0.4c0-1.2,0.6-1.9,1.6-1.9c1,0,1.6,0.7,1.6,1.9v0.3h-2.8v0.2c0,0.9,0.5,1.5,1.2,1.5
		c0.6,0,1-0.4,1.1-0.7h0.4c-0.1,0.6-0.6,1.1-1.5,1.1C114.7,114.9,114.1,114.1,114.1,113z M116.9,112.5L116.9,112.5
		c0-0.9-0.5-1.4-1.2-1.4s-1.2,0.6-1.2,1.4v0H116.9z"/>
	<path class="st6" d="M118,115.9l0.3-1.8h0.5l-0.5,1.8H118z"/>
	<path class="st6" d="M121,110.7h0.4l1.2,3.5h0l1.3-3.5h0.4l-1.5,4.1h-0.4L121,110.7z"/>
	<path class="st6" d="M124.9,113v-0.4c0-1.2,0.6-1.9,1.6-1.9c1,0,1.6,0.7,1.6,1.9v0.3h-2.8v0.2c0,0.9,0.5,1.5,1.2,1.5
		c0.6,0,1-0.4,1.1-0.7h0.4c-0.1,0.6-0.6,1.1-1.5,1.1C125.5,114.9,124.9,114.1,124.9,113z M127.7,112.5L127.7,112.5
		c0-0.9-0.5-1.4-1.2-1.4s-1.2,0.6-1.2,1.4v0H127.7z"/>
	<path class="st6" d="M129.2,110.7h0.4v0.7h0c0.1-0.3,0.4-0.7,1.1-0.7c0.1,0,0.2,0,0.3,0v0.4c-0.1,0-0.2,0-0.3,0
		c-0.7,0-1.1,0.5-1.1,1.3v2.4h-0.4V110.7z"/>
	<path class="st6" d="M133.1,110.7c1,0,1.4,0.6,1.4,1.1h-0.4c0-0.3-0.2-0.8-1-0.8c-0.5,0-1,0.2-1,0.8c0,0.5,0.5,0.6,1.1,0.8
		c0.7,0.2,1.4,0.3,1.4,1.1s-0.7,1.2-1.5,1.2c-1,0-1.5-0.5-1.5-1.1h0.4c0,0.4,0.3,0.8,1.1,0.8c0.6,0,1.1-0.3,1.1-0.8
		c0-0.5-0.4-0.6-1.1-0.8c-0.8-0.2-1.3-0.4-1.3-1.1C131.7,111,132.3,110.7,133.1,110.7z"/>
	<path class="st6" d="M135.9,109.4c0.2,0,0.3,0.1,0.3,0.3s-0.1,0.3-0.3,0.3s-0.3-0.1-0.3-0.3S135.7,109.4,135.9,109.4z M135.7,110.7
		h0.4v4.1h-0.4V110.7z"/>
	<path class="st6" d="M140.6,112.5v0.5c0,1.1-0.7,1.8-1.7,1.8s-1.7-0.7-1.7-1.8v-0.5c0-1.1,0.7-1.8,1.7-1.8
		C139.9,110.7,140.6,111.4,140.6,112.5z M137.7,112.5v0.4c0,1,0.5,1.5,1.3,1.5c0.8,0,1.3-0.5,1.3-1.5v-0.4c0-1-0.5-1.5-1.3-1.5
		S137.7,111.6,137.7,112.5z"/>
	<path class="st6" d="M141.7,110.7h0.4v0.7h0c0.1-0.3,0.5-0.7,1.3-0.7c0.8,0,1.4,0.5,1.4,1.5v2.6h-0.4v-2.6c0-0.7-0.4-1.2-1.1-1.2
		c-0.8,0-1.2,0.6-1.2,1.3v2.5h-0.4V110.7z"/>
	<path class="st6" d="M149,110.7c1,0,1.4,0.6,1.4,1.1H150c0-0.3-0.2-0.8-1-0.8c-0.5,0-1,0.2-1,0.8c0,0.5,0.5,0.6,1.1,0.8
		c0.7,0.2,1.4,0.3,1.4,1.1s-0.7,1.2-1.5,1.2c-1,0-1.5-0.5-1.5-1.1h0.4c0,0.4,0.3,0.8,1.1,0.8c0.6,0,1.1-0.3,1.1-0.8
		c0-0.5-0.4-0.6-1.1-0.8c-0.8-0.2-1.3-0.4-1.3-1.1C147.6,111,148.2,110.7,149,110.7z"/>
	<path class="st6" d="M151.8,109.4c0.2,0,0.3,0.1,0.3,0.3s-0.1,0.3-0.3,0.3s-0.3-0.1-0.3-0.3S151.6,109.4,151.8,109.4z M151.5,110.7
		h0.4v4.1h-0.4V110.7z"/>
	<path class="st6" d="M153.3,110.7h0.4v0.6h0c0.1-0.3,0.4-0.7,1.1-0.7c0.7,0,1.1,0.3,1.2,0.8h0c0.1-0.3,0.5-0.8,1.2-0.8
		c0.8,0,1.3,0.5,1.3,1.4v2.8h-0.4v-2.7c0-0.7-0.4-1.1-1-1.1c-0.7,0-1,0.5-1,1.1v2.6h-0.4v-2.6c0-0.7-0.4-1.1-1-1.1
		c-0.6,0-1,0.5-1,1.1v2.6h-0.4V110.7z"/>
	<path class="st6" d="M160.3,114.1L160.3,114.1l0,2h-0.4v-5.4h0.4v0.7h0c0.2-0.3,0.5-0.8,1.3-0.8c0.9,0,1.6,0.7,1.6,1.8v0.6
		c0,1.2-0.7,1.8-1.6,1.8C160.9,114.9,160.5,114.4,160.3,114.1z M162.7,113v-0.5c0-0.9-0.5-1.5-1.2-1.5c-0.8,0-1.3,0.7-1.3,1.5v0.5
		c0,0.9,0.5,1.5,1.3,1.5C162.2,114.5,162.7,114,162.7,113z"/>
	<path class="st6" d="M164.3,109.2h0.4v5.6h-0.4V109.2z"/>
	<path class="st6" d="M166.3,109.4c0.2,0,0.3,0.1,0.3,0.3s-0.1,0.3-0.3,0.3s-0.3-0.1-0.3-0.3S166.1,109.4,166.3,109.4z M166.1,110.7
		h0.4v4.1h-0.4V110.7z"/>
	<path class="st6" d="M168.1,111.1h-0.6v-0.4h0.6v-0.5c0-0.8,0.4-1.1,1.1-1.1c0.1,0,0.2,0,0.3,0v0.4c-0.1,0-0.2,0-0.3,0
		c-0.5,0-0.7,0.2-0.7,0.7v0.5h0.9v0.4h-0.9v3.7h-0.4V111.1z"/>
	<path class="st6" d="M170.6,109.4c0.2,0,0.3,0.1,0.3,0.3s-0.1,0.3-0.3,0.3s-0.3-0.1-0.3-0.3S170.4,109.4,170.6,109.4z M170.4,110.7
		h0.4v4.1h-0.4V110.7z"/>
	<path class="st6" d="M172,113v-0.4c0-1.2,0.6-1.9,1.6-1.9c1,0,1.6,0.7,1.6,1.9v0.3h-2.8v0.2c0,0.9,0.5,1.5,1.2,1.5
		c0.6,0,1-0.4,1.1-0.7h0.4c-0.1,0.6-0.6,1.1-1.5,1.1C172.6,114.9,172,114.1,172,113z M174.8,112.5L174.8,112.5
		c0-0.9-0.5-1.4-1.2-1.4s-1.2,0.6-1.2,1.4v0H174.8z M173.4,110.1l0.8-1.1h0.5l-0.9,1.1H173.4z"/>
	<path class="st6" d="M176.1,113v-0.4c0-1.2,0.6-1.9,1.6-1.9c1,0,1.6,0.7,1.6,1.9v0.3h-2.8v0.2c0,0.9,0.5,1.5,1.2,1.5
		c0.6,0,1-0.4,1.1-0.7h0.4c-0.1,0.6-0.6,1.1-1.5,1.1C176.7,114.9,176.1,114.1,176.1,113z M178.9,112.5L178.9,112.5
		c0-0.9-0.5-1.4-1.2-1.4s-1.2,0.6-1.2,1.4v0H178.9z"/>
	<path class="st6" d="M180.7,114.2c0.2,0,0.3,0.2,0.3,0.3s-0.2,0.3-0.3,0.3s-0.3-0.2-0.3-0.3S180.6,114.2,180.7,114.2z M181,109.5
		l0,3.8h-0.4l0-3.8H181z"/>
</g>
<g>
	<path class="st5" d="M153,88.2v-1c0,0,0.3,0,0.3,0c0.5,0,0.7-0.1,0.8-0.5c0,0,0-0.2,0-0.2l-1.6-4.7h1.4l1,3.6h0l1-3.6h1.3l-1.6,4.8
		c-0.4,1.2-1,1.6-2.2,1.6C153.5,88.2,153.1,88.2,153,88.2z"/>
	<path class="st5" d="M157.6,86.8h1.2c0.1,0.3,0.5,0.5,0.9,0.5c0.7,0,1-0.4,1-0.9v-0.8h0c-0.2,0.5-0.8,0.8-1.4,0.8
		c-1.1,0-1.9-0.9-1.9-2.3c0-1.5,0.7-2.4,1.9-2.4c0.7,0,1.2,0.4,1.4,0.9h0v-0.8h1.3v4.6c0,1.1-0.9,1.8-2.3,1.8
		C158.5,88.3,157.7,87.7,157.6,86.8z M160.8,84.2c0-0.8-0.4-1.4-1-1.4c-0.6,0-1,0.5-1,1.4c0,0.9,0.4,1.3,1,1.3
		C160.4,85.5,160.8,85,160.8,84.2z"/>
	<path class="st5" d="M170,83.4c0,1.4-0.6,2.2-1.7,2.2c-0.5,0-1-0.3-1-0.7h-0.1c-0.2,0.4-0.5,0.7-1,0.7c-0.9,0-1.5-0.7-1.5-1.8
		c0-1.1,0.6-1.8,1.5-1.8c0.5,0,0.9,0.2,1,0.6h0.1v-0.5h0.9v2.3c0,0.3,0.1,0.5,0.4,0.5c0.4,0,0.7-0.5,0.7-1.5c0-1.6-1.1-2.6-2.7-2.6
		c-1.7,0-2.8,1.2-2.8,3c0,1.8,1.2,2.9,3,2.9c0.5,0,0.9-0.1,1.2-0.2v0.7c-0.3,0.1-0.8,0.2-1.3,0.2c-2.2,0-3.7-1.4-3.7-3.6
		c0-2.2,1.5-3.6,3.7-3.6C168.6,80.2,170,81.5,170,83.4z M165.6,83.9c0,0.6,0.3,1,0.7,1c0.5,0,0.8-0.4,0.8-1c0-0.6-0.3-1-0.8-1
		C165.9,82.9,165.6,83.2,165.6,83.9z"/>
	<path class="st5" d="M170.6,84.2c0-1.5,0.9-2.4,2.3-2.4c1.4,0,2.3,0.9,2.3,2.4c0,1.5-0.9,2.4-2.3,2.4
		C171.5,86.6,170.6,85.7,170.6,84.2z M173.9,84.2c0-0.9-0.4-1.5-1-1.5c-0.6,0-1,0.5-1,1.5c0,0.9,0.4,1.5,1,1.5
		C173.5,85.6,173.9,85.1,173.9,84.2z"/>
	<path class="st5" d="M180.5,84.2c0,1.5-0.7,2.4-1.9,2.4c-0.7,0-1.2-0.3-1.4-0.9h0V88h-1.3v-6.2h1.3v0.8h0c0.3-0.5,0.8-0.9,1.4-0.9
		C179.7,81.8,180.5,82.7,180.5,84.2z M179.2,84.2c0-0.8-0.4-1.4-1-1.4c-0.6,0-1,0.6-1,1.4c0,0.8,0.4,1.4,1,1.4
		C178.8,85.6,179.2,85,179.2,84.2z"/>
	<path class="st5" d="M185.4,85.1c-0.1,0.9-1,1.5-2.1,1.5c-1.4,0-2.3-0.9-2.3-2.4c0-1.5,0.9-2.4,2.2-2.4c1.4,0,2.2,0.9,2.2,2.3v0.4
		h-3.2v0.1c0,0.7,0.4,1.1,1.1,1.1c0.5,0,0.8-0.2,0.9-0.6H185.4z M182.2,83.7h2c0-0.6-0.4-1-1-1C182.6,82.7,182.2,83.1,182.2,83.7z"
		/>
	<path class="st5" d="M186,81.9h1.2v0.8h0c0.2-0.6,0.6-0.9,1.1-0.9c0.1,0,0.3,0,0.4,0v1.1c-0.1,0-0.3-0.1-0.5-0.1c-0.6,0-1,0.4-1,1
		v2.6H186V81.9z"/>
	<path class="st5" d="M189,85.2c0-0.8,0.7-1.3,1.8-1.4l1.2-0.1v-0.3c0-0.4-0.3-0.7-0.8-0.7c-0.5,0-0.8,0.2-0.8,0.6h-1.2
		c0-0.9,0.8-1.5,2-1.5c1.2,0,2,0.6,2,1.6v3.2H192v-0.7h0c-0.3,0.5-0.8,0.8-1.4,0.8C189.7,86.6,189,86,189,85.2z M192,84.8v-0.3
		l-1,0.1c-0.5,0-0.7,0.2-0.7,0.6c0,0.3,0.3,0.6,0.7,0.6C191.5,85.7,192,85.3,192,84.8z"/>
	<path class="st5" d="M194,81.9h1.2v0.8h0c0.2-0.6,0.7-0.9,1.3-0.9c0.7,0,1.1,0.3,1.3,1h0c0.2-0.6,0.8-1,1.4-1
		c0.9,0,1.5,0.6,1.5,1.6v3.2h-1.3v-2.9c0-0.5-0.3-0.8-0.8-0.8c-0.5,0-0.8,0.4-0.8,0.9v2.8h-1.2v-2.9c0-0.5-0.3-0.8-0.8-0.8
		c-0.5,0-0.8,0.4-0.8,0.9v2.8H194V81.9z"/>
	<path class="st5" d="M201.8,85.9c0-0.4,0.3-0.7,0.7-0.7c0.4,0,0.7,0.3,0.7,0.7c0,0.4-0.3,0.7-0.7,0.7
		C202.2,86.6,201.8,86.2,201.8,85.9z"/>
	<path class="st5" d="M204.2,80.6c0-0.4,0.3-0.7,0.7-0.7c0.4,0,0.7,0.3,0.7,0.7c0,0.4-0.3,0.7-0.7,0.7
		C204.5,81.2,204.2,80.9,204.2,80.6z M204.2,81.9h1.3v4.7h-1.3V81.9z"/>
	<path class="st5" d="M206.2,84.2c0-1.5,0.9-2.4,2.3-2.4c1.4,0,2.3,0.9,2.3,2.4c0,1.5-0.9,2.4-2.3,2.4
		C207,86.6,206.2,85.7,206.2,84.2z M209.5,84.2c0-0.9-0.4-1.5-1-1.5c-0.6,0-1,0.5-1,1.5c0,0.9,0.4,1.5,1,1.5
		C209.1,85.6,209.5,85.1,209.5,84.2z"/>
</g>
<g>
	<path class="st5" d="M137.7,63.6L137.7,63.6l-1.6,1.1v-1.2l1.6-1.1h1.3v6.3h-1.3V63.6z"/>
	<path class="st5" d="M143.8,62.4h1.2c-0.6,0.7-1.1,2.4-1.1,3.8c0,1.4,0.5,3.1,1.1,3.8h-1.2c-0.9-1.1-1.3-2.3-1.3-3.8
		C142.5,64.7,142.9,63.4,143.8,62.4z"/>
	<path class="st5" d="M145.6,66.9h1.2c0.1,0.5,0.5,0.9,1.1,0.9c0.7,0,1.2-0.5,1.2-1.2c0-0.7-0.5-1.1-1.2-1.1c-0.5,0-0.9,0.2-1.1,0.6
		h-1.1l0.3-3.7h4v1h-3l-0.2,1.8h0c0.3-0.4,0.8-0.7,1.4-0.7c1.2,0,2,0.9,2,2.1c0,1.3-1,2.2-2.4,2.2C146.7,68.8,145.7,68,145.6,66.9z"
		/>
	<path class="st5" d="M151.1,67c0-0.8,0.6-1.4,1.5-1.6v0c-0.7-0.2-1.2-0.7-1.2-1.4c0-1,1-1.7,2.3-1.7s2.3,0.7,2.3,1.7
		c0,0.7-0.5,1.2-1.2,1.4v0c0.9,0.2,1.5,0.8,1.5,1.6c0,1.1-1,1.8-2.5,1.8C152.1,68.8,151.1,68,151.1,67z M154.8,66.9
		c0-0.6-0.5-1-1.2-1s-1.2,0.4-1.2,1c0,0.6,0.5,1,1.2,1S154.8,67.4,154.8,66.9z M154.6,64.1c0-0.5-0.4-0.9-1-0.9c-0.6,0-1,0.4-1,0.9
		c0,0.5,0.4,0.9,1,0.9C154.2,64.9,154.6,64.6,154.6,64.1z"/>
	<path class="st5" d="M158.5,63.6L158.5,63.6l-1.6,1.1v-1.2l1.6-1.1h1.3v6.3h-1.3V63.6z"/>
	<path class="st5" d="M162.1,70h-1.2c0.6-0.7,1.1-2.4,1.1-3.8c0-1.4-0.5-3.1-1.1-3.8h1.2c0.9,1.1,1.3,2.3,1.3,3.8
		C163.4,67.7,163,68.9,162.1,70z"/>
	<path class="st5" d="M166.3,67.1h1.3c0.1,0.4,0.5,0.7,1.1,0.7c0.9,0,1.4-0.9,1.4-2.3h0c-0.2,0.6-0.8,1-1.7,1c-1.2,0-2.1-0.8-2.1-2
		c0-1.3,1-2.2,2.4-2.2c1.4,0,2.6,0.9,2.6,3.2c0,2.1-1,3.3-2.6,3.3C167.4,68.8,166.5,68.1,166.3,67.1z M169.8,64.4
		c0-0.6-0.5-1.1-1.2-1.1c-0.6,0-1.2,0.5-1.2,1.1c0,0.7,0.5,1.1,1.1,1.1C169.3,65.5,169.8,65.1,169.8,64.4z"/>
	<path class="st5" d="M172.1,67.1h1.3c0.1,0.4,0.5,0.7,1.1,0.7c0.9,0,1.4-0.9,1.4-2.3h0c-0.2,0.6-0.8,1-1.7,1c-1.2,0-2.1-0.8-2.1-2
		c0-1.3,1-2.2,2.4-2.2c1.4,0,2.6,0.9,2.6,3.2c0,2.1-1,3.3-2.6,3.3C173.2,68.8,172.2,68.1,172.1,67.1z M175.6,64.4
		c0-0.6-0.5-1.1-1.2-1.1c-0.6,0-1.2,0.5-1.2,1.1c0,0.7,0.5,1.1,1.1,1.1C175.1,65.5,175.6,65.1,175.6,64.4z"/>
	<path class="st5" d="M177.8,66.9h1.2c0.1,0.5,0.5,0.9,1.1,0.9c0.7,0,1.2-0.5,1.2-1.2c0-0.7-0.5-1.1-1.2-1.1c-0.5,0-0.9,0.2-1.1,0.6
		H178l0.3-3.7h4v1h-3l-0.2,1.8h0c0.3-0.4,0.8-0.7,1.4-0.7c1.2,0,2,0.9,2,2.1c0,1.3-1,2.2-2.4,2.2C178.9,68.8,177.9,68,177.8,66.9z"
		/>
	<path class="st5" d="M185.2,66.7v-1.1h2.9v1.1H185.2z"/>
	<path class="st5" d="M192.4,63.6L192.4,63.6l-1.6,1.1v-1.2l1.6-1.1h1.3v6.3h-1.3V63.6z"/>
	<path class="st5" d="M195,65.6c0-2.1,1-3.3,2.6-3.3c1.2,0,2.2,0.7,2.3,1.7h-1.3c-0.1-0.4-0.5-0.7-1-0.7c-0.9,0-1.4,0.9-1.4,2.3h0
		c0.2-0.6,0.9-1,1.7-1c1.2,0,2,0.9,2,2c0,1.3-1,2.2-2.4,2.2C196.1,68.8,195,67.7,195,65.6z M198.7,66.6c0-0.7-0.5-1.1-1.1-1.1
		c-0.7,0-1.2,0.5-1.2,1.1c0,0.6,0.5,1.2,1.1,1.2S198.7,67.3,198.7,66.6z"/>
	<path class="st5" d="M200.7,65.6c0-2.1,1-3.3,2.6-3.3c1.2,0,2.2,0.7,2.3,1.7h-1.3c-0.1-0.4-0.5-0.7-1-0.7c-0.9,0-1.4,0.9-1.4,2.3h0
		c0.2-0.6,0.9-1,1.7-1c1.2,0,2,0.9,2,2c0,1.3-1,2.2-2.4,2.2C201.8,68.8,200.7,67.7,200.7,65.6z M204.4,66.6c0-0.7-0.5-1.1-1.1-1.1
		c-0.7,0-1.2,0.5-1.2,1.1c0,0.6,0.5,1.2,1.1,1.2C203.9,67.7,204.4,67.3,204.4,66.6z"/>
	<path class="st5" d="M206.6,66.9h1.2c0.1,0.5,0.5,0.9,1.1,0.9c0.7,0,1.2-0.5,1.2-1.2c0-0.7-0.5-1.1-1.2-1.1c-0.5,0-0.9,0.2-1.1,0.6
		h-1.1l0.3-3.7h4v1h-3l-0.2,1.8h0c0.3-0.4,0.8-0.7,1.4-0.7c1.2,0,2,0.9,2,2.1c0,1.3-1,2.2-2.4,2.2C207.6,68.8,206.6,68,206.6,66.9z"
		/>
</g>
</svg>
